%TF.GenerationSoftware,KiCad,Pcbnew,(5.1.8-0-10_14)*%
%TF.CreationDate,2021-08-04T22:04:29-04:00*%
%TF.ProjectId,MyTPM,4d795450-4d2e-46b6-9963-61645f706362,rev?*%
%TF.SameCoordinates,Original*%
%TF.FileFunction,Legend,Top*%
%TF.FilePolarity,Positive*%
%FSLAX46Y46*%
G04 Gerber Fmt 4.6, Leading zero omitted, Abs format (unit mm)*
G04 Created by KiCad (PCBNEW (5.1.8-0-10_14)) date 2021-08-04 22:04:29*
%MOMM*%
%LPD*%
G01*
G04 APERTURE LIST*
%ADD10C,0.120000*%
%ADD11C,0.500000*%
%ADD12C,0.127000*%
%ADD13C,0.098425*%
%ADD14C,0.125000*%
%ADD15C,0.150000*%
G04 APERTURE END LIST*
D10*
%TO.C,U1*%
X153000580Y-82165160D02*
X154290580Y-82165160D01*
X153000580Y-82440160D02*
X153000580Y-82165160D01*
X150690580Y-82440160D02*
X153000580Y-82440160D01*
X148380580Y-82440160D02*
X148380580Y-82165160D01*
X150690580Y-82440160D02*
X148380580Y-82440160D01*
X153000580Y-72520160D02*
X153000580Y-72795160D01*
X150690580Y-72520160D02*
X153000580Y-72520160D01*
X148380580Y-72520160D02*
X148380580Y-72795160D01*
X150690580Y-72520160D02*
X148380580Y-72520160D01*
D11*
X152017149Y-81400160D02*
G75*
G03*
X152017149Y-81400160I-56569J0D01*
G01*
D12*
%TO.C,R2*%
X148746700Y-84496060D02*
X148966700Y-84496060D01*
X148746700Y-83596060D02*
X148966700Y-83596060D01*
%TO.C,R1*%
X152431260Y-83596060D02*
X152211260Y-83596060D01*
X152431260Y-84496060D02*
X152211260Y-84496060D01*
%TO.C,C4*%
D13*
X144130667Y-76377376D02*
X144149415Y-76396124D01*
X144168162Y-76452367D01*
X144168162Y-76489862D01*
X144149415Y-76546105D01*
X144111919Y-76583601D01*
X144074424Y-76602348D01*
X143999433Y-76621096D01*
X143943190Y-76621096D01*
X143868200Y-76602348D01*
X143830704Y-76583601D01*
X143793209Y-76546105D01*
X143774461Y-76489862D01*
X143774461Y-76452367D01*
X143793209Y-76396124D01*
X143811957Y-76377376D01*
X143905695Y-76039918D02*
X144168162Y-76039918D01*
X143755714Y-76133657D02*
X144036929Y-76227395D01*
X144036929Y-75983675D01*
X144879362Y-76380039D02*
X144879362Y-76605011D01*
X144879362Y-76492525D02*
X144485661Y-76492525D01*
X144541904Y-76530020D01*
X144579400Y-76567515D01*
X144598147Y-76605011D01*
X144485661Y-76136319D02*
X144485661Y-76098824D01*
X144504409Y-76061328D01*
X144523157Y-76042581D01*
X144560652Y-76023833D01*
X144635643Y-76005085D01*
X144729381Y-76005085D01*
X144804372Y-76023833D01*
X144841867Y-76042581D01*
X144860615Y-76061328D01*
X144879362Y-76098824D01*
X144879362Y-76136319D01*
X144860615Y-76173814D01*
X144841867Y-76192562D01*
X144804372Y-76211310D01*
X144729381Y-76230057D01*
X144635643Y-76230057D01*
X144560652Y-76211310D01*
X144523157Y-76192562D01*
X144504409Y-76173814D01*
X144485661Y-76136319D01*
X144485661Y-75761366D02*
X144485661Y-75723870D01*
X144504409Y-75686375D01*
X144523157Y-75667627D01*
X144560652Y-75648880D01*
X144635643Y-75630132D01*
X144729381Y-75630132D01*
X144804372Y-75648880D01*
X144841867Y-75667627D01*
X144860615Y-75686375D01*
X144879362Y-75723870D01*
X144879362Y-75761366D01*
X144860615Y-75798861D01*
X144841867Y-75817609D01*
X144804372Y-75836356D01*
X144729381Y-75855104D01*
X144635643Y-75855104D01*
X144560652Y-75836356D01*
X144523157Y-75817609D01*
X144504409Y-75798861D01*
X144485661Y-75761366D01*
X144616895Y-75461403D02*
X144879362Y-75461403D01*
X144654390Y-75461403D02*
X144635643Y-75442655D01*
X144616895Y-75405160D01*
X144616895Y-75348917D01*
X144635643Y-75311422D01*
X144673138Y-75292674D01*
X144879362Y-75292674D01*
X144673138Y-74973964D02*
X144673138Y-75105197D01*
X144879362Y-75105197D02*
X144485661Y-75105197D01*
X144485661Y-74917721D01*
%TO.C,P1*%
D14*
X150395192Y-68740150D02*
X150395192Y-68240150D01*
X150585668Y-68240150D01*
X150633287Y-68263960D01*
X150657097Y-68287769D01*
X150680906Y-68335388D01*
X150680906Y-68406817D01*
X150657097Y-68454436D01*
X150633287Y-68478245D01*
X150585668Y-68502055D01*
X150395192Y-68502055D01*
X151157097Y-68740150D02*
X150871382Y-68740150D01*
X151014240Y-68740150D02*
X151014240Y-68240150D01*
X150966620Y-68311579D01*
X150919001Y-68359198D01*
X150871382Y-68383007D01*
%TO.C,U1*%
D15*
X150012495Y-76851260D02*
X150012495Y-77660784D01*
X150060114Y-77756022D01*
X150107733Y-77803641D01*
X150202971Y-77851260D01*
X150393447Y-77851260D01*
X150488685Y-77803641D01*
X150536304Y-77756022D01*
X150583923Y-77660784D01*
X150583923Y-76851260D01*
X151583923Y-77851260D02*
X151012495Y-77851260D01*
X151298209Y-77851260D02*
X151298209Y-76851260D01*
X151202971Y-76994118D01*
X151107733Y-77089356D01*
X151012495Y-77136975D01*
%TO.C,R2*%
D13*
X147856363Y-85263022D02*
X147725129Y-85075546D01*
X147631391Y-85263022D02*
X147631391Y-84869321D01*
X147781372Y-84869321D01*
X147818867Y-84888069D01*
X147837615Y-84906817D01*
X147856363Y-84944312D01*
X147856363Y-85000555D01*
X147837615Y-85038050D01*
X147818867Y-85056798D01*
X147781372Y-85075546D01*
X147631391Y-85075546D01*
X148006344Y-84906817D02*
X148025092Y-84888069D01*
X148062587Y-84869321D01*
X148156325Y-84869321D01*
X148193821Y-84888069D01*
X148212568Y-84906817D01*
X148231316Y-84944312D01*
X148231316Y-84981807D01*
X148212568Y-85038050D01*
X147987596Y-85263022D01*
X148231316Y-85263022D01*
X149252878Y-85278262D02*
X149027906Y-85278262D01*
X149140392Y-85278262D02*
X149140392Y-84884561D01*
X149102897Y-84940804D01*
X149065402Y-84978300D01*
X149027906Y-84997047D01*
X149496598Y-84884561D02*
X149534093Y-84884561D01*
X149571589Y-84903309D01*
X149590336Y-84922057D01*
X149609084Y-84959552D01*
X149627832Y-85034543D01*
X149627832Y-85128281D01*
X149609084Y-85203272D01*
X149590336Y-85240767D01*
X149571589Y-85259515D01*
X149534093Y-85278262D01*
X149496598Y-85278262D01*
X149459103Y-85259515D01*
X149440355Y-85240767D01*
X149421607Y-85203272D01*
X149402860Y-85128281D01*
X149402860Y-85034543D01*
X149421607Y-84959552D01*
X149440355Y-84922057D01*
X149459103Y-84903309D01*
X149496598Y-84884561D01*
X149796561Y-85278262D02*
X149796561Y-84884561D01*
X150021533Y-85278262D02*
X149852804Y-85053290D01*
X150021533Y-84884561D02*
X149796561Y-85109533D01*
%TO.C,R1*%
X151369183Y-85245242D02*
X151237949Y-85057766D01*
X151144211Y-85245242D02*
X151144211Y-84851541D01*
X151294192Y-84851541D01*
X151331687Y-84870289D01*
X151350435Y-84889037D01*
X151369183Y-84926532D01*
X151369183Y-84982775D01*
X151350435Y-85020270D01*
X151331687Y-85039018D01*
X151294192Y-85057766D01*
X151144211Y-85057766D01*
X151744136Y-85245242D02*
X151519164Y-85245242D01*
X151631650Y-85245242D02*
X151631650Y-84851541D01*
X151594155Y-84907784D01*
X151556659Y-84945280D01*
X151519164Y-84964027D01*
X152750458Y-85227462D02*
X152525486Y-85227462D01*
X152637972Y-85227462D02*
X152637972Y-84833761D01*
X152600477Y-84890004D01*
X152562982Y-84927500D01*
X152525486Y-84946247D01*
X152994178Y-84833761D02*
X153031673Y-84833761D01*
X153069169Y-84852509D01*
X153087916Y-84871257D01*
X153106664Y-84908752D01*
X153125412Y-84983743D01*
X153125412Y-85077481D01*
X153106664Y-85152472D01*
X153087916Y-85189967D01*
X153069169Y-85208715D01*
X153031673Y-85227462D01*
X152994178Y-85227462D01*
X152956683Y-85208715D01*
X152937935Y-85189967D01*
X152919187Y-85152472D01*
X152900440Y-85077481D01*
X152900440Y-84983743D01*
X152919187Y-84908752D01*
X152937935Y-84871257D01*
X152956683Y-84852509D01*
X152994178Y-84833761D01*
X153294141Y-85227462D02*
X153294141Y-84833761D01*
X153519113Y-85227462D02*
X153350384Y-85002490D01*
X153519113Y-84833761D02*
X153294141Y-85058733D01*
%TO.C,C3*%
X145525127Y-81746936D02*
X145543875Y-81765684D01*
X145562622Y-81821927D01*
X145562622Y-81859422D01*
X145543875Y-81915665D01*
X145506379Y-81953161D01*
X145468884Y-81971908D01*
X145393893Y-81990656D01*
X145337650Y-81990656D01*
X145262660Y-81971908D01*
X145225164Y-81953161D01*
X145187669Y-81915665D01*
X145168921Y-81859422D01*
X145168921Y-81821927D01*
X145187669Y-81765684D01*
X145206417Y-81746936D01*
X145168921Y-81615703D02*
X145168921Y-81371983D01*
X145318903Y-81503217D01*
X145318903Y-81446974D01*
X145337650Y-81409478D01*
X145356398Y-81390731D01*
X145393893Y-81371983D01*
X145487632Y-81371983D01*
X145525127Y-81390731D01*
X145543875Y-81409478D01*
X145562622Y-81446974D01*
X145562622Y-81559460D01*
X145543875Y-81596955D01*
X145525127Y-81615703D01*
X146200162Y-82859579D02*
X146200162Y-83084551D01*
X146200162Y-82972065D02*
X145806461Y-82972065D01*
X145862704Y-83009560D01*
X145900200Y-83047055D01*
X145918947Y-83084551D01*
X145806461Y-82615859D02*
X145806461Y-82578364D01*
X145825209Y-82540868D01*
X145843957Y-82522121D01*
X145881452Y-82503373D01*
X145956443Y-82484625D01*
X146050181Y-82484625D01*
X146125172Y-82503373D01*
X146162667Y-82522121D01*
X146181415Y-82540868D01*
X146200162Y-82578364D01*
X146200162Y-82615859D01*
X146181415Y-82653354D01*
X146162667Y-82672102D01*
X146125172Y-82690850D01*
X146050181Y-82709597D01*
X145956443Y-82709597D01*
X145881452Y-82690850D01*
X145843957Y-82672102D01*
X145825209Y-82653354D01*
X145806461Y-82615859D01*
X145806461Y-82240906D02*
X145806461Y-82203410D01*
X145825209Y-82165915D01*
X145843957Y-82147167D01*
X145881452Y-82128420D01*
X145956443Y-82109672D01*
X146050181Y-82109672D01*
X146125172Y-82128420D01*
X146162667Y-82147167D01*
X146181415Y-82165915D01*
X146200162Y-82203410D01*
X146200162Y-82240906D01*
X146181415Y-82278401D01*
X146162667Y-82297149D01*
X146125172Y-82315896D01*
X146050181Y-82334644D01*
X145956443Y-82334644D01*
X145881452Y-82315896D01*
X145843957Y-82297149D01*
X145825209Y-82278401D01*
X145806461Y-82240906D01*
X145937695Y-81940943D02*
X146200162Y-81940943D01*
X145975190Y-81940943D02*
X145956443Y-81922195D01*
X145937695Y-81884700D01*
X145937695Y-81828457D01*
X145956443Y-81790962D01*
X145993938Y-81772214D01*
X146200162Y-81772214D01*
X145993938Y-81453504D02*
X145993938Y-81584737D01*
X146200162Y-81584737D02*
X145806461Y-81584737D01*
X145806461Y-81397261D01*
%TO.C,C2*%
X155448907Y-73324296D02*
X155467655Y-73343044D01*
X155486402Y-73399287D01*
X155486402Y-73436782D01*
X155467655Y-73493025D01*
X155430159Y-73530521D01*
X155392664Y-73549268D01*
X155317673Y-73568016D01*
X155261430Y-73568016D01*
X155186440Y-73549268D01*
X155148944Y-73530521D01*
X155111449Y-73493025D01*
X155092701Y-73436782D01*
X155092701Y-73399287D01*
X155111449Y-73343044D01*
X155130197Y-73324296D01*
X155130197Y-73174315D02*
X155111449Y-73155567D01*
X155092701Y-73118072D01*
X155092701Y-73024334D01*
X155111449Y-72986838D01*
X155130197Y-72968091D01*
X155167692Y-72949343D01*
X155205187Y-72949343D01*
X155261430Y-72968091D01*
X155486402Y-73193063D01*
X155486402Y-72949343D01*
X156159502Y-73314259D02*
X156159502Y-73539231D01*
X156159502Y-73426745D02*
X155765801Y-73426745D01*
X155822044Y-73464240D01*
X155859540Y-73501735D01*
X155878287Y-73539231D01*
X155765801Y-73070539D02*
X155765801Y-73033044D01*
X155784549Y-72995548D01*
X155803297Y-72976801D01*
X155840792Y-72958053D01*
X155915783Y-72939305D01*
X156009521Y-72939305D01*
X156084512Y-72958053D01*
X156122007Y-72976801D01*
X156140755Y-72995548D01*
X156159502Y-73033044D01*
X156159502Y-73070539D01*
X156140755Y-73108034D01*
X156122007Y-73126782D01*
X156084512Y-73145530D01*
X156009521Y-73164277D01*
X155915783Y-73164277D01*
X155840792Y-73145530D01*
X155803297Y-73126782D01*
X155784549Y-73108034D01*
X155765801Y-73070539D01*
X155765801Y-72695586D02*
X155765801Y-72658090D01*
X155784549Y-72620595D01*
X155803297Y-72601847D01*
X155840792Y-72583100D01*
X155915783Y-72564352D01*
X156009521Y-72564352D01*
X156084512Y-72583100D01*
X156122007Y-72601847D01*
X156140755Y-72620595D01*
X156159502Y-72658090D01*
X156159502Y-72695586D01*
X156140755Y-72733081D01*
X156122007Y-72751829D01*
X156084512Y-72770576D01*
X156009521Y-72789324D01*
X155915783Y-72789324D01*
X155840792Y-72770576D01*
X155803297Y-72751829D01*
X155784549Y-72733081D01*
X155765801Y-72695586D01*
X155897035Y-72395623D02*
X156159502Y-72395623D01*
X155934530Y-72395623D02*
X155915783Y-72376875D01*
X155897035Y-72339380D01*
X155897035Y-72283137D01*
X155915783Y-72245642D01*
X155953278Y-72226894D01*
X156159502Y-72226894D01*
X155953278Y-71908184D02*
X155953278Y-72039417D01*
X156159502Y-72039417D02*
X155765801Y-72039417D01*
X155765801Y-71851941D01*
%TO.C,C1*%
X155502247Y-81746936D02*
X155520995Y-81765684D01*
X155539742Y-81821927D01*
X155539742Y-81859422D01*
X155520995Y-81915665D01*
X155483499Y-81953161D01*
X155446004Y-81971908D01*
X155371013Y-81990656D01*
X155314770Y-81990656D01*
X155239780Y-81971908D01*
X155202284Y-81953161D01*
X155164789Y-81915665D01*
X155146041Y-81859422D01*
X155146041Y-81821927D01*
X155164789Y-81765684D01*
X155183537Y-81746936D01*
X155539742Y-81371983D02*
X155539742Y-81596955D01*
X155539742Y-81484469D02*
X155146041Y-81484469D01*
X155202284Y-81521964D01*
X155239780Y-81559460D01*
X155258527Y-81596955D01*
X156195062Y-82775759D02*
X156195062Y-83000731D01*
X156195062Y-82888245D02*
X155801361Y-82888245D01*
X155857604Y-82925740D01*
X155895100Y-82963235D01*
X155913847Y-83000731D01*
X155801361Y-82532039D02*
X155801361Y-82494544D01*
X155820109Y-82457048D01*
X155838857Y-82438301D01*
X155876352Y-82419553D01*
X155951343Y-82400805D01*
X156045081Y-82400805D01*
X156120072Y-82419553D01*
X156157567Y-82438301D01*
X156176315Y-82457048D01*
X156195062Y-82494544D01*
X156195062Y-82532039D01*
X156176315Y-82569534D01*
X156157567Y-82588282D01*
X156120072Y-82607030D01*
X156045081Y-82625777D01*
X155951343Y-82625777D01*
X155876352Y-82607030D01*
X155838857Y-82588282D01*
X155820109Y-82569534D01*
X155801361Y-82532039D01*
X155801361Y-82157086D02*
X155801361Y-82119590D01*
X155820109Y-82082095D01*
X155838857Y-82063347D01*
X155876352Y-82044600D01*
X155951343Y-82025852D01*
X156045081Y-82025852D01*
X156120072Y-82044600D01*
X156157567Y-82063347D01*
X156176315Y-82082095D01*
X156195062Y-82119590D01*
X156195062Y-82157086D01*
X156176315Y-82194581D01*
X156157567Y-82213329D01*
X156120072Y-82232076D01*
X156045081Y-82250824D01*
X155951343Y-82250824D01*
X155876352Y-82232076D01*
X155838857Y-82213329D01*
X155820109Y-82194581D01*
X155801361Y-82157086D01*
X155932595Y-81857123D02*
X156195062Y-81857123D01*
X155970090Y-81857123D02*
X155951343Y-81838375D01*
X155932595Y-81800880D01*
X155932595Y-81744637D01*
X155951343Y-81707142D01*
X155988838Y-81688394D01*
X156195062Y-81688394D01*
X155988838Y-81369684D02*
X155988838Y-81500917D01*
X156195062Y-81500917D02*
X155801361Y-81500917D01*
X155801361Y-81313441D01*
%TD*%
M02*
