%TF.GenerationSoftware,KiCad,Pcbnew,(5.1.8-0-10_14)*%
%TF.CreationDate,2021-08-04T22:04:29-04:00*%
%TF.ProjectId,MyTPM,4d795450-4d2e-46b6-9963-61645f706362,rev?*%
%TF.SameCoordinates,Original*%
%TF.FileFunction,Soldermask,Top*%
%TF.FilePolarity,Negative*%
%FSLAX46Y46*%
G04 Gerber Fmt 4.6, Leading zero omitted, Abs format (unit mm)*
G04 Created by KiCad (PCBNEW (5.1.8-0-10_14)) date 2021-08-04 22:04:29*
%MOMM*%
%LPD*%
G01*
G04 APERTURE LIST*
%ADD10C,0.100000*%
%ADD11C,2.201600*%
%ADD12C,1.301600*%
%ADD13C,0.901600*%
G04 APERTURE END LIST*
D10*
X147891857Y-63749333D02*
X148129952Y-63749333D01*
X147844238Y-63892190D02*
X148010904Y-63392190D01*
X148177571Y-63892190D01*
X148320428Y-63868380D02*
X148391857Y-63892190D01*
X148510904Y-63892190D01*
X148558523Y-63868380D01*
X148582333Y-63844571D01*
X148606142Y-63796952D01*
X148606142Y-63749333D01*
X148582333Y-63701714D01*
X148558523Y-63677904D01*
X148510904Y-63654095D01*
X148415666Y-63630285D01*
X148368047Y-63606476D01*
X148344238Y-63582666D01*
X148320428Y-63535047D01*
X148320428Y-63487428D01*
X148344238Y-63439809D01*
X148368047Y-63416000D01*
X148415666Y-63392190D01*
X148534714Y-63392190D01*
X148606142Y-63416000D01*
X148820428Y-63392190D02*
X148820428Y-63796952D01*
X148844238Y-63844571D01*
X148868047Y-63868380D01*
X148915666Y-63892190D01*
X149010904Y-63892190D01*
X149058523Y-63868380D01*
X149082333Y-63844571D01*
X149106142Y-63796952D01*
X149106142Y-63392190D01*
X149320428Y-63868380D02*
X149391857Y-63892190D01*
X149510904Y-63892190D01*
X149558523Y-63868380D01*
X149582333Y-63844571D01*
X149606142Y-63796952D01*
X149606142Y-63749333D01*
X149582333Y-63701714D01*
X149558523Y-63677904D01*
X149510904Y-63654095D01*
X149415666Y-63630285D01*
X149368047Y-63606476D01*
X149344238Y-63582666D01*
X149320428Y-63535047D01*
X149320428Y-63487428D01*
X149344238Y-63439809D01*
X149368047Y-63416000D01*
X149415666Y-63392190D01*
X149534714Y-63392190D01*
X149606142Y-63416000D01*
X150463285Y-63892190D02*
X150177571Y-63892190D01*
X150320428Y-63892190D02*
X150320428Y-63392190D01*
X150272809Y-63463619D01*
X150225190Y-63511238D01*
X150177571Y-63535047D01*
X150891857Y-63558857D02*
X150891857Y-63892190D01*
X150772809Y-63368380D02*
X150653761Y-63725523D01*
X150963285Y-63725523D01*
X151153761Y-63701714D02*
X151534714Y-63701714D01*
X152034714Y-63892190D02*
X151749000Y-63892190D01*
X151891857Y-63892190D02*
X151891857Y-63392190D01*
X151844238Y-63463619D01*
X151796619Y-63511238D01*
X151749000Y-63535047D01*
X152629952Y-63892190D02*
X152629952Y-63392190D01*
X152820428Y-63392190D01*
X152868047Y-63416000D01*
X152891857Y-63439809D01*
X152915666Y-63487428D01*
X152915666Y-63558857D01*
X152891857Y-63606476D01*
X152868047Y-63630285D01*
X152820428Y-63654095D01*
X152629952Y-63654095D01*
X153129952Y-63892190D02*
X153129952Y-63558857D01*
X153129952Y-63392190D02*
X153106142Y-63416000D01*
X153129952Y-63439809D01*
X153153761Y-63416000D01*
X153129952Y-63392190D01*
X153129952Y-63439809D01*
X153368047Y-63558857D02*
X153368047Y-63892190D01*
X153368047Y-63606476D02*
X153391857Y-63582666D01*
X153439476Y-63558857D01*
X153510904Y-63558857D01*
X153558523Y-63582666D01*
X153582333Y-63630285D01*
X153582333Y-63892190D01*
X147665666Y-64242190D02*
X147951380Y-64242190D01*
X147808523Y-64742190D02*
X147808523Y-64242190D01*
X148118047Y-64742190D02*
X148118047Y-64242190D01*
X148308523Y-64242190D01*
X148356142Y-64266000D01*
X148379952Y-64289809D01*
X148403761Y-64337428D01*
X148403761Y-64408857D01*
X148379952Y-64456476D01*
X148356142Y-64480285D01*
X148308523Y-64504095D01*
X148118047Y-64504095D01*
X148618047Y-64742190D02*
X148618047Y-64242190D01*
X148784714Y-64599333D01*
X148951380Y-64242190D01*
X148951380Y-64742190D01*
X149189476Y-64551714D02*
X149570428Y-64551714D01*
X149808523Y-64742190D02*
X149808523Y-64242190D01*
X149975190Y-64599333D01*
X150141857Y-64242190D01*
X150141857Y-64742190D01*
X151046619Y-64742190D02*
X150879952Y-64504095D01*
X150760904Y-64742190D02*
X150760904Y-64242190D01*
X150951380Y-64242190D01*
X150999000Y-64266000D01*
X151022809Y-64289809D01*
X151046619Y-64337428D01*
X151046619Y-64408857D01*
X151022809Y-64456476D01*
X150999000Y-64480285D01*
X150951380Y-64504095D01*
X150760904Y-64504095D01*
X151237095Y-64289809D02*
X151260904Y-64266000D01*
X151308523Y-64242190D01*
X151427571Y-64242190D01*
X151475190Y-64266000D01*
X151499000Y-64289809D01*
X151522809Y-64337428D01*
X151522809Y-64385047D01*
X151499000Y-64456476D01*
X151213285Y-64742190D01*
X151522809Y-64742190D01*
X151737095Y-64694571D02*
X151760904Y-64718380D01*
X151737095Y-64742190D01*
X151713285Y-64718380D01*
X151737095Y-64694571D01*
X151737095Y-64742190D01*
X152070428Y-64242190D02*
X152118047Y-64242190D01*
X152165666Y-64266000D01*
X152189476Y-64289809D01*
X152213285Y-64337428D01*
X152237095Y-64432666D01*
X152237095Y-64551714D01*
X152213285Y-64646952D01*
X152189476Y-64694571D01*
X152165666Y-64718380D01*
X152118047Y-64742190D01*
X152070428Y-64742190D01*
X152022809Y-64718380D01*
X151999000Y-64694571D01*
X151975190Y-64646952D01*
X151951380Y-64551714D01*
X151951380Y-64432666D01*
X151975190Y-64337428D01*
X151999000Y-64289809D01*
X152022809Y-64266000D01*
X152070428Y-64242190D01*
X152832333Y-64742190D02*
X152832333Y-64242190D01*
X152951380Y-64242190D01*
X153022809Y-64266000D01*
X153070428Y-64313619D01*
X153094238Y-64361238D01*
X153118047Y-64456476D01*
X153118047Y-64527904D01*
X153094238Y-64623142D01*
X153070428Y-64670761D01*
X153022809Y-64718380D01*
X152951380Y-64742190D01*
X152832333Y-64742190D01*
X153332333Y-64742190D02*
X153332333Y-64242190D01*
X153665666Y-64504095D02*
X153665666Y-64742190D01*
X153499000Y-64242190D02*
X153665666Y-64504095D01*
X153832333Y-64242190D01*
X147951380Y-65092190D02*
X147951380Y-65449333D01*
X147927571Y-65520761D01*
X147879952Y-65568380D01*
X147808523Y-65592190D01*
X147760904Y-65592190D01*
X148379952Y-65568380D02*
X148332333Y-65592190D01*
X148237095Y-65592190D01*
X148189476Y-65568380D01*
X148165666Y-65520761D01*
X148165666Y-65330285D01*
X148189476Y-65282666D01*
X148237095Y-65258857D01*
X148332333Y-65258857D01*
X148379952Y-65282666D01*
X148403761Y-65330285D01*
X148403761Y-65377904D01*
X148165666Y-65425523D01*
X148546619Y-65258857D02*
X148737095Y-65258857D01*
X148618047Y-65592190D02*
X148618047Y-65163619D01*
X148641857Y-65116000D01*
X148689476Y-65092190D01*
X148737095Y-65092190D01*
X148832333Y-65258857D02*
X149022809Y-65258857D01*
X148903761Y-65592190D02*
X148903761Y-65163619D01*
X148927571Y-65116000D01*
X148975190Y-65092190D01*
X149022809Y-65092190D01*
X149856142Y-65544571D02*
X149832333Y-65568380D01*
X149760904Y-65592190D01*
X149713285Y-65592190D01*
X149641857Y-65568380D01*
X149594238Y-65520761D01*
X149570428Y-65473142D01*
X149546619Y-65377904D01*
X149546619Y-65306476D01*
X149570428Y-65211238D01*
X149594238Y-65163619D01*
X149641857Y-65116000D01*
X149713285Y-65092190D01*
X149760904Y-65092190D01*
X149832333Y-65116000D01*
X149856142Y-65139809D01*
X150070428Y-65592190D02*
X150070428Y-65092190D01*
X150284714Y-65592190D02*
X150284714Y-65330285D01*
X150260904Y-65282666D01*
X150213285Y-65258857D01*
X150141857Y-65258857D01*
X150094238Y-65282666D01*
X150070428Y-65306476D01*
X150713285Y-65568380D02*
X150665666Y-65592190D01*
X150570428Y-65592190D01*
X150522809Y-65568380D01*
X150499000Y-65520761D01*
X150499000Y-65330285D01*
X150522809Y-65282666D01*
X150570428Y-65258857D01*
X150665666Y-65258857D01*
X150713285Y-65282666D01*
X150737095Y-65330285D01*
X150737095Y-65377904D01*
X150499000Y-65425523D01*
X150951380Y-65258857D02*
X150951380Y-65592190D01*
X150951380Y-65306476D02*
X150975190Y-65282666D01*
X151022809Y-65258857D01*
X151094238Y-65258857D01*
X151141857Y-65282666D01*
X151165666Y-65330285D01*
X151165666Y-65592190D01*
X151427571Y-65568380D02*
X151427571Y-65592190D01*
X151403761Y-65639809D01*
X151379952Y-65663619D01*
X151999000Y-65139809D02*
X152022809Y-65116000D01*
X152070428Y-65092190D01*
X152189476Y-65092190D01*
X152237095Y-65116000D01*
X152260904Y-65139809D01*
X152284714Y-65187428D01*
X152284714Y-65235047D01*
X152260904Y-65306476D01*
X151975190Y-65592190D01*
X152284714Y-65592190D01*
X152594238Y-65092190D02*
X152641857Y-65092190D01*
X152689476Y-65116000D01*
X152713285Y-65139809D01*
X152737095Y-65187428D01*
X152760904Y-65282666D01*
X152760904Y-65401714D01*
X152737095Y-65496952D01*
X152713285Y-65544571D01*
X152689476Y-65568380D01*
X152641857Y-65592190D01*
X152594238Y-65592190D01*
X152546619Y-65568380D01*
X152522809Y-65544571D01*
X152499000Y-65496952D01*
X152475190Y-65401714D01*
X152475190Y-65282666D01*
X152499000Y-65187428D01*
X152522809Y-65139809D01*
X152546619Y-65116000D01*
X152594238Y-65092190D01*
X152951380Y-65139809D02*
X152975190Y-65116000D01*
X153022809Y-65092190D01*
X153141857Y-65092190D01*
X153189476Y-65116000D01*
X153213285Y-65139809D01*
X153237095Y-65187428D01*
X153237095Y-65235047D01*
X153213285Y-65306476D01*
X152927571Y-65592190D01*
X153237095Y-65592190D01*
X153713285Y-65592190D02*
X153427571Y-65592190D01*
X153570428Y-65592190D02*
X153570428Y-65092190D01*
X153522809Y-65163619D01*
X153475190Y-65211238D01*
X153427571Y-65235047D01*
X147891857Y-63749333D02*
X148129952Y-63749333D01*
X147844238Y-63892190D02*
X148010904Y-63392190D01*
X148177571Y-63892190D01*
X148320428Y-63868380D02*
X148391857Y-63892190D01*
X148510904Y-63892190D01*
X148558523Y-63868380D01*
X148582333Y-63844571D01*
X148606142Y-63796952D01*
X148606142Y-63749333D01*
X148582333Y-63701714D01*
X148558523Y-63677904D01*
X148510904Y-63654095D01*
X148415666Y-63630285D01*
X148368047Y-63606476D01*
X148344238Y-63582666D01*
X148320428Y-63535047D01*
X148320428Y-63487428D01*
X148344238Y-63439809D01*
X148368047Y-63416000D01*
X148415666Y-63392190D01*
X148534714Y-63392190D01*
X148606142Y-63416000D01*
X148820428Y-63392190D02*
X148820428Y-63796952D01*
X148844238Y-63844571D01*
X148868047Y-63868380D01*
X148915666Y-63892190D01*
X149010904Y-63892190D01*
X149058523Y-63868380D01*
X149082333Y-63844571D01*
X149106142Y-63796952D01*
X149106142Y-63392190D01*
X149320428Y-63868380D02*
X149391857Y-63892190D01*
X149510904Y-63892190D01*
X149558523Y-63868380D01*
X149582333Y-63844571D01*
X149606142Y-63796952D01*
X149606142Y-63749333D01*
X149582333Y-63701714D01*
X149558523Y-63677904D01*
X149510904Y-63654095D01*
X149415666Y-63630285D01*
X149368047Y-63606476D01*
X149344238Y-63582666D01*
X149320428Y-63535047D01*
X149320428Y-63487428D01*
X149344238Y-63439809D01*
X149368047Y-63416000D01*
X149415666Y-63392190D01*
X149534714Y-63392190D01*
X149606142Y-63416000D01*
X150463285Y-63892190D02*
X150177571Y-63892190D01*
X150320428Y-63892190D02*
X150320428Y-63392190D01*
X150272809Y-63463619D01*
X150225190Y-63511238D01*
X150177571Y-63535047D01*
X150891857Y-63558857D02*
X150891857Y-63892190D01*
X150772809Y-63368380D02*
X150653761Y-63725523D01*
X150963285Y-63725523D01*
X151153761Y-63701714D02*
X151534714Y-63701714D01*
X152034714Y-63892190D02*
X151749000Y-63892190D01*
X151891857Y-63892190D02*
X151891857Y-63392190D01*
X151844238Y-63463619D01*
X151796619Y-63511238D01*
X151749000Y-63535047D01*
X152629952Y-63892190D02*
X152629952Y-63392190D01*
X152820428Y-63392190D01*
X152868047Y-63416000D01*
X152891857Y-63439809D01*
X152915666Y-63487428D01*
X152915666Y-63558857D01*
X152891857Y-63606476D01*
X152868047Y-63630285D01*
X152820428Y-63654095D01*
X152629952Y-63654095D01*
X153129952Y-63892190D02*
X153129952Y-63558857D01*
X153129952Y-63392190D02*
X153106142Y-63416000D01*
X153129952Y-63439809D01*
X153153761Y-63416000D01*
X153129952Y-63392190D01*
X153129952Y-63439809D01*
X153368047Y-63558857D02*
X153368047Y-63892190D01*
X153368047Y-63606476D02*
X153391857Y-63582666D01*
X153439476Y-63558857D01*
X153510904Y-63558857D01*
X153558523Y-63582666D01*
X153582333Y-63630285D01*
X153582333Y-63892190D01*
X147665666Y-64242190D02*
X147951380Y-64242190D01*
X147808523Y-64742190D02*
X147808523Y-64242190D01*
X148118047Y-64742190D02*
X148118047Y-64242190D01*
X148308523Y-64242190D01*
X148356142Y-64266000D01*
X148379952Y-64289809D01*
X148403761Y-64337428D01*
X148403761Y-64408857D01*
X148379952Y-64456476D01*
X148356142Y-64480285D01*
X148308523Y-64504095D01*
X148118047Y-64504095D01*
X148618047Y-64742190D02*
X148618047Y-64242190D01*
X148784714Y-64599333D01*
X148951380Y-64242190D01*
X148951380Y-64742190D01*
X149189476Y-64551714D02*
X149570428Y-64551714D01*
X149808523Y-64742190D02*
X149808523Y-64242190D01*
X149975190Y-64599333D01*
X150141857Y-64242190D01*
X150141857Y-64742190D01*
X151046619Y-64742190D02*
X150879952Y-64504095D01*
X150760904Y-64742190D02*
X150760904Y-64242190D01*
X150951380Y-64242190D01*
X150999000Y-64266000D01*
X151022809Y-64289809D01*
X151046619Y-64337428D01*
X151046619Y-64408857D01*
X151022809Y-64456476D01*
X150999000Y-64480285D01*
X150951380Y-64504095D01*
X150760904Y-64504095D01*
X151237095Y-64289809D02*
X151260904Y-64266000D01*
X151308523Y-64242190D01*
X151427571Y-64242190D01*
X151475190Y-64266000D01*
X151499000Y-64289809D01*
X151522809Y-64337428D01*
X151522809Y-64385047D01*
X151499000Y-64456476D01*
X151213285Y-64742190D01*
X151522809Y-64742190D01*
X151737095Y-64694571D02*
X151760904Y-64718380D01*
X151737095Y-64742190D01*
X151713285Y-64718380D01*
X151737095Y-64694571D01*
X151737095Y-64742190D01*
X152070428Y-64242190D02*
X152118047Y-64242190D01*
X152165666Y-64266000D01*
X152189476Y-64289809D01*
X152213285Y-64337428D01*
X152237095Y-64432666D01*
X152237095Y-64551714D01*
X152213285Y-64646952D01*
X152189476Y-64694571D01*
X152165666Y-64718380D01*
X152118047Y-64742190D01*
X152070428Y-64742190D01*
X152022809Y-64718380D01*
X151999000Y-64694571D01*
X151975190Y-64646952D01*
X151951380Y-64551714D01*
X151951380Y-64432666D01*
X151975190Y-64337428D01*
X151999000Y-64289809D01*
X152022809Y-64266000D01*
X152070428Y-64242190D01*
X152832333Y-64742190D02*
X152832333Y-64242190D01*
X152951380Y-64242190D01*
X153022809Y-64266000D01*
X153070428Y-64313619D01*
X153094238Y-64361238D01*
X153118047Y-64456476D01*
X153118047Y-64527904D01*
X153094238Y-64623142D01*
X153070428Y-64670761D01*
X153022809Y-64718380D01*
X152951380Y-64742190D01*
X152832333Y-64742190D01*
X153332333Y-64742190D02*
X153332333Y-64242190D01*
X153665666Y-64504095D02*
X153665666Y-64742190D01*
X153499000Y-64242190D02*
X153665666Y-64504095D01*
X153832333Y-64242190D01*
X147951380Y-65092190D02*
X147951380Y-65449333D01*
X147927571Y-65520761D01*
X147879952Y-65568380D01*
X147808523Y-65592190D01*
X147760904Y-65592190D01*
X148379952Y-65568380D02*
X148332333Y-65592190D01*
X148237095Y-65592190D01*
X148189476Y-65568380D01*
X148165666Y-65520761D01*
X148165666Y-65330285D01*
X148189476Y-65282666D01*
X148237095Y-65258857D01*
X148332333Y-65258857D01*
X148379952Y-65282666D01*
X148403761Y-65330285D01*
X148403761Y-65377904D01*
X148165666Y-65425523D01*
X148546619Y-65258857D02*
X148737095Y-65258857D01*
X148618047Y-65592190D02*
X148618047Y-65163619D01*
X148641857Y-65116000D01*
X148689476Y-65092190D01*
X148737095Y-65092190D01*
X148832333Y-65258857D02*
X149022809Y-65258857D01*
X148903761Y-65592190D02*
X148903761Y-65163619D01*
X148927571Y-65116000D01*
X148975190Y-65092190D01*
X149022809Y-65092190D01*
X149856142Y-65544571D02*
X149832333Y-65568380D01*
X149760904Y-65592190D01*
X149713285Y-65592190D01*
X149641857Y-65568380D01*
X149594238Y-65520761D01*
X149570428Y-65473142D01*
X149546619Y-65377904D01*
X149546619Y-65306476D01*
X149570428Y-65211238D01*
X149594238Y-65163619D01*
X149641857Y-65116000D01*
X149713285Y-65092190D01*
X149760904Y-65092190D01*
X149832333Y-65116000D01*
X149856142Y-65139809D01*
X150070428Y-65592190D02*
X150070428Y-65092190D01*
X150284714Y-65592190D02*
X150284714Y-65330285D01*
X150260904Y-65282666D01*
X150213285Y-65258857D01*
X150141857Y-65258857D01*
X150094238Y-65282666D01*
X150070428Y-65306476D01*
X150713285Y-65568380D02*
X150665666Y-65592190D01*
X150570428Y-65592190D01*
X150522809Y-65568380D01*
X150499000Y-65520761D01*
X150499000Y-65330285D01*
X150522809Y-65282666D01*
X150570428Y-65258857D01*
X150665666Y-65258857D01*
X150713285Y-65282666D01*
X150737095Y-65330285D01*
X150737095Y-65377904D01*
X150499000Y-65425523D01*
X150951380Y-65258857D02*
X150951380Y-65592190D01*
X150951380Y-65306476D02*
X150975190Y-65282666D01*
X151022809Y-65258857D01*
X151094238Y-65258857D01*
X151141857Y-65282666D01*
X151165666Y-65330285D01*
X151165666Y-65592190D01*
X151427571Y-65568380D02*
X151427571Y-65592190D01*
X151403761Y-65639809D01*
X151379952Y-65663619D01*
X151999000Y-65139809D02*
X152022809Y-65116000D01*
X152070428Y-65092190D01*
X152189476Y-65092190D01*
X152237095Y-65116000D01*
X152260904Y-65139809D01*
X152284714Y-65187428D01*
X152284714Y-65235047D01*
X152260904Y-65306476D01*
X151975190Y-65592190D01*
X152284714Y-65592190D01*
X152594238Y-65092190D02*
X152641857Y-65092190D01*
X152689476Y-65116000D01*
X152713285Y-65139809D01*
X152737095Y-65187428D01*
X152760904Y-65282666D01*
X152760904Y-65401714D01*
X152737095Y-65496952D01*
X152713285Y-65544571D01*
X152689476Y-65568380D01*
X152641857Y-65592190D01*
X152594238Y-65592190D01*
X152546619Y-65568380D01*
X152522809Y-65544571D01*
X152499000Y-65496952D01*
X152475190Y-65401714D01*
X152475190Y-65282666D01*
X152499000Y-65187428D01*
X152522809Y-65139809D01*
X152546619Y-65116000D01*
X152594238Y-65092190D01*
X152951380Y-65139809D02*
X152975190Y-65116000D01*
X153022809Y-65092190D01*
X153141857Y-65092190D01*
X153189476Y-65116000D01*
X153213285Y-65139809D01*
X153237095Y-65187428D01*
X153237095Y-65235047D01*
X153213285Y-65306476D01*
X152927571Y-65592190D01*
X153237095Y-65592190D01*
X153713285Y-65592190D02*
X153427571Y-65592190D01*
X153570428Y-65592190D02*
X153570428Y-65092190D01*
X153522809Y-65163619D01*
X153475190Y-65211238D01*
X153427571Y-65235047D01*
D11*
%TO.C,REF\u002A\u002A*%
X155933140Y-84206080D03*
%TD*%
%TO.C,REF\u002A\u002A*%
X145557240Y-72217280D03*
%TD*%
%TO.C,C4*%
G36*
G01*
X146151460Y-76370740D02*
X145181460Y-76370740D01*
G75*
G02*
X145130660Y-76319940I0J50800D01*
G01*
X145130660Y-75399940D01*
G75*
G02*
X145181460Y-75349140I50800J0D01*
G01*
X146151460Y-75349140D01*
G75*
G02*
X146202260Y-75399940I0J-50800D01*
G01*
X146202260Y-76319940D01*
G75*
G02*
X146151460Y-76370740I-50800J0D01*
G01*
G37*
G36*
G01*
X146151460Y-74820740D02*
X145181460Y-74820740D01*
G75*
G02*
X145130660Y-74769940I0J50800D01*
G01*
X145130660Y-73849940D01*
G75*
G02*
X145181460Y-73799140I50800J0D01*
G01*
X146151460Y-73799140D01*
G75*
G02*
X146202260Y-73849940I0J-50800D01*
G01*
X146202260Y-74769940D01*
G75*
G02*
X146151460Y-74820740I-50800J0D01*
G01*
G37*
%TD*%
D12*
%TO.C,P1*%
X144705300Y-67486780D03*
X146705300Y-67486780D03*
D13*
X148705300Y-67486780D03*
D12*
X150705300Y-67486780D03*
X152705300Y-67486780D03*
X154705300Y-67486780D03*
X156705300Y-67486780D03*
X144705300Y-69486780D03*
X146705300Y-69486780D03*
X148705300Y-69486780D03*
X150705300Y-69486780D03*
X152705300Y-69486780D03*
X154705300Y-69486780D03*
X156705300Y-69486780D03*
%TD*%
%TO.C,U1*%
G36*
G01*
X154341380Y-81579760D02*
X154341380Y-81830560D01*
G75*
G02*
X154215980Y-81955960I-125400J0D01*
G01*
X152890180Y-81955960D01*
G75*
G02*
X152764780Y-81830560I0J125400D01*
G01*
X152764780Y-81579760D01*
G75*
G02*
X152890180Y-81454360I125400J0D01*
G01*
X154215980Y-81454360D01*
G75*
G02*
X154341380Y-81579760I0J-125400D01*
G01*
G37*
G36*
G01*
X154341380Y-80929760D02*
X154341380Y-81180560D01*
G75*
G02*
X154215980Y-81305960I-125400J0D01*
G01*
X152890180Y-81305960D01*
G75*
G02*
X152764780Y-81180560I0J125400D01*
G01*
X152764780Y-80929760D01*
G75*
G02*
X152890180Y-80804360I125400J0D01*
G01*
X154215980Y-80804360D01*
G75*
G02*
X154341380Y-80929760I0J-125400D01*
G01*
G37*
G36*
G01*
X154341380Y-80279760D02*
X154341380Y-80530560D01*
G75*
G02*
X154215980Y-80655960I-125400J0D01*
G01*
X152890180Y-80655960D01*
G75*
G02*
X152764780Y-80530560I0J125400D01*
G01*
X152764780Y-80279760D01*
G75*
G02*
X152890180Y-80154360I125400J0D01*
G01*
X154215980Y-80154360D01*
G75*
G02*
X154341380Y-80279760I0J-125400D01*
G01*
G37*
G36*
G01*
X154341380Y-79629760D02*
X154341380Y-79880560D01*
G75*
G02*
X154215980Y-80005960I-125400J0D01*
G01*
X152890180Y-80005960D01*
G75*
G02*
X152764780Y-79880560I0J125400D01*
G01*
X152764780Y-79629760D01*
G75*
G02*
X152890180Y-79504360I125400J0D01*
G01*
X154215980Y-79504360D01*
G75*
G02*
X154341380Y-79629760I0J-125400D01*
G01*
G37*
G36*
G01*
X154341380Y-78979760D02*
X154341380Y-79230560D01*
G75*
G02*
X154215980Y-79355960I-125400J0D01*
G01*
X152890180Y-79355960D01*
G75*
G02*
X152764780Y-79230560I0J125400D01*
G01*
X152764780Y-78979760D01*
G75*
G02*
X152890180Y-78854360I125400J0D01*
G01*
X154215980Y-78854360D01*
G75*
G02*
X154341380Y-78979760I0J-125400D01*
G01*
G37*
G36*
G01*
X154341380Y-78329760D02*
X154341380Y-78580560D01*
G75*
G02*
X154215980Y-78705960I-125400J0D01*
G01*
X152890180Y-78705960D01*
G75*
G02*
X152764780Y-78580560I0J125400D01*
G01*
X152764780Y-78329760D01*
G75*
G02*
X152890180Y-78204360I125400J0D01*
G01*
X154215980Y-78204360D01*
G75*
G02*
X154341380Y-78329760I0J-125400D01*
G01*
G37*
G36*
G01*
X154341380Y-77679760D02*
X154341380Y-77930560D01*
G75*
G02*
X154215980Y-78055960I-125400J0D01*
G01*
X152890180Y-78055960D01*
G75*
G02*
X152764780Y-77930560I0J125400D01*
G01*
X152764780Y-77679760D01*
G75*
G02*
X152890180Y-77554360I125400J0D01*
G01*
X154215980Y-77554360D01*
G75*
G02*
X154341380Y-77679760I0J-125400D01*
G01*
G37*
G36*
G01*
X154341380Y-77029760D02*
X154341380Y-77280560D01*
G75*
G02*
X154215980Y-77405960I-125400J0D01*
G01*
X152890180Y-77405960D01*
G75*
G02*
X152764780Y-77280560I0J125400D01*
G01*
X152764780Y-77029760D01*
G75*
G02*
X152890180Y-76904360I125400J0D01*
G01*
X154215980Y-76904360D01*
G75*
G02*
X154341380Y-77029760I0J-125400D01*
G01*
G37*
G36*
G01*
X154341380Y-76379760D02*
X154341380Y-76630560D01*
G75*
G02*
X154215980Y-76755960I-125400J0D01*
G01*
X152890180Y-76755960D01*
G75*
G02*
X152764780Y-76630560I0J125400D01*
G01*
X152764780Y-76379760D01*
G75*
G02*
X152890180Y-76254360I125400J0D01*
G01*
X154215980Y-76254360D01*
G75*
G02*
X154341380Y-76379760I0J-125400D01*
G01*
G37*
G36*
G01*
X154341380Y-75729760D02*
X154341380Y-75980560D01*
G75*
G02*
X154215980Y-76105960I-125400J0D01*
G01*
X152890180Y-76105960D01*
G75*
G02*
X152764780Y-75980560I0J125400D01*
G01*
X152764780Y-75729760D01*
G75*
G02*
X152890180Y-75604360I125400J0D01*
G01*
X154215980Y-75604360D01*
G75*
G02*
X154341380Y-75729760I0J-125400D01*
G01*
G37*
G36*
G01*
X154341380Y-75079760D02*
X154341380Y-75330560D01*
G75*
G02*
X154215980Y-75455960I-125400J0D01*
G01*
X152890180Y-75455960D01*
G75*
G02*
X152764780Y-75330560I0J125400D01*
G01*
X152764780Y-75079760D01*
G75*
G02*
X152890180Y-74954360I125400J0D01*
G01*
X154215980Y-74954360D01*
G75*
G02*
X154341380Y-75079760I0J-125400D01*
G01*
G37*
G36*
G01*
X154341380Y-74429760D02*
X154341380Y-74680560D01*
G75*
G02*
X154215980Y-74805960I-125400J0D01*
G01*
X152890180Y-74805960D01*
G75*
G02*
X152764780Y-74680560I0J125400D01*
G01*
X152764780Y-74429760D01*
G75*
G02*
X152890180Y-74304360I125400J0D01*
G01*
X154215980Y-74304360D01*
G75*
G02*
X154341380Y-74429760I0J-125400D01*
G01*
G37*
G36*
G01*
X154341380Y-73779760D02*
X154341380Y-74030560D01*
G75*
G02*
X154215980Y-74155960I-125400J0D01*
G01*
X152890180Y-74155960D01*
G75*
G02*
X152764780Y-74030560I0J125400D01*
G01*
X152764780Y-73779760D01*
G75*
G02*
X152890180Y-73654360I125400J0D01*
G01*
X154215980Y-73654360D01*
G75*
G02*
X154341380Y-73779760I0J-125400D01*
G01*
G37*
G36*
G01*
X154341380Y-73129760D02*
X154341380Y-73380560D01*
G75*
G02*
X154215980Y-73505960I-125400J0D01*
G01*
X152890180Y-73505960D01*
G75*
G02*
X152764780Y-73380560I0J125400D01*
G01*
X152764780Y-73129760D01*
G75*
G02*
X152890180Y-73004360I125400J0D01*
G01*
X154215980Y-73004360D01*
G75*
G02*
X154341380Y-73129760I0J-125400D01*
G01*
G37*
G36*
G01*
X148616380Y-73129760D02*
X148616380Y-73380560D01*
G75*
G02*
X148490980Y-73505960I-125400J0D01*
G01*
X147165180Y-73505960D01*
G75*
G02*
X147039780Y-73380560I0J125400D01*
G01*
X147039780Y-73129760D01*
G75*
G02*
X147165180Y-73004360I125400J0D01*
G01*
X148490980Y-73004360D01*
G75*
G02*
X148616380Y-73129760I0J-125400D01*
G01*
G37*
G36*
G01*
X148616380Y-73779760D02*
X148616380Y-74030560D01*
G75*
G02*
X148490980Y-74155960I-125400J0D01*
G01*
X147165180Y-74155960D01*
G75*
G02*
X147039780Y-74030560I0J125400D01*
G01*
X147039780Y-73779760D01*
G75*
G02*
X147165180Y-73654360I125400J0D01*
G01*
X148490980Y-73654360D01*
G75*
G02*
X148616380Y-73779760I0J-125400D01*
G01*
G37*
G36*
G01*
X148616380Y-74429760D02*
X148616380Y-74680560D01*
G75*
G02*
X148490980Y-74805960I-125400J0D01*
G01*
X147165180Y-74805960D01*
G75*
G02*
X147039780Y-74680560I0J125400D01*
G01*
X147039780Y-74429760D01*
G75*
G02*
X147165180Y-74304360I125400J0D01*
G01*
X148490980Y-74304360D01*
G75*
G02*
X148616380Y-74429760I0J-125400D01*
G01*
G37*
G36*
G01*
X148616380Y-75079760D02*
X148616380Y-75330560D01*
G75*
G02*
X148490980Y-75455960I-125400J0D01*
G01*
X147165180Y-75455960D01*
G75*
G02*
X147039780Y-75330560I0J125400D01*
G01*
X147039780Y-75079760D01*
G75*
G02*
X147165180Y-74954360I125400J0D01*
G01*
X148490980Y-74954360D01*
G75*
G02*
X148616380Y-75079760I0J-125400D01*
G01*
G37*
G36*
G01*
X148616380Y-75729760D02*
X148616380Y-75980560D01*
G75*
G02*
X148490980Y-76105960I-125400J0D01*
G01*
X147165180Y-76105960D01*
G75*
G02*
X147039780Y-75980560I0J125400D01*
G01*
X147039780Y-75729760D01*
G75*
G02*
X147165180Y-75604360I125400J0D01*
G01*
X148490980Y-75604360D01*
G75*
G02*
X148616380Y-75729760I0J-125400D01*
G01*
G37*
G36*
G01*
X148616380Y-76379760D02*
X148616380Y-76630560D01*
G75*
G02*
X148490980Y-76755960I-125400J0D01*
G01*
X147165180Y-76755960D01*
G75*
G02*
X147039780Y-76630560I0J125400D01*
G01*
X147039780Y-76379760D01*
G75*
G02*
X147165180Y-76254360I125400J0D01*
G01*
X148490980Y-76254360D01*
G75*
G02*
X148616380Y-76379760I0J-125400D01*
G01*
G37*
G36*
G01*
X148616380Y-77029760D02*
X148616380Y-77280560D01*
G75*
G02*
X148490980Y-77405960I-125400J0D01*
G01*
X147165180Y-77405960D01*
G75*
G02*
X147039780Y-77280560I0J125400D01*
G01*
X147039780Y-77029760D01*
G75*
G02*
X147165180Y-76904360I125400J0D01*
G01*
X148490980Y-76904360D01*
G75*
G02*
X148616380Y-77029760I0J-125400D01*
G01*
G37*
G36*
G01*
X148616380Y-77679760D02*
X148616380Y-77930560D01*
G75*
G02*
X148490980Y-78055960I-125400J0D01*
G01*
X147165180Y-78055960D01*
G75*
G02*
X147039780Y-77930560I0J125400D01*
G01*
X147039780Y-77679760D01*
G75*
G02*
X147165180Y-77554360I125400J0D01*
G01*
X148490980Y-77554360D01*
G75*
G02*
X148616380Y-77679760I0J-125400D01*
G01*
G37*
G36*
G01*
X148616380Y-78329760D02*
X148616380Y-78580560D01*
G75*
G02*
X148490980Y-78705960I-125400J0D01*
G01*
X147165180Y-78705960D01*
G75*
G02*
X147039780Y-78580560I0J125400D01*
G01*
X147039780Y-78329760D01*
G75*
G02*
X147165180Y-78204360I125400J0D01*
G01*
X148490980Y-78204360D01*
G75*
G02*
X148616380Y-78329760I0J-125400D01*
G01*
G37*
G36*
G01*
X148616380Y-78979760D02*
X148616380Y-79230560D01*
G75*
G02*
X148490980Y-79355960I-125400J0D01*
G01*
X147165180Y-79355960D01*
G75*
G02*
X147039780Y-79230560I0J125400D01*
G01*
X147039780Y-78979760D01*
G75*
G02*
X147165180Y-78854360I125400J0D01*
G01*
X148490980Y-78854360D01*
G75*
G02*
X148616380Y-78979760I0J-125400D01*
G01*
G37*
G36*
G01*
X148616380Y-79629760D02*
X148616380Y-79880560D01*
G75*
G02*
X148490980Y-80005960I-125400J0D01*
G01*
X147165180Y-80005960D01*
G75*
G02*
X147039780Y-79880560I0J125400D01*
G01*
X147039780Y-79629760D01*
G75*
G02*
X147165180Y-79504360I125400J0D01*
G01*
X148490980Y-79504360D01*
G75*
G02*
X148616380Y-79629760I0J-125400D01*
G01*
G37*
G36*
G01*
X148616380Y-80279760D02*
X148616380Y-80530560D01*
G75*
G02*
X148490980Y-80655960I-125400J0D01*
G01*
X147165180Y-80655960D01*
G75*
G02*
X147039780Y-80530560I0J125400D01*
G01*
X147039780Y-80279760D01*
G75*
G02*
X147165180Y-80154360I125400J0D01*
G01*
X148490980Y-80154360D01*
G75*
G02*
X148616380Y-80279760I0J-125400D01*
G01*
G37*
G36*
G01*
X148616380Y-80929760D02*
X148616380Y-81180560D01*
G75*
G02*
X148490980Y-81305960I-125400J0D01*
G01*
X147165180Y-81305960D01*
G75*
G02*
X147039780Y-81180560I0J125400D01*
G01*
X147039780Y-80929760D01*
G75*
G02*
X147165180Y-80804360I125400J0D01*
G01*
X148490980Y-80804360D01*
G75*
G02*
X148616380Y-80929760I0J-125400D01*
G01*
G37*
G36*
G01*
X148616380Y-81579760D02*
X148616380Y-81830560D01*
G75*
G02*
X148490980Y-81955960I-125400J0D01*
G01*
X147165180Y-81955960D01*
G75*
G02*
X147039780Y-81830560I0J125400D01*
G01*
X147039780Y-81579760D01*
G75*
G02*
X147165180Y-81454360I125400J0D01*
G01*
X148490980Y-81454360D01*
G75*
G02*
X148616380Y-81579760I0J-125400D01*
G01*
G37*
%TD*%
%TO.C,R2*%
G36*
G01*
X147590900Y-84511060D02*
X147590900Y-83581060D01*
G75*
G02*
X147641700Y-83530260I50800J0D01*
G01*
X148431700Y-83530260D01*
G75*
G02*
X148482500Y-83581060I0J-50800D01*
G01*
X148482500Y-84511060D01*
G75*
G02*
X148431700Y-84561860I-50800J0D01*
G01*
X147641700Y-84561860D01*
G75*
G02*
X147590900Y-84511060I0J50800D01*
G01*
G37*
G36*
G01*
X149230900Y-84511060D02*
X149230900Y-83581060D01*
G75*
G02*
X149281700Y-83530260I50800J0D01*
G01*
X150071700Y-83530260D01*
G75*
G02*
X150122500Y-83581060I0J-50800D01*
G01*
X150122500Y-84511060D01*
G75*
G02*
X150071700Y-84561860I-50800J0D01*
G01*
X149281700Y-84561860D01*
G75*
G02*
X149230900Y-84511060I0J50800D01*
G01*
G37*
%TD*%
%TO.C,R1*%
G36*
G01*
X153587060Y-83581060D02*
X153587060Y-84511060D01*
G75*
G02*
X153536260Y-84561860I-50800J0D01*
G01*
X152746260Y-84561860D01*
G75*
G02*
X152695460Y-84511060I0J50800D01*
G01*
X152695460Y-83581060D01*
G75*
G02*
X152746260Y-83530260I50800J0D01*
G01*
X153536260Y-83530260D01*
G75*
G02*
X153587060Y-83581060I0J-50800D01*
G01*
G37*
G36*
G01*
X151947060Y-83581060D02*
X151947060Y-84511060D01*
G75*
G02*
X151896260Y-84561860I-50800J0D01*
G01*
X151106260Y-84561860D01*
G75*
G02*
X151055460Y-84511060I0J50800D01*
G01*
X151055460Y-83581060D01*
G75*
G02*
X151106260Y-83530260I50800J0D01*
G01*
X151896260Y-83530260D01*
G75*
G02*
X151947060Y-83581060I0J-50800D01*
G01*
G37*
%TD*%
%TO.C,C3*%
G36*
G01*
X145181460Y-78574340D02*
X146151460Y-78574340D01*
G75*
G02*
X146202260Y-78625140I0J-50800D01*
G01*
X146202260Y-79545140D01*
G75*
G02*
X146151460Y-79595940I-50800J0D01*
G01*
X145181460Y-79595940D01*
G75*
G02*
X145130660Y-79545140I0J50800D01*
G01*
X145130660Y-78625140D01*
G75*
G02*
X145181460Y-78574340I50800J0D01*
G01*
G37*
G36*
G01*
X145181460Y-80124340D02*
X146151460Y-80124340D01*
G75*
G02*
X146202260Y-80175140I0J-50800D01*
G01*
X146202260Y-81095140D01*
G75*
G02*
X146151460Y-81145940I-50800J0D01*
G01*
X145181460Y-81145940D01*
G75*
G02*
X145130660Y-81095140I0J50800D01*
G01*
X145130660Y-80175140D01*
G75*
G02*
X145181460Y-80124340I50800J0D01*
G01*
G37*
%TD*%
%TO.C,C2*%
G36*
G01*
X156133660Y-76380900D02*
X155163660Y-76380900D01*
G75*
G02*
X155112860Y-76330100I0J50800D01*
G01*
X155112860Y-75410100D01*
G75*
G02*
X155163660Y-75359300I50800J0D01*
G01*
X156133660Y-75359300D01*
G75*
G02*
X156184460Y-75410100I0J-50800D01*
G01*
X156184460Y-76330100D01*
G75*
G02*
X156133660Y-76380900I-50800J0D01*
G01*
G37*
G36*
G01*
X156133660Y-74830900D02*
X155163660Y-74830900D01*
G75*
G02*
X155112860Y-74780100I0J50800D01*
G01*
X155112860Y-73860100D01*
G75*
G02*
X155163660Y-73809300I50800J0D01*
G01*
X156133660Y-73809300D01*
G75*
G02*
X156184460Y-73860100I0J-50800D01*
G01*
X156184460Y-74780100D01*
G75*
G02*
X156133660Y-74830900I-50800J0D01*
G01*
G37*
%TD*%
%TO.C,C1*%
G36*
G01*
X155176360Y-78602280D02*
X156146360Y-78602280D01*
G75*
G02*
X156197160Y-78653080I0J-50800D01*
G01*
X156197160Y-79573080D01*
G75*
G02*
X156146360Y-79623880I-50800J0D01*
G01*
X155176360Y-79623880D01*
G75*
G02*
X155125560Y-79573080I0J50800D01*
G01*
X155125560Y-78653080D01*
G75*
G02*
X155176360Y-78602280I50800J0D01*
G01*
G37*
G36*
G01*
X155176360Y-80152280D02*
X156146360Y-80152280D01*
G75*
G02*
X156197160Y-80203080I0J-50800D01*
G01*
X156197160Y-81123080D01*
G75*
G02*
X156146360Y-81173880I-50800J0D01*
G01*
X155176360Y-81173880D01*
G75*
G02*
X155125560Y-81123080I0J50800D01*
G01*
X155125560Y-80203080D01*
G75*
G02*
X155176360Y-80152280I50800J0D01*
G01*
G37*
%TD*%
M02*
