%TF.GenerationSoftware,KiCad,Pcbnew,(5.1.8-0-10_14)*%
%TF.CreationDate,2021-08-04T22:04:29-04:00*%
%TF.ProjectId,MyTPM,4d795450-4d2e-46b6-9963-61645f706362,rev?*%
%TF.SameCoordinates,Original*%
%TF.FileFunction,Copper,L1,Top*%
%TF.FilePolarity,Positive*%
%FSLAX46Y46*%
G04 Gerber Fmt 4.6, Leading zero omitted, Abs format (unit mm)*
G04 Created by KiCad (PCBNEW (5.1.8-0-10_14)) date 2021-08-04 22:04:29*
%MOMM*%
%LPD*%
G01*
G04 APERTURE LIST*
%TA.AperFunction,SMDPad,CuDef*%
%ADD10R,0.970000X0.920000*%
%TD*%
%TA.AperFunction,ComponentPad*%
%ADD11C,1.200000*%
%TD*%
%TA.AperFunction,SMDPad,CuDef*%
%ADD12R,0.790000X0.930000*%
%TD*%
%TA.AperFunction,ViaPad*%
%ADD13C,0.800000*%
%TD*%
%TA.AperFunction,ViaPad*%
%ADD14C,0.600000*%
%TD*%
%TA.AperFunction,Conductor*%
%ADD15C,0.250000*%
%TD*%
%TA.AperFunction,Conductor*%
%ADD16C,0.150000*%
%TD*%
%TA.AperFunction,Conductor*%
%ADD17C,0.100000*%
%TD*%
%TA.AperFunction,Conductor*%
%ADD18C,0.025400*%
%TD*%
G04 APERTURE END LIST*
D10*
%TO.P,C4,1*%
%TO.N,Net-(C1-Pad1)*%
X145666460Y-75859940D03*
%TO.P,C4,2*%
%TO.N,Net-(C1-Pad2)*%
X145666460Y-74309940D03*
%TD*%
D11*
%TO.P,P1,14*%
%TO.N,Net-(P1-Pad14)*%
X144705300Y-67486780D03*
%TO.P,P1,13*%
%TO.N,Net-(P1-Pad13)*%
X146705300Y-67486780D03*
%TO.P,P1,11*%
%TO.N,Net-(C1-Pad2)*%
X150705300Y-67486780D03*
%TO.P,P1,10*%
%TO.N,Net-(P1-Pad10)*%
X152705300Y-67486780D03*
%TO.P,P1,9*%
%TO.N,Net-(P1-Pad9)*%
X154705300Y-67486780D03*
%TO.P,P1,8*%
%TO.N,Net-(C1-Pad1)*%
X156705300Y-67486780D03*
%TO.P,P1,7*%
%TO.N,Net-(P1-Pad7)*%
X144705300Y-69486780D03*
%TO.P,P1,6*%
%TO.N,Net-(P1-Pad6)*%
X146705300Y-69486780D03*
%TO.P,P1,5*%
%TO.N,Net-(P1-Pad5)*%
X148705300Y-69486780D03*
%TO.P,P1,4*%
%TO.N,Net-(P1-Pad4)*%
X150705300Y-69486780D03*
%TO.P,P1,3*%
%TO.N,Net-(P1-Pad3)*%
X152705300Y-69486780D03*
%TO.P,P1,2*%
%TO.N,Net-(P1-Pad2)*%
X154705300Y-69486780D03*
%TO.P,P1,1*%
%TO.N,Net-(P1-Pad1)*%
X156705300Y-69486780D03*
%TD*%
%TO.P,U1,1*%
%TO.N,Net-(U1-Pad1)*%
%TA.AperFunction,SMDPad,CuDef*%
G36*
G01*
X154290580Y-81605160D02*
X154290580Y-81805160D01*
G75*
G02*
X154190580Y-81905160I-100000J0D01*
G01*
X152915580Y-81905160D01*
G75*
G02*
X152815580Y-81805160I0J100000D01*
G01*
X152815580Y-81605160D01*
G75*
G02*
X152915580Y-81505160I100000J0D01*
G01*
X154190580Y-81505160D01*
G75*
G02*
X154290580Y-81605160I0J-100000D01*
G01*
G37*
%TD.AperFunction*%
%TO.P,U1,2*%
%TO.N,Net-(U1-Pad2)*%
%TA.AperFunction,SMDPad,CuDef*%
G36*
G01*
X154290580Y-80955160D02*
X154290580Y-81155160D01*
G75*
G02*
X154190580Y-81255160I-100000J0D01*
G01*
X152915580Y-81255160D01*
G75*
G02*
X152815580Y-81155160I0J100000D01*
G01*
X152815580Y-80955160D01*
G75*
G02*
X152915580Y-80855160I100000J0D01*
G01*
X154190580Y-80855160D01*
G75*
G02*
X154290580Y-80955160I0J-100000D01*
G01*
G37*
%TD.AperFunction*%
%TO.P,U1,3*%
%TO.N,Net-(U1-Pad3)*%
%TA.AperFunction,SMDPad,CuDef*%
G36*
G01*
X154290580Y-80305160D02*
X154290580Y-80505160D01*
G75*
G02*
X154190580Y-80605160I-100000J0D01*
G01*
X152915580Y-80605160D01*
G75*
G02*
X152815580Y-80505160I0J100000D01*
G01*
X152815580Y-80305160D01*
G75*
G02*
X152915580Y-80205160I100000J0D01*
G01*
X154190580Y-80205160D01*
G75*
G02*
X154290580Y-80305160I0J-100000D01*
G01*
G37*
%TD.AperFunction*%
%TO.P,U1,4*%
%TO.N,Net-(C1-Pad2)*%
%TA.AperFunction,SMDPad,CuDef*%
G36*
G01*
X154290580Y-79655160D02*
X154290580Y-79855160D01*
G75*
G02*
X154190580Y-79955160I-100000J0D01*
G01*
X152915580Y-79955160D01*
G75*
G02*
X152815580Y-79855160I0J100000D01*
G01*
X152815580Y-79655160D01*
G75*
G02*
X152915580Y-79555160I100000J0D01*
G01*
X154190580Y-79555160D01*
G75*
G02*
X154290580Y-79655160I0J-100000D01*
G01*
G37*
%TD.AperFunction*%
%TO.P,U1,5*%
%TO.N,Net-(C1-Pad1)*%
%TA.AperFunction,SMDPad,CuDef*%
G36*
G01*
X154290580Y-79005160D02*
X154290580Y-79205160D01*
G75*
G02*
X154190580Y-79305160I-100000J0D01*
G01*
X152915580Y-79305160D01*
G75*
G02*
X152815580Y-79205160I0J100000D01*
G01*
X152815580Y-79005160D01*
G75*
G02*
X152915580Y-78905160I100000J0D01*
G01*
X154190580Y-78905160D01*
G75*
G02*
X154290580Y-79005160I0J-100000D01*
G01*
G37*
%TD.AperFunction*%
%TO.P,U1,6*%
%TO.N,Net-(R1-Pad2)*%
%TA.AperFunction,SMDPad,CuDef*%
G36*
G01*
X154290580Y-78355160D02*
X154290580Y-78555160D01*
G75*
G02*
X154190580Y-78655160I-100000J0D01*
G01*
X152915580Y-78655160D01*
G75*
G02*
X152815580Y-78555160I0J100000D01*
G01*
X152815580Y-78355160D01*
G75*
G02*
X152915580Y-78255160I100000J0D01*
G01*
X154190580Y-78255160D01*
G75*
G02*
X154290580Y-78355160I0J-100000D01*
G01*
G37*
%TD.AperFunction*%
%TO.P,U1,7*%
%TO.N,Net-(R2-Pad2)*%
%TA.AperFunction,SMDPad,CuDef*%
G36*
G01*
X154290580Y-77705160D02*
X154290580Y-77905160D01*
G75*
G02*
X154190580Y-78005160I-100000J0D01*
G01*
X152915580Y-78005160D01*
G75*
G02*
X152815580Y-77905160I0J100000D01*
G01*
X152815580Y-77705160D01*
G75*
G02*
X152915580Y-77605160I100000J0D01*
G01*
X154190580Y-77605160D01*
G75*
G02*
X154290580Y-77705160I0J-100000D01*
G01*
G37*
%TD.AperFunction*%
%TO.P,U1,8*%
%TO.N,Net-(U1-Pad8)*%
%TA.AperFunction,SMDPad,CuDef*%
G36*
G01*
X154290580Y-77055160D02*
X154290580Y-77255160D01*
G75*
G02*
X154190580Y-77355160I-100000J0D01*
G01*
X152915580Y-77355160D01*
G75*
G02*
X152815580Y-77255160I0J100000D01*
G01*
X152815580Y-77055160D01*
G75*
G02*
X152915580Y-76955160I100000J0D01*
G01*
X154190580Y-76955160D01*
G75*
G02*
X154290580Y-77055160I0J-100000D01*
G01*
G37*
%TD.AperFunction*%
%TO.P,U1,9*%
%TO.N,Net-(U1-Pad9)*%
%TA.AperFunction,SMDPad,CuDef*%
G36*
G01*
X154290580Y-76405160D02*
X154290580Y-76605160D01*
G75*
G02*
X154190580Y-76705160I-100000J0D01*
G01*
X152915580Y-76705160D01*
G75*
G02*
X152815580Y-76605160I0J100000D01*
G01*
X152815580Y-76405160D01*
G75*
G02*
X152915580Y-76305160I100000J0D01*
G01*
X154190580Y-76305160D01*
G75*
G02*
X154290580Y-76405160I0J-100000D01*
G01*
G37*
%TD.AperFunction*%
%TO.P,U1,10*%
%TO.N,Net-(C1-Pad1)*%
%TA.AperFunction,SMDPad,CuDef*%
G36*
G01*
X154290580Y-75755160D02*
X154290580Y-75955160D01*
G75*
G02*
X154190580Y-76055160I-100000J0D01*
G01*
X152915580Y-76055160D01*
G75*
G02*
X152815580Y-75955160I0J100000D01*
G01*
X152815580Y-75755160D01*
G75*
G02*
X152915580Y-75655160I100000J0D01*
G01*
X154190580Y-75655160D01*
G75*
G02*
X154290580Y-75755160I0J-100000D01*
G01*
G37*
%TD.AperFunction*%
%TO.P,U1,11*%
%TO.N,Net-(C1-Pad2)*%
%TA.AperFunction,SMDPad,CuDef*%
G36*
G01*
X154290580Y-75105160D02*
X154290580Y-75305160D01*
G75*
G02*
X154190580Y-75405160I-100000J0D01*
G01*
X152915580Y-75405160D01*
G75*
G02*
X152815580Y-75305160I0J100000D01*
G01*
X152815580Y-75105160D01*
G75*
G02*
X152915580Y-75005160I100000J0D01*
G01*
X154190580Y-75005160D01*
G75*
G02*
X154290580Y-75105160I0J-100000D01*
G01*
G37*
%TD.AperFunction*%
%TO.P,U1,12*%
%TO.N,Net-(U1-Pad12)*%
%TA.AperFunction,SMDPad,CuDef*%
G36*
G01*
X154290580Y-74455160D02*
X154290580Y-74655160D01*
G75*
G02*
X154190580Y-74755160I-100000J0D01*
G01*
X152915580Y-74755160D01*
G75*
G02*
X152815580Y-74655160I0J100000D01*
G01*
X152815580Y-74455160D01*
G75*
G02*
X152915580Y-74355160I100000J0D01*
G01*
X154190580Y-74355160D01*
G75*
G02*
X154290580Y-74455160I0J-100000D01*
G01*
G37*
%TD.AperFunction*%
%TO.P,U1,13*%
%TO.N,Net-(U1-Pad13)*%
%TA.AperFunction,SMDPad,CuDef*%
G36*
G01*
X154290580Y-73805160D02*
X154290580Y-74005160D01*
G75*
G02*
X154190580Y-74105160I-100000J0D01*
G01*
X152915580Y-74105160D01*
G75*
G02*
X152815580Y-74005160I0J100000D01*
G01*
X152815580Y-73805160D01*
G75*
G02*
X152915580Y-73705160I100000J0D01*
G01*
X154190580Y-73705160D01*
G75*
G02*
X154290580Y-73805160I0J-100000D01*
G01*
G37*
%TD.AperFunction*%
%TO.P,U1,14*%
%TO.N,Net-(U1-Pad14)*%
%TA.AperFunction,SMDPad,CuDef*%
G36*
G01*
X154290580Y-73155160D02*
X154290580Y-73355160D01*
G75*
G02*
X154190580Y-73455160I-100000J0D01*
G01*
X152915580Y-73455160D01*
G75*
G02*
X152815580Y-73355160I0J100000D01*
G01*
X152815580Y-73155160D01*
G75*
G02*
X152915580Y-73055160I100000J0D01*
G01*
X154190580Y-73055160D01*
G75*
G02*
X154290580Y-73155160I0J-100000D01*
G01*
G37*
%TD.AperFunction*%
%TO.P,U1,15*%
%TO.N,Net-(U1-Pad15)*%
%TA.AperFunction,SMDPad,CuDef*%
G36*
G01*
X148565580Y-73155160D02*
X148565580Y-73355160D01*
G75*
G02*
X148465580Y-73455160I-100000J0D01*
G01*
X147190580Y-73455160D01*
G75*
G02*
X147090580Y-73355160I0J100000D01*
G01*
X147090580Y-73155160D01*
G75*
G02*
X147190580Y-73055160I100000J0D01*
G01*
X148465580Y-73055160D01*
G75*
G02*
X148565580Y-73155160I0J-100000D01*
G01*
G37*
%TD.AperFunction*%
%TO.P,U1,16*%
%TO.N,Net-(P1-Pad13)*%
%TA.AperFunction,SMDPad,CuDef*%
G36*
G01*
X148565580Y-73805160D02*
X148565580Y-74005160D01*
G75*
G02*
X148465580Y-74105160I-100000J0D01*
G01*
X147190580Y-74105160D01*
G75*
G02*
X147090580Y-74005160I0J100000D01*
G01*
X147090580Y-73805160D01*
G75*
G02*
X147190580Y-73705160I100000J0D01*
G01*
X148465580Y-73705160D01*
G75*
G02*
X148565580Y-73805160I0J-100000D01*
G01*
G37*
%TD.AperFunction*%
%TO.P,U1,17*%
%TO.N,Net-(P1-Pad4)*%
%TA.AperFunction,SMDPad,CuDef*%
G36*
G01*
X148565580Y-74455160D02*
X148565580Y-74655160D01*
G75*
G02*
X148465580Y-74755160I-100000J0D01*
G01*
X147190580Y-74755160D01*
G75*
G02*
X147090580Y-74655160I0J100000D01*
G01*
X147090580Y-74455160D01*
G75*
G02*
X147190580Y-74355160I100000J0D01*
G01*
X148465580Y-74355160D01*
G75*
G02*
X148565580Y-74455160I0J-100000D01*
G01*
G37*
%TD.AperFunction*%
%TO.P,U1,18*%
%TO.N,Net-(C1-Pad2)*%
%TA.AperFunction,SMDPad,CuDef*%
G36*
G01*
X148565580Y-75105160D02*
X148565580Y-75305160D01*
G75*
G02*
X148465580Y-75405160I-100000J0D01*
G01*
X147190580Y-75405160D01*
G75*
G02*
X147090580Y-75305160I0J100000D01*
G01*
X147090580Y-75105160D01*
G75*
G02*
X147190580Y-75005160I100000J0D01*
G01*
X148465580Y-75005160D01*
G75*
G02*
X148565580Y-75105160I0J-100000D01*
G01*
G37*
%TD.AperFunction*%
%TO.P,U1,19*%
%TO.N,Net-(C1-Pad1)*%
%TA.AperFunction,SMDPad,CuDef*%
G36*
G01*
X148565580Y-75755160D02*
X148565580Y-75955160D01*
G75*
G02*
X148465580Y-76055160I-100000J0D01*
G01*
X147190580Y-76055160D01*
G75*
G02*
X147090580Y-75955160I0J100000D01*
G01*
X147090580Y-75755160D01*
G75*
G02*
X147190580Y-75655160I100000J0D01*
G01*
X148465580Y-75655160D01*
G75*
G02*
X148565580Y-75755160I0J-100000D01*
G01*
G37*
%TD.AperFunction*%
%TO.P,U1,20*%
%TO.N,Net-(P1-Pad3)*%
%TA.AperFunction,SMDPad,CuDef*%
G36*
G01*
X148565580Y-76405160D02*
X148565580Y-76605160D01*
G75*
G02*
X148465580Y-76705160I-100000J0D01*
G01*
X147190580Y-76705160D01*
G75*
G02*
X147090580Y-76605160I0J100000D01*
G01*
X147090580Y-76405160D01*
G75*
G02*
X147190580Y-76305160I100000J0D01*
G01*
X148465580Y-76305160D01*
G75*
G02*
X148565580Y-76405160I0J-100000D01*
G01*
G37*
%TD.AperFunction*%
%TO.P,U1,21*%
%TO.N,Net-(P1-Pad10)*%
%TA.AperFunction,SMDPad,CuDef*%
G36*
G01*
X148565580Y-77055160D02*
X148565580Y-77255160D01*
G75*
G02*
X148465580Y-77355160I-100000J0D01*
G01*
X147190580Y-77355160D01*
G75*
G02*
X147090580Y-77255160I0J100000D01*
G01*
X147090580Y-77055160D01*
G75*
G02*
X147190580Y-76955160I100000J0D01*
G01*
X148465580Y-76955160D01*
G75*
G02*
X148565580Y-77055160I0J-100000D01*
G01*
G37*
%TD.AperFunction*%
%TO.P,U1,22*%
%TO.N,Net-(P1-Pad5)*%
%TA.AperFunction,SMDPad,CuDef*%
G36*
G01*
X148565580Y-77705160D02*
X148565580Y-77905160D01*
G75*
G02*
X148465580Y-78005160I-100000J0D01*
G01*
X147190580Y-78005160D01*
G75*
G02*
X147090580Y-77905160I0J100000D01*
G01*
X147090580Y-77705160D01*
G75*
G02*
X147190580Y-77605160I100000J0D01*
G01*
X148465580Y-77605160D01*
G75*
G02*
X148565580Y-77705160I0J-100000D01*
G01*
G37*
%TD.AperFunction*%
%TO.P,U1,23*%
%TO.N,Net-(P1-Pad2)*%
%TA.AperFunction,SMDPad,CuDef*%
G36*
G01*
X148565580Y-78355160D02*
X148565580Y-78555160D01*
G75*
G02*
X148465580Y-78655160I-100000J0D01*
G01*
X147190580Y-78655160D01*
G75*
G02*
X147090580Y-78555160I0J100000D01*
G01*
X147090580Y-78355160D01*
G75*
G02*
X147190580Y-78255160I100000J0D01*
G01*
X148465580Y-78255160D01*
G75*
G02*
X148565580Y-78355160I0J-100000D01*
G01*
G37*
%TD.AperFunction*%
%TO.P,U1,24*%
%TO.N,Net-(C1-Pad1)*%
%TA.AperFunction,SMDPad,CuDef*%
G36*
G01*
X148565580Y-79005160D02*
X148565580Y-79205160D01*
G75*
G02*
X148465580Y-79305160I-100000J0D01*
G01*
X147190580Y-79305160D01*
G75*
G02*
X147090580Y-79205160I0J100000D01*
G01*
X147090580Y-79005160D01*
G75*
G02*
X147190580Y-78905160I100000J0D01*
G01*
X148465580Y-78905160D01*
G75*
G02*
X148565580Y-79005160I0J-100000D01*
G01*
G37*
%TD.AperFunction*%
%TO.P,U1,25*%
%TO.N,Net-(C1-Pad2)*%
%TA.AperFunction,SMDPad,CuDef*%
G36*
G01*
X148565580Y-79655160D02*
X148565580Y-79855160D01*
G75*
G02*
X148465580Y-79955160I-100000J0D01*
G01*
X147190580Y-79955160D01*
G75*
G02*
X147090580Y-79855160I0J100000D01*
G01*
X147090580Y-79655160D01*
G75*
G02*
X147190580Y-79555160I100000J0D01*
G01*
X148465580Y-79555160D01*
G75*
G02*
X148565580Y-79655160I0J-100000D01*
G01*
G37*
%TD.AperFunction*%
%TO.P,U1,26*%
%TO.N,Net-(P1-Pad1)*%
%TA.AperFunction,SMDPad,CuDef*%
G36*
G01*
X148565580Y-80305160D02*
X148565580Y-80505160D01*
G75*
G02*
X148465580Y-80605160I-100000J0D01*
G01*
X147190580Y-80605160D01*
G75*
G02*
X147090580Y-80505160I0J100000D01*
G01*
X147090580Y-80305160D01*
G75*
G02*
X147190580Y-80205160I100000J0D01*
G01*
X148465580Y-80205160D01*
G75*
G02*
X148565580Y-80305160I0J-100000D01*
G01*
G37*
%TD.AperFunction*%
%TO.P,U1,27*%
%TO.N,Net-(P1-Pad6)*%
%TA.AperFunction,SMDPad,CuDef*%
G36*
G01*
X148565580Y-80955160D02*
X148565580Y-81155160D01*
G75*
G02*
X148465580Y-81255160I-100000J0D01*
G01*
X147190580Y-81255160D01*
G75*
G02*
X147090580Y-81155160I0J100000D01*
G01*
X147090580Y-80955160D01*
G75*
G02*
X147190580Y-80855160I100000J0D01*
G01*
X148465580Y-80855160D01*
G75*
G02*
X148565580Y-80955160I0J-100000D01*
G01*
G37*
%TD.AperFunction*%
%TO.P,U1,28*%
%TO.N,Net-(U1-Pad28)*%
%TA.AperFunction,SMDPad,CuDef*%
G36*
G01*
X148565580Y-81605160D02*
X148565580Y-81805160D01*
G75*
G02*
X148465580Y-81905160I-100000J0D01*
G01*
X147190580Y-81905160D01*
G75*
G02*
X147090580Y-81805160I0J100000D01*
G01*
X147090580Y-81605160D01*
G75*
G02*
X147190580Y-81505160I100000J0D01*
G01*
X148465580Y-81505160D01*
G75*
G02*
X148565580Y-81605160I0J-100000D01*
G01*
G37*
%TD.AperFunction*%
%TD*%
D12*
%TO.P,R2,1*%
%TO.N,Net-(C1-Pad2)*%
X148036700Y-84046060D03*
%TO.P,R2,2*%
%TO.N,Net-(R2-Pad2)*%
X149676700Y-84046060D03*
%TD*%
%TO.P,R1,1*%
%TO.N,Net-(C1-Pad2)*%
X153141260Y-84046060D03*
%TO.P,R1,2*%
%TO.N,Net-(R1-Pad2)*%
X151501260Y-84046060D03*
%TD*%
D10*
%TO.P,C3,1*%
%TO.N,Net-(C1-Pad1)*%
X145666460Y-79085140D03*
%TO.P,C3,2*%
%TO.N,Net-(C1-Pad2)*%
X145666460Y-80635140D03*
%TD*%
%TO.P,C2,1*%
%TO.N,Net-(C1-Pad1)*%
X155648660Y-75870100D03*
%TO.P,C2,2*%
%TO.N,Net-(C1-Pad2)*%
X155648660Y-74320100D03*
%TD*%
%TO.P,C1,1*%
%TO.N,Net-(C1-Pad1)*%
X155661360Y-79113080D03*
%TO.P,C1,2*%
%TO.N,Net-(C1-Pad2)*%
X155661360Y-80663080D03*
%TD*%
D13*
%TO.N,Net-(C1-Pad2)*%
X156799280Y-63466980D03*
X144734280Y-63466980D03*
X145140680Y-84421980D03*
X157114240Y-74320400D03*
X157114240Y-80662780D03*
X144226280Y-74312780D03*
X144226280Y-80634840D03*
%TO.N,Net-(C1-Pad1)*%
X145676620Y-77487780D03*
X155656280Y-77480162D03*
D14*
%TO.N,Net-(P1-Pad6)*%
X150205440Y-80421480D03*
%TO.N,Net-(P1-Pad5)*%
X150987758Y-76685140D03*
%TD*%
D15*
%TO.N,Net-(C1-Pad1)*%
X155862020Y-79102920D02*
X153522380Y-79102920D01*
X155862020Y-75854860D02*
X153484280Y-75854860D01*
X147828080Y-79105160D02*
X145512120Y-79105160D01*
X147828080Y-75855160D02*
X145522280Y-75855160D01*
X155656280Y-76078080D02*
X155656280Y-77480162D01*
X155859480Y-75874880D02*
X155656280Y-76078080D01*
X155859480Y-79080360D02*
X155656280Y-78877160D01*
X155656280Y-78877160D02*
X155656280Y-77480162D01*
X145666460Y-77472540D02*
X145669000Y-77470000D01*
X145666460Y-78704440D02*
X145666460Y-77472540D01*
X145666460Y-77467460D02*
X145669000Y-77470000D01*
X145666460Y-76266040D02*
X145666460Y-77467460D01*
D16*
%TO.N,Net-(R1-Pad2)*%
X152849580Y-78483460D02*
X153548080Y-78483460D01*
X151501260Y-79831780D02*
X152849580Y-78483460D01*
X151501260Y-84046060D02*
X151501260Y-79831780D01*
%TO.N,Net-(R2-Pad2)*%
X153291540Y-77825600D02*
X153548080Y-77825600D01*
X153289000Y-77828140D02*
X153291540Y-77825600D01*
X150906480Y-79542640D02*
X152620980Y-77828140D01*
X150906480Y-80685640D02*
X150906480Y-79542640D01*
X149676700Y-81915420D02*
X150906480Y-80685640D01*
X152620980Y-77828140D02*
X153289000Y-77828140D01*
X149676700Y-84046060D02*
X149676700Y-81915420D01*
%TO.N,Net-(P1-Pad6)*%
X149560280Y-81066640D02*
X150205440Y-80421480D01*
X147794980Y-81066640D02*
X149560280Y-81066640D01*
%TO.N,Net-(P1-Pad1)*%
X149143720Y-80424020D02*
X147855940Y-80424020D01*
X152194260Y-77373480D02*
X149143720Y-80424020D01*
X152194260Y-72854820D02*
X152194260Y-77373480D01*
X153177240Y-71871840D02*
X152194260Y-72854820D01*
X154320240Y-71871840D02*
X153177240Y-71871840D01*
X156705300Y-69486780D02*
X154320240Y-71871840D01*
%TO.N,Net-(P1-Pad2)*%
X154705300Y-69486780D02*
X154705300Y-69492880D01*
X153629360Y-71297800D02*
X154706320Y-70220840D01*
X154706320Y-70220840D02*
X154706320Y-69489320D01*
X152892760Y-71297800D02*
X153629360Y-71297800D01*
X151599900Y-72590660D02*
X152892760Y-71297800D01*
X151599900Y-77045820D02*
X151599900Y-72590660D01*
X150190200Y-78455520D02*
X151599900Y-77045820D01*
X147802600Y-78455520D02*
X150190200Y-78455520D01*
%TO.N,Net-(P1-Pad5)*%
X149847298Y-77825600D02*
X150987758Y-76685140D01*
X147802600Y-77825600D02*
X149847298Y-77825600D01*
%TO.N,Net-(P1-Pad3)*%
X149080220Y-76489560D02*
X147830540Y-76489560D01*
X150378160Y-75191620D02*
X149080220Y-76489560D01*
X150378160Y-72075040D02*
X150378160Y-75191620D01*
X152705300Y-69747900D02*
X150378160Y-72075040D01*
X152705300Y-69486780D02*
X152705300Y-69747900D01*
%TO.N,Net-(P1-Pad4)*%
X149352000Y-74574400D02*
X147855940Y-74574400D01*
X149796500Y-74129900D02*
X149352000Y-74574400D01*
X149796500Y-71483220D02*
X149796500Y-74129900D01*
X150705300Y-70574420D02*
X149796500Y-71483220D01*
X150705300Y-69486780D02*
X150705300Y-70574420D01*
%TO.N,Net-(P1-Pad13)*%
X147698460Y-68479940D02*
X147698460Y-70246240D01*
X149219920Y-71767700D02*
X149219920Y-73599040D01*
X149219920Y-73599040D02*
X148899880Y-73919080D01*
X148899880Y-73919080D02*
X147802600Y-73919080D01*
X147698460Y-70246240D02*
X149219920Y-71767700D01*
X146705300Y-67486780D02*
X147698460Y-68479940D01*
%TO.N,Net-(P1-Pad10)*%
X150987760Y-72317964D02*
X150987760Y-75628500D01*
X149448520Y-77167740D02*
X147855940Y-77167740D01*
X150987760Y-75628500D02*
X149448520Y-77167740D01*
X153235660Y-70639940D02*
X152665784Y-70639940D01*
X153718260Y-70157340D02*
X153235660Y-70639940D01*
X153718260Y-68564760D02*
X153718260Y-70157340D01*
X152705300Y-67551800D02*
X153718260Y-68564760D01*
X152665784Y-70639940D02*
X150987760Y-72317964D01*
X152705300Y-67486780D02*
X152705300Y-67551800D01*
%TD*%
D15*
%TO.N,Net-(C1-Pad2)*%
X157788736Y-84150823D02*
X157757477Y-84535736D01*
X157658701Y-84883809D01*
X157494201Y-85206064D01*
X157270238Y-85490231D01*
X156995347Y-85725486D01*
X156679998Y-85902867D01*
X156336201Y-86015616D01*
X155958817Y-86061666D01*
X155930738Y-86061999D01*
X145544106Y-86056612D01*
X145159004Y-86025337D01*
X144810931Y-85926561D01*
X144488676Y-85762061D01*
X144204509Y-85538098D01*
X143969254Y-85263207D01*
X143791873Y-84947858D01*
X143679124Y-84604061D01*
X143633074Y-84226677D01*
X143632739Y-84198448D01*
X143631403Y-72076930D01*
X144132240Y-72076930D01*
X144132240Y-72357630D01*
X144187002Y-72632937D01*
X144294421Y-72892271D01*
X144450370Y-73125665D01*
X144648855Y-73324150D01*
X144882249Y-73480099D01*
X145141583Y-73587518D01*
X145416890Y-73642280D01*
X145697590Y-73642280D01*
X145972897Y-73587518D01*
X146232231Y-73480099D01*
X146465625Y-73324150D01*
X146664110Y-73125665D01*
X146736539Y-73017267D01*
X146722928Y-73062138D01*
X146713766Y-73155160D01*
X146713766Y-73355160D01*
X146722928Y-73448182D01*
X146750061Y-73537629D01*
X146772795Y-73580160D01*
X146750061Y-73622691D01*
X146722928Y-73712138D01*
X146713766Y-73805160D01*
X146713766Y-74005160D01*
X146722928Y-74098182D01*
X146750061Y-74187629D01*
X146772795Y-74230160D01*
X146750061Y-74272691D01*
X146722928Y-74362138D01*
X146713766Y-74455160D01*
X146713766Y-74655160D01*
X146722928Y-74748182D01*
X146731294Y-74775761D01*
X146696032Y-74841733D01*
X146671730Y-74921846D01*
X146663524Y-75005160D01*
X146665580Y-75073910D01*
X146771830Y-75180160D01*
X147803080Y-75180160D01*
X147803080Y-75160160D01*
X147853080Y-75160160D01*
X147853080Y-75180160D01*
X148884330Y-75180160D01*
X148990580Y-75073910D01*
X148992061Y-75024400D01*
X149329906Y-75024400D01*
X149352000Y-75026576D01*
X149374094Y-75024400D01*
X149374105Y-75024400D01*
X149440215Y-75017889D01*
X149525041Y-74992157D01*
X149603216Y-74950371D01*
X149671737Y-74894137D01*
X149685828Y-74876967D01*
X149928161Y-74634635D01*
X149928161Y-75005223D01*
X148938479Y-75994906D01*
X148942394Y-75955160D01*
X148942394Y-75755160D01*
X148933232Y-75662138D01*
X148924866Y-75634559D01*
X148960128Y-75568587D01*
X148984430Y-75488474D01*
X148992636Y-75405160D01*
X148990580Y-75336410D01*
X148884330Y-75230160D01*
X147853080Y-75230160D01*
X147853080Y-75250160D01*
X147803080Y-75250160D01*
X147803080Y-75230160D01*
X146771830Y-75230160D01*
X146665580Y-75336410D01*
X146665019Y-75355160D01*
X146523864Y-75355160D01*
X146521034Y-75326427D01*
X146499591Y-75255740D01*
X146464769Y-75190593D01*
X146417908Y-75133492D01*
X146360807Y-75086631D01*
X146295660Y-75051809D01*
X146224973Y-75030366D01*
X146151460Y-75023126D01*
X145181460Y-75023126D01*
X145107947Y-75030366D01*
X145037260Y-75051809D01*
X144972113Y-75086631D01*
X144915012Y-75133492D01*
X144868151Y-75190593D01*
X144833329Y-75255740D01*
X144811886Y-75326427D01*
X144804646Y-75399940D01*
X144804646Y-76319940D01*
X144811886Y-76393453D01*
X144833329Y-76464140D01*
X144868151Y-76529287D01*
X144915012Y-76586388D01*
X144972113Y-76633249D01*
X145037260Y-76668071D01*
X145107947Y-76689514D01*
X145165969Y-76695228D01*
X145164021Y-76751656D01*
X145158864Y-76795259D01*
X145152712Y-76823074D01*
X145145858Y-76843361D01*
X145135808Y-76865508D01*
X145118620Y-76896973D01*
X145092047Y-76941649D01*
X145091813Y-76942044D01*
X145059358Y-76996761D01*
X145053527Y-77006952D01*
X145019315Y-77068978D01*
X145010618Y-77085729D01*
X145003705Y-77099906D01*
X144989824Y-77120680D01*
X144931403Y-77261721D01*
X144901620Y-77411449D01*
X144901620Y-77564111D01*
X144931403Y-77713839D01*
X144989824Y-77854880D01*
X145004228Y-77876438D01*
X145009501Y-77887206D01*
X145019500Y-77906228D01*
X145053093Y-77965913D01*
X145060293Y-77978156D01*
X145092520Y-78030658D01*
X145093820Y-78032760D01*
X145120679Y-78075877D01*
X145138075Y-78105995D01*
X145147629Y-78125769D01*
X145153645Y-78142406D01*
X145159130Y-78165495D01*
X145164014Y-78203835D01*
X145165729Y-78249875D01*
X145107947Y-78255566D01*
X145037260Y-78277009D01*
X144972113Y-78311831D01*
X144915012Y-78358692D01*
X144868151Y-78415793D01*
X144833329Y-78480940D01*
X144811886Y-78551627D01*
X144804646Y-78625140D01*
X144804646Y-79545140D01*
X144811886Y-79618653D01*
X144833329Y-79689340D01*
X144868151Y-79754487D01*
X144915012Y-79811588D01*
X144972113Y-79858449D01*
X145037260Y-79893271D01*
X145107947Y-79914714D01*
X145181460Y-79921954D01*
X146151460Y-79921954D01*
X146224973Y-79914714D01*
X146295660Y-79893271D01*
X146360807Y-79858449D01*
X146417908Y-79811588D01*
X146464769Y-79754487D01*
X146499591Y-79689340D01*
X146521034Y-79618653D01*
X146522363Y-79605160D01*
X146665019Y-79605160D01*
X146665580Y-79623910D01*
X146771830Y-79730160D01*
X147803080Y-79730160D01*
X147803080Y-79710160D01*
X147853080Y-79710160D01*
X147853080Y-79730160D01*
X148884330Y-79730160D01*
X148990580Y-79623910D01*
X148992636Y-79555160D01*
X148984430Y-79471846D01*
X148960128Y-79391733D01*
X148924866Y-79325761D01*
X148933232Y-79298182D01*
X148942394Y-79205160D01*
X148942394Y-79005160D01*
X148933232Y-78912138D01*
X148931224Y-78905520D01*
X150025825Y-78905520D01*
X148992158Y-79939187D01*
X148990580Y-79886410D01*
X148884330Y-79780160D01*
X147853080Y-79780160D01*
X147853080Y-79800160D01*
X147803080Y-79800160D01*
X147803080Y-79780160D01*
X146771830Y-79780160D01*
X146665580Y-79886410D01*
X146663524Y-79955160D01*
X146671730Y-80038474D01*
X146696032Y-80118587D01*
X146731294Y-80184559D01*
X146722928Y-80212138D01*
X146713766Y-80305160D01*
X146713766Y-80505160D01*
X146722928Y-80598182D01*
X146750061Y-80687629D01*
X146772795Y-80730160D01*
X146750061Y-80772691D01*
X146722928Y-80862138D01*
X146713766Y-80955160D01*
X146713766Y-81155160D01*
X146722928Y-81248182D01*
X146750061Y-81337629D01*
X146772795Y-81380160D01*
X146750061Y-81422691D01*
X146722928Y-81512138D01*
X146713766Y-81605160D01*
X146713766Y-81805160D01*
X146722928Y-81898182D01*
X146750061Y-81987629D01*
X146794124Y-82070064D01*
X146853422Y-82142318D01*
X146925676Y-82201616D01*
X147008111Y-82245679D01*
X147097558Y-82272812D01*
X147190580Y-82281974D01*
X148465580Y-82281974D01*
X148558602Y-82272812D01*
X148648049Y-82245679D01*
X148730484Y-82201616D01*
X148802738Y-82142318D01*
X148862036Y-82070064D01*
X148906099Y-81987629D01*
X148933232Y-81898182D01*
X148942394Y-81805160D01*
X148942394Y-81605160D01*
X148933675Y-81516640D01*
X149439085Y-81516640D01*
X149374129Y-81581596D01*
X149356964Y-81595683D01*
X149342877Y-81612848D01*
X149342872Y-81612853D01*
X149300729Y-81664204D01*
X149258943Y-81742380D01*
X149233212Y-81827205D01*
X149224524Y-81915420D01*
X149226701Y-81937524D01*
X149226700Y-83209663D01*
X149208187Y-83211486D01*
X149137500Y-83232929D01*
X149072353Y-83267751D01*
X149015252Y-83314612D01*
X148968391Y-83371713D01*
X148933569Y-83436860D01*
X148912126Y-83507547D01*
X148904886Y-83581060D01*
X148904886Y-84511060D01*
X148912126Y-84584573D01*
X148933569Y-84655260D01*
X148968391Y-84720407D01*
X149015252Y-84777508D01*
X149072353Y-84824369D01*
X149137500Y-84859191D01*
X149208187Y-84880634D01*
X149281700Y-84887874D01*
X150071700Y-84887874D01*
X150145213Y-84880634D01*
X150215900Y-84859191D01*
X150281047Y-84824369D01*
X150338148Y-84777508D01*
X150385009Y-84720407D01*
X150419831Y-84655260D01*
X150441274Y-84584573D01*
X150448514Y-84511060D01*
X150448514Y-83581060D01*
X150441274Y-83507547D01*
X150419831Y-83436860D01*
X150385009Y-83371713D01*
X150338148Y-83314612D01*
X150281047Y-83267751D01*
X150215900Y-83232929D01*
X150145213Y-83211486D01*
X150126700Y-83209663D01*
X150126700Y-82101815D01*
X151051261Y-81177255D01*
X151051260Y-83209663D01*
X151032747Y-83211486D01*
X150962060Y-83232929D01*
X150896913Y-83267751D01*
X150839812Y-83314612D01*
X150792951Y-83371713D01*
X150758129Y-83436860D01*
X150736686Y-83507547D01*
X150729446Y-83581060D01*
X150729446Y-84511060D01*
X150736686Y-84584573D01*
X150758129Y-84655260D01*
X150792951Y-84720407D01*
X150839812Y-84777508D01*
X150896913Y-84824369D01*
X150962060Y-84859191D01*
X151032747Y-84880634D01*
X151106260Y-84887874D01*
X151896260Y-84887874D01*
X151969773Y-84880634D01*
X152040460Y-84859191D01*
X152105607Y-84824369D01*
X152162708Y-84777508D01*
X152209569Y-84720407D01*
X152244391Y-84655260D01*
X152265834Y-84584573D01*
X152273074Y-84511060D01*
X152273074Y-84065730D01*
X154508140Y-84065730D01*
X154508140Y-84346430D01*
X154562902Y-84621737D01*
X154670321Y-84881071D01*
X154826270Y-85114465D01*
X155024755Y-85312950D01*
X155258149Y-85468899D01*
X155517483Y-85576318D01*
X155792790Y-85631080D01*
X156073490Y-85631080D01*
X156348797Y-85576318D01*
X156608131Y-85468899D01*
X156841525Y-85312950D01*
X157040010Y-85114465D01*
X157195959Y-84881071D01*
X157303378Y-84621737D01*
X157358140Y-84346430D01*
X157358140Y-84065730D01*
X157303378Y-83790423D01*
X157195959Y-83531089D01*
X157040010Y-83297695D01*
X156841525Y-83099210D01*
X156608131Y-82943261D01*
X156348797Y-82835842D01*
X156073490Y-82781080D01*
X155792790Y-82781080D01*
X155517483Y-82835842D01*
X155258149Y-82943261D01*
X155024755Y-83099210D01*
X154826270Y-83297695D01*
X154670321Y-83531089D01*
X154562902Y-83790423D01*
X154508140Y-84065730D01*
X152273074Y-84065730D01*
X152273074Y-83581060D01*
X152265834Y-83507547D01*
X152244391Y-83436860D01*
X152209569Y-83371713D01*
X152162708Y-83314612D01*
X152105607Y-83267751D01*
X152040460Y-83232929D01*
X151969773Y-83211486D01*
X151951260Y-83209663D01*
X151951260Y-80018175D01*
X152014275Y-79955160D01*
X152388524Y-79955160D01*
X152396730Y-80038474D01*
X152421032Y-80118587D01*
X152456294Y-80184559D01*
X152447928Y-80212138D01*
X152438766Y-80305160D01*
X152438766Y-80505160D01*
X152447928Y-80598182D01*
X152475061Y-80687629D01*
X152497795Y-80730160D01*
X152475061Y-80772691D01*
X152447928Y-80862138D01*
X152438766Y-80955160D01*
X152438766Y-81155160D01*
X152447928Y-81248182D01*
X152475061Y-81337629D01*
X152497795Y-81380160D01*
X152475061Y-81422691D01*
X152447928Y-81512138D01*
X152438766Y-81605160D01*
X152438766Y-81805160D01*
X152447928Y-81898182D01*
X152475061Y-81987629D01*
X152519124Y-82070064D01*
X152578422Y-82142318D01*
X152650676Y-82201616D01*
X152733111Y-82245679D01*
X152822558Y-82272812D01*
X152915580Y-82281974D01*
X154190580Y-82281974D01*
X154283602Y-82272812D01*
X154373049Y-82245679D01*
X154455484Y-82201616D01*
X154527738Y-82142318D01*
X154587036Y-82070064D01*
X154631099Y-81987629D01*
X154658232Y-81898182D01*
X154667394Y-81805160D01*
X154667394Y-81605160D01*
X154658232Y-81512138D01*
X154631099Y-81422691D01*
X154608365Y-81380160D01*
X154631099Y-81337629D01*
X154658232Y-81248182D01*
X154667394Y-81155160D01*
X154667394Y-80955160D01*
X154658232Y-80862138D01*
X154631099Y-80772691D01*
X154608365Y-80730160D01*
X154631099Y-80687629D01*
X154658232Y-80598182D01*
X154667394Y-80505160D01*
X154667394Y-80305160D01*
X154658232Y-80212138D01*
X154649866Y-80184559D01*
X154685128Y-80118587D01*
X154709430Y-80038474D01*
X154717636Y-79955160D01*
X154715580Y-79886410D01*
X154609330Y-79780160D01*
X153578080Y-79780160D01*
X153578080Y-79800160D01*
X153528080Y-79800160D01*
X153528080Y-79780160D01*
X152496830Y-79780160D01*
X152390580Y-79886410D01*
X152388524Y-79955160D01*
X152014275Y-79955160D01*
X152389272Y-79580164D01*
X152390580Y-79623910D01*
X152496830Y-79730160D01*
X153528080Y-79730160D01*
X153528080Y-79710160D01*
X153578080Y-79710160D01*
X153578080Y-79730160D01*
X154609330Y-79730160D01*
X154715580Y-79623910D01*
X154716208Y-79602920D01*
X154802485Y-79602920D01*
X154806786Y-79646593D01*
X154828229Y-79717280D01*
X154863051Y-79782427D01*
X154909912Y-79839528D01*
X154967013Y-79886389D01*
X155032160Y-79921211D01*
X155102847Y-79942654D01*
X155176360Y-79949894D01*
X156146360Y-79949894D01*
X156219873Y-79942654D01*
X156290560Y-79921211D01*
X156355707Y-79886389D01*
X156412808Y-79839528D01*
X156459669Y-79782427D01*
X156494491Y-79717280D01*
X156515934Y-79646593D01*
X156523174Y-79573080D01*
X156523174Y-78653080D01*
X156515934Y-78579567D01*
X156494491Y-78508880D01*
X156459669Y-78443733D01*
X156412808Y-78386632D01*
X156355707Y-78339771D01*
X156290560Y-78304949D01*
X156219873Y-78283506D01*
X156156280Y-78277243D01*
X156156280Y-78276935D01*
X156158712Y-78209585D01*
X156163666Y-78169618D01*
X156169293Y-78145396D01*
X156175346Y-78128383D01*
X156184619Y-78109035D01*
X156201442Y-78079970D01*
X156228407Y-78037297D01*
X156228461Y-78037211D01*
X156261777Y-77984457D01*
X156267945Y-77974340D01*
X156303109Y-77914556D01*
X156312492Y-77897616D01*
X156323297Y-77876864D01*
X156343076Y-77847262D01*
X156401497Y-77706221D01*
X156431280Y-77556493D01*
X156431280Y-77403831D01*
X156401497Y-77254103D01*
X156343076Y-77113062D01*
X156323298Y-77083462D01*
X156312493Y-77062709D01*
X156303109Y-77045767D01*
X156267945Y-76985983D01*
X156261777Y-76975866D01*
X156228461Y-76923112D01*
X156228407Y-76923026D01*
X156201442Y-76880353D01*
X156184619Y-76851288D01*
X156175346Y-76831940D01*
X156169293Y-76814927D01*
X156163666Y-76790705D01*
X156158712Y-76750738D01*
X156157046Y-76704611D01*
X156207173Y-76699674D01*
X156277860Y-76678231D01*
X156343007Y-76643409D01*
X156400108Y-76596548D01*
X156446969Y-76539447D01*
X156481791Y-76474300D01*
X156503234Y-76403613D01*
X156510474Y-76330100D01*
X156510474Y-75410100D01*
X156503234Y-75336587D01*
X156481791Y-75265900D01*
X156446969Y-75200753D01*
X156400108Y-75143652D01*
X156343007Y-75096791D01*
X156277860Y-75061969D01*
X156207173Y-75040526D01*
X156133660Y-75033286D01*
X155163660Y-75033286D01*
X155090147Y-75040526D01*
X155019460Y-75061969D01*
X154954313Y-75096791D01*
X154897212Y-75143652D01*
X154850351Y-75200753D01*
X154815529Y-75265900D01*
X154794086Y-75336587D01*
X154792286Y-75354860D01*
X154716132Y-75354860D01*
X154715580Y-75336410D01*
X154609330Y-75230160D01*
X153578080Y-75230160D01*
X153578080Y-75250160D01*
X153528080Y-75250160D01*
X153528080Y-75230160D01*
X153508080Y-75230160D01*
X153508080Y-75180160D01*
X153528080Y-75180160D01*
X153528080Y-75160160D01*
X153578080Y-75160160D01*
X153578080Y-75180160D01*
X154609330Y-75180160D01*
X154715580Y-75073910D01*
X154717636Y-75005160D01*
X154709430Y-74921846D01*
X154685128Y-74841733D01*
X154649866Y-74775761D01*
X154658232Y-74748182D01*
X154667394Y-74655160D01*
X154667394Y-74455160D01*
X154658232Y-74362138D01*
X154631099Y-74272691D01*
X154608365Y-74230160D01*
X154631099Y-74187629D01*
X154658232Y-74098182D01*
X154667394Y-74005160D01*
X154667394Y-73805160D01*
X154658232Y-73712138D01*
X154631099Y-73622691D01*
X154608365Y-73580160D01*
X154631099Y-73537629D01*
X154658232Y-73448182D01*
X154667394Y-73355160D01*
X154667394Y-73155160D01*
X154658232Y-73062138D01*
X154631099Y-72972691D01*
X154587036Y-72890256D01*
X154527738Y-72818002D01*
X154455484Y-72758704D01*
X154373049Y-72714641D01*
X154283602Y-72687508D01*
X154190580Y-72678346D01*
X153007130Y-72678346D01*
X153363636Y-72321840D01*
X154298146Y-72321840D01*
X154320240Y-72324016D01*
X154342334Y-72321840D01*
X154342345Y-72321840D01*
X154408455Y-72315329D01*
X154493281Y-72289597D01*
X154571456Y-72247811D01*
X154639977Y-72191577D01*
X154654069Y-72174406D01*
X156174894Y-70653581D01*
X156254179Y-70582415D01*
X156306830Y-70546330D01*
X156345332Y-70527861D01*
X156382135Y-70516813D01*
X156431749Y-70508585D01*
X156503816Y-70502149D01*
X156594584Y-70495501D01*
X156608403Y-70494232D01*
X156709377Y-70483068D01*
X156737524Y-70478869D01*
X156848327Y-70458016D01*
X156883950Y-70449492D01*
X156928677Y-70436449D01*
X156989697Y-70424312D01*
X157167136Y-70350814D01*
X157326827Y-70244112D01*
X157462632Y-70108307D01*
X157569334Y-69948616D01*
X157642832Y-69771177D01*
X157680300Y-69582809D01*
X157680300Y-69390751D01*
X157642832Y-69202383D01*
X157569334Y-69024944D01*
X157462632Y-68865253D01*
X157326827Y-68729448D01*
X157167136Y-68622746D01*
X156989697Y-68549248D01*
X156801329Y-68511780D01*
X156609271Y-68511780D01*
X156420903Y-68549248D01*
X156243464Y-68622746D01*
X156083773Y-68729448D01*
X155947968Y-68865253D01*
X155841266Y-69024944D01*
X155767768Y-69202383D01*
X155755632Y-69263396D01*
X155742588Y-69308126D01*
X155734063Y-69343752D01*
X155713210Y-69454555D01*
X155709011Y-69482702D01*
X155697847Y-69583676D01*
X155696578Y-69597495D01*
X155689930Y-69688263D01*
X155683494Y-69760330D01*
X155675266Y-69809944D01*
X155664218Y-69846747D01*
X155645749Y-69885249D01*
X155609664Y-69937900D01*
X155538494Y-70017190D01*
X155493350Y-70062335D01*
X155569334Y-69948616D01*
X155642832Y-69771177D01*
X155680300Y-69582809D01*
X155680300Y-69390751D01*
X155642832Y-69202383D01*
X155569334Y-69024944D01*
X155462632Y-68865253D01*
X155326827Y-68729448D01*
X155167136Y-68622746D01*
X154989697Y-68549248D01*
X154801329Y-68511780D01*
X154609271Y-68511780D01*
X154420903Y-68549248D01*
X154243464Y-68622746D01*
X154168260Y-68672996D01*
X154168260Y-68586854D01*
X154170436Y-68564760D01*
X154168260Y-68542666D01*
X154168260Y-68542655D01*
X154161749Y-68476545D01*
X154136017Y-68391719D01*
X154133045Y-68386158D01*
X154094231Y-68313543D01*
X154052088Y-68262192D01*
X154052084Y-68262188D01*
X154037997Y-68245023D01*
X154020833Y-68230937D01*
X153850893Y-68060997D01*
X153780731Y-67982840D01*
X153745865Y-67931856D01*
X153728863Y-67895979D01*
X153719319Y-67862792D01*
X153712750Y-67817294D01*
X153708844Y-67749353D01*
X153706161Y-67660370D01*
X153705750Y-67650799D01*
X153700082Y-67549120D01*
X153697915Y-67524678D01*
X153684293Y-67412774D01*
X153680604Y-67390751D01*
X153730300Y-67390751D01*
X153730300Y-67582809D01*
X153767768Y-67771177D01*
X153841266Y-67948616D01*
X153947968Y-68108307D01*
X154083773Y-68244112D01*
X154243464Y-68350814D01*
X154420903Y-68424312D01*
X154609271Y-68461780D01*
X154801329Y-68461780D01*
X154989697Y-68424312D01*
X155167136Y-68350814D01*
X155326827Y-68244112D01*
X155462632Y-68108307D01*
X155569334Y-67948616D01*
X155642832Y-67771177D01*
X155680300Y-67582809D01*
X155680300Y-67390751D01*
X155730300Y-67390751D01*
X155730300Y-67582809D01*
X155767768Y-67771177D01*
X155841266Y-67948616D01*
X155947968Y-68108307D01*
X156083773Y-68244112D01*
X156243464Y-68350814D01*
X156420903Y-68424312D01*
X156609271Y-68461780D01*
X156801329Y-68461780D01*
X156989697Y-68424312D01*
X157167136Y-68350814D01*
X157326827Y-68244112D01*
X157462632Y-68108307D01*
X157569334Y-67948616D01*
X157642832Y-67771177D01*
X157680300Y-67582809D01*
X157680300Y-67390751D01*
X157642832Y-67202383D01*
X157569334Y-67024944D01*
X157462632Y-66865253D01*
X157326827Y-66729448D01*
X157167136Y-66622746D01*
X156989697Y-66549248D01*
X156801329Y-66511780D01*
X156609271Y-66511780D01*
X156420903Y-66549248D01*
X156243464Y-66622746D01*
X156083773Y-66729448D01*
X155947968Y-66865253D01*
X155841266Y-67024944D01*
X155767768Y-67202383D01*
X155730300Y-67390751D01*
X155680300Y-67390751D01*
X155642832Y-67202383D01*
X155569334Y-67024944D01*
X155462632Y-66865253D01*
X155326827Y-66729448D01*
X155167136Y-66622746D01*
X154989697Y-66549248D01*
X154801329Y-66511780D01*
X154609271Y-66511780D01*
X154420903Y-66549248D01*
X154243464Y-66622746D01*
X154083773Y-66729448D01*
X153947968Y-66865253D01*
X153841266Y-67024944D01*
X153767768Y-67202383D01*
X153730300Y-67390751D01*
X153680604Y-67390751D01*
X153678739Y-67379620D01*
X153669470Y-67336306D01*
X153642832Y-67202383D01*
X153569334Y-67024944D01*
X153462632Y-66865253D01*
X153326827Y-66729448D01*
X153167136Y-66622746D01*
X152989697Y-66549248D01*
X152801329Y-66511780D01*
X152609271Y-66511780D01*
X152420903Y-66549248D01*
X152243464Y-66622746D01*
X152083773Y-66729448D01*
X151947968Y-66865253D01*
X151841266Y-67024944D01*
X151767768Y-67202383D01*
X151730300Y-67390751D01*
X151730300Y-67444109D01*
X151718370Y-67301012D01*
X151662662Y-67106941D01*
X151570164Y-66927468D01*
X151553004Y-66901788D01*
X151375900Y-66851535D01*
X150740655Y-67486780D01*
X151375900Y-68122025D01*
X151553004Y-68071772D01*
X151650842Y-67895152D01*
X151712344Y-67702839D01*
X151730300Y-67544852D01*
X151730300Y-67582809D01*
X151767768Y-67771177D01*
X151841266Y-67948616D01*
X151947968Y-68108307D01*
X152083773Y-68244112D01*
X152243464Y-68350814D01*
X152420903Y-68424312D01*
X152440972Y-68428304D01*
X152458197Y-68434794D01*
X152493248Y-68446069D01*
X152605191Y-68476101D01*
X152634357Y-68482692D01*
X152736581Y-68501542D01*
X152752663Y-68504147D01*
X152846397Y-68517251D01*
X152923780Y-68528668D01*
X152979874Y-68540708D01*
X153024138Y-68555690D01*
X153070101Y-68578980D01*
X153082559Y-68587713D01*
X152989697Y-68549248D01*
X152801329Y-68511780D01*
X152609271Y-68511780D01*
X152420903Y-68549248D01*
X152243464Y-68622746D01*
X152083773Y-68729448D01*
X151947968Y-68865253D01*
X151841266Y-69024944D01*
X151767768Y-69202383D01*
X151730300Y-69390751D01*
X151730300Y-69582809D01*
X151732764Y-69595197D01*
X151732807Y-69597417D01*
X151734337Y-69624773D01*
X151744127Y-69730413D01*
X151745920Y-69746142D01*
X151758897Y-69841950D01*
X151769490Y-69920690D01*
X151773608Y-69972945D01*
X151772563Y-70001423D01*
X151769438Y-70016488D01*
X151761563Y-70035254D01*
X151737795Y-70071634D01*
X151679215Y-70137590D01*
X151197447Y-70619357D01*
X151214059Y-70582815D01*
X151244087Y-70505843D01*
X151252538Y-70481796D01*
X151275889Y-70407358D01*
X151276934Y-70403970D01*
X151296275Y-70340211D01*
X151312821Y-70294576D01*
X151329837Y-70259648D01*
X151354003Y-70223367D01*
X151402899Y-70168040D01*
X151462632Y-70108307D01*
X151569334Y-69948616D01*
X151642832Y-69771177D01*
X151680300Y-69582809D01*
X151680300Y-69390751D01*
X151642832Y-69202383D01*
X151569334Y-69024944D01*
X151462632Y-68865253D01*
X151326827Y-68729448D01*
X151167136Y-68622746D01*
X150989697Y-68549248D01*
X150801329Y-68511780D01*
X150747971Y-68511780D01*
X150891068Y-68499850D01*
X151085139Y-68444142D01*
X151264612Y-68351644D01*
X151290292Y-68334484D01*
X151340545Y-68157380D01*
X150705300Y-67522135D01*
X150070055Y-68157380D01*
X150120308Y-68334484D01*
X150296928Y-68432322D01*
X150489241Y-68493824D01*
X150647228Y-68511780D01*
X150609271Y-68511780D01*
X150420903Y-68549248D01*
X150243464Y-68622746D01*
X150083773Y-68729448D01*
X149947968Y-68865253D01*
X149841266Y-69024944D01*
X149767768Y-69202383D01*
X149730300Y-69390751D01*
X149730300Y-69582809D01*
X149767768Y-69771177D01*
X149841266Y-69948616D01*
X149947968Y-70108307D01*
X149981864Y-70142203D01*
X150022767Y-70190852D01*
X150046518Y-70216563D01*
X150133626Y-70302444D01*
X150143743Y-70312054D01*
X150227449Y-70388653D01*
X150241354Y-70401970D01*
X149493933Y-71149391D01*
X149476763Y-71163483D01*
X149462672Y-71180653D01*
X149420529Y-71232004D01*
X149385728Y-71297112D01*
X148535777Y-70447161D01*
X148609271Y-70461780D01*
X148801329Y-70461780D01*
X148989697Y-70424312D01*
X149167136Y-70350814D01*
X149326827Y-70244112D01*
X149462632Y-70108307D01*
X149569334Y-69948616D01*
X149642832Y-69771177D01*
X149680300Y-69582809D01*
X149680300Y-69390751D01*
X149642832Y-69202383D01*
X149569334Y-69024944D01*
X149462632Y-68865253D01*
X149326827Y-68729448D01*
X149167136Y-68622746D01*
X148989697Y-68549248D01*
X148801329Y-68511780D01*
X148609271Y-68511780D01*
X148420903Y-68549248D01*
X148243464Y-68622746D01*
X148148460Y-68686226D01*
X148148460Y-68502031D01*
X148150636Y-68479939D01*
X148148460Y-68457847D01*
X148148460Y-68457835D01*
X148141949Y-68391725D01*
X148116217Y-68306899D01*
X148109622Y-68294560D01*
X148074431Y-68228723D01*
X148032288Y-68177372D01*
X148032284Y-68177368D01*
X148018197Y-68160203D01*
X148001033Y-68146117D01*
X147872111Y-68017195D01*
X147800932Y-67937896D01*
X147764850Y-67885249D01*
X147746381Y-67846747D01*
X147735333Y-67809944D01*
X147727105Y-67760330D01*
X147720669Y-67688263D01*
X147714021Y-67597495D01*
X147712752Y-67583676D01*
X147701588Y-67482702D01*
X147697389Y-67454555D01*
X147689089Y-67410449D01*
X147930300Y-67410449D01*
X147930300Y-67563111D01*
X147960083Y-67712839D01*
X148018504Y-67853880D01*
X148103318Y-67980814D01*
X148211266Y-68088762D01*
X148338200Y-68173576D01*
X148479241Y-68231997D01*
X148628969Y-68261780D01*
X148781631Y-68261780D01*
X148931359Y-68231997D01*
X149072400Y-68173576D01*
X149199334Y-68088762D01*
X149307282Y-67980814D01*
X149392096Y-67853880D01*
X149450517Y-67712839D01*
X149480300Y-67563111D01*
X149480300Y-67471337D01*
X149675455Y-67471337D01*
X149692230Y-67672548D01*
X149747938Y-67866619D01*
X149840436Y-68046092D01*
X149857596Y-68071772D01*
X150034700Y-68122025D01*
X150669945Y-67486780D01*
X150034700Y-66851535D01*
X149857596Y-66901788D01*
X149759758Y-67078408D01*
X149698256Y-67270721D01*
X149675455Y-67471337D01*
X149480300Y-67471337D01*
X149480300Y-67410449D01*
X149450517Y-67260721D01*
X149392096Y-67119680D01*
X149307282Y-66992746D01*
X149199334Y-66884798D01*
X149096640Y-66816180D01*
X150070055Y-66816180D01*
X150705300Y-67451425D01*
X151340545Y-66816180D01*
X151290292Y-66639076D01*
X151113672Y-66541238D01*
X150921359Y-66479736D01*
X150720743Y-66456935D01*
X150519532Y-66473710D01*
X150325461Y-66529418D01*
X150145988Y-66621916D01*
X150120308Y-66639076D01*
X150070055Y-66816180D01*
X149096640Y-66816180D01*
X149072400Y-66799984D01*
X148931359Y-66741563D01*
X148781631Y-66711780D01*
X148628969Y-66711780D01*
X148479241Y-66741563D01*
X148338200Y-66799984D01*
X148211266Y-66884798D01*
X148103318Y-66992746D01*
X148018504Y-67119680D01*
X147960083Y-67260721D01*
X147930300Y-67410449D01*
X147689089Y-67410449D01*
X147676536Y-67343752D01*
X147668012Y-67308129D01*
X147654969Y-67263401D01*
X147642832Y-67202383D01*
X147569334Y-67024944D01*
X147462632Y-66865253D01*
X147326827Y-66729448D01*
X147167136Y-66622746D01*
X146989697Y-66549248D01*
X146801329Y-66511780D01*
X146609271Y-66511780D01*
X146420903Y-66549248D01*
X146243464Y-66622746D01*
X146083773Y-66729448D01*
X145947968Y-66865253D01*
X145841266Y-67024944D01*
X145767768Y-67202383D01*
X145730300Y-67390751D01*
X145730300Y-67582809D01*
X145767768Y-67771177D01*
X145841266Y-67948616D01*
X145947968Y-68108307D01*
X146083773Y-68244112D01*
X146243464Y-68350814D01*
X146420903Y-68424312D01*
X146481921Y-68436449D01*
X146526649Y-68449492D01*
X146562272Y-68458016D01*
X146673075Y-68478869D01*
X146701222Y-68483068D01*
X146802196Y-68494232D01*
X146816015Y-68495501D01*
X146906783Y-68502149D01*
X146978850Y-68508585D01*
X147028464Y-68516813D01*
X147065267Y-68527861D01*
X147103769Y-68546330D01*
X147156416Y-68582412D01*
X147235715Y-68653591D01*
X147248460Y-68666336D01*
X147248460Y-68677085D01*
X147167136Y-68622746D01*
X146989697Y-68549248D01*
X146801329Y-68511780D01*
X146609271Y-68511780D01*
X146420903Y-68549248D01*
X146243464Y-68622746D01*
X146083773Y-68729448D01*
X145947968Y-68865253D01*
X145841266Y-69024944D01*
X145767768Y-69202383D01*
X145730300Y-69390751D01*
X145730300Y-69582809D01*
X145767768Y-69771177D01*
X145841266Y-69948616D01*
X145947968Y-70108307D01*
X146083773Y-70244112D01*
X146243464Y-70350814D01*
X146420903Y-70424312D01*
X146609271Y-70461780D01*
X146801329Y-70461780D01*
X146989697Y-70424312D01*
X147167136Y-70350814D01*
X147251060Y-70294738D01*
X147254972Y-70334455D01*
X147280703Y-70419280D01*
X147322489Y-70497456D01*
X147364632Y-70548807D01*
X147364637Y-70548812D01*
X147378724Y-70565977D01*
X147395889Y-70580064D01*
X148769920Y-71954096D01*
X148769921Y-72791069D01*
X148730484Y-72758704D01*
X148648049Y-72714641D01*
X148558602Y-72687508D01*
X148465580Y-72678346D01*
X147190580Y-72678346D01*
X147097558Y-72687508D01*
X147008111Y-72714641D01*
X146925676Y-72758704D01*
X146853422Y-72818002D01*
X146848173Y-72824398D01*
X146927478Y-72632937D01*
X146982240Y-72357630D01*
X146982240Y-72076930D01*
X146927478Y-71801623D01*
X146820059Y-71542289D01*
X146664110Y-71308895D01*
X146465625Y-71110410D01*
X146232231Y-70954461D01*
X145972897Y-70847042D01*
X145697590Y-70792280D01*
X145416890Y-70792280D01*
X145141583Y-70847042D01*
X144882249Y-70954461D01*
X144648855Y-71110410D01*
X144450370Y-71308895D01*
X144294421Y-71542289D01*
X144187002Y-71801623D01*
X144132240Y-72076930D01*
X143631403Y-72076930D01*
X143631106Y-69390751D01*
X143730300Y-69390751D01*
X143730300Y-69582809D01*
X143767768Y-69771177D01*
X143841266Y-69948616D01*
X143947968Y-70108307D01*
X144083773Y-70244112D01*
X144243464Y-70350814D01*
X144420903Y-70424312D01*
X144609271Y-70461780D01*
X144801329Y-70461780D01*
X144989697Y-70424312D01*
X145167136Y-70350814D01*
X145326827Y-70244112D01*
X145462632Y-70108307D01*
X145569334Y-69948616D01*
X145642832Y-69771177D01*
X145680300Y-69582809D01*
X145680300Y-69390751D01*
X145642832Y-69202383D01*
X145569334Y-69024944D01*
X145462632Y-68865253D01*
X145326827Y-68729448D01*
X145167136Y-68622746D01*
X144989697Y-68549248D01*
X144801329Y-68511780D01*
X144609271Y-68511780D01*
X144420903Y-68549248D01*
X144243464Y-68622746D01*
X144083773Y-68729448D01*
X143947968Y-68865253D01*
X143841266Y-69024944D01*
X143767768Y-69202383D01*
X143730300Y-69390751D01*
X143631106Y-69390751D01*
X143630886Y-67390751D01*
X143730300Y-67390751D01*
X143730300Y-67582809D01*
X143767768Y-67771177D01*
X143841266Y-67948616D01*
X143947968Y-68108307D01*
X144083773Y-68244112D01*
X144243464Y-68350814D01*
X144420903Y-68424312D01*
X144609271Y-68461780D01*
X144801329Y-68461780D01*
X144989697Y-68424312D01*
X145167136Y-68350814D01*
X145326827Y-68244112D01*
X145462632Y-68108307D01*
X145569334Y-67948616D01*
X145642832Y-67771177D01*
X145680300Y-67582809D01*
X145680300Y-67390751D01*
X145642832Y-67202383D01*
X145569334Y-67024944D01*
X145462632Y-66865253D01*
X145326827Y-66729448D01*
X145167136Y-66622746D01*
X144989697Y-66549248D01*
X144801329Y-66511780D01*
X144609271Y-66511780D01*
X144420903Y-66549248D01*
X144243464Y-66622746D01*
X144083773Y-66729448D01*
X143947968Y-66865253D01*
X143841266Y-67024944D01*
X143767768Y-67202383D01*
X143730300Y-67390751D01*
X143630886Y-67390751D01*
X143630346Y-62511780D01*
X157780463Y-62511780D01*
X157788736Y-84150823D01*
%TA.AperFunction,Conductor*%
D17*
G36*
X157788736Y-84150823D02*
G01*
X157757477Y-84535736D01*
X157658701Y-84883809D01*
X157494201Y-85206064D01*
X157270238Y-85490231D01*
X156995347Y-85725486D01*
X156679998Y-85902867D01*
X156336201Y-86015616D01*
X155958817Y-86061666D01*
X155930738Y-86061999D01*
X145544106Y-86056612D01*
X145159004Y-86025337D01*
X144810931Y-85926561D01*
X144488676Y-85762061D01*
X144204509Y-85538098D01*
X143969254Y-85263207D01*
X143791873Y-84947858D01*
X143679124Y-84604061D01*
X143633074Y-84226677D01*
X143632739Y-84198448D01*
X143631403Y-72076930D01*
X144132240Y-72076930D01*
X144132240Y-72357630D01*
X144187002Y-72632937D01*
X144294421Y-72892271D01*
X144450370Y-73125665D01*
X144648855Y-73324150D01*
X144882249Y-73480099D01*
X145141583Y-73587518D01*
X145416890Y-73642280D01*
X145697590Y-73642280D01*
X145972897Y-73587518D01*
X146232231Y-73480099D01*
X146465625Y-73324150D01*
X146664110Y-73125665D01*
X146736539Y-73017267D01*
X146722928Y-73062138D01*
X146713766Y-73155160D01*
X146713766Y-73355160D01*
X146722928Y-73448182D01*
X146750061Y-73537629D01*
X146772795Y-73580160D01*
X146750061Y-73622691D01*
X146722928Y-73712138D01*
X146713766Y-73805160D01*
X146713766Y-74005160D01*
X146722928Y-74098182D01*
X146750061Y-74187629D01*
X146772795Y-74230160D01*
X146750061Y-74272691D01*
X146722928Y-74362138D01*
X146713766Y-74455160D01*
X146713766Y-74655160D01*
X146722928Y-74748182D01*
X146731294Y-74775761D01*
X146696032Y-74841733D01*
X146671730Y-74921846D01*
X146663524Y-75005160D01*
X146665580Y-75073910D01*
X146771830Y-75180160D01*
X147803080Y-75180160D01*
X147803080Y-75160160D01*
X147853080Y-75160160D01*
X147853080Y-75180160D01*
X148884330Y-75180160D01*
X148990580Y-75073910D01*
X148992061Y-75024400D01*
X149329906Y-75024400D01*
X149352000Y-75026576D01*
X149374094Y-75024400D01*
X149374105Y-75024400D01*
X149440215Y-75017889D01*
X149525041Y-74992157D01*
X149603216Y-74950371D01*
X149671737Y-74894137D01*
X149685828Y-74876967D01*
X149928161Y-74634635D01*
X149928161Y-75005223D01*
X148938479Y-75994906D01*
X148942394Y-75955160D01*
X148942394Y-75755160D01*
X148933232Y-75662138D01*
X148924866Y-75634559D01*
X148960128Y-75568587D01*
X148984430Y-75488474D01*
X148992636Y-75405160D01*
X148990580Y-75336410D01*
X148884330Y-75230160D01*
X147853080Y-75230160D01*
X147853080Y-75250160D01*
X147803080Y-75250160D01*
X147803080Y-75230160D01*
X146771830Y-75230160D01*
X146665580Y-75336410D01*
X146665019Y-75355160D01*
X146523864Y-75355160D01*
X146521034Y-75326427D01*
X146499591Y-75255740D01*
X146464769Y-75190593D01*
X146417908Y-75133492D01*
X146360807Y-75086631D01*
X146295660Y-75051809D01*
X146224973Y-75030366D01*
X146151460Y-75023126D01*
X145181460Y-75023126D01*
X145107947Y-75030366D01*
X145037260Y-75051809D01*
X144972113Y-75086631D01*
X144915012Y-75133492D01*
X144868151Y-75190593D01*
X144833329Y-75255740D01*
X144811886Y-75326427D01*
X144804646Y-75399940D01*
X144804646Y-76319940D01*
X144811886Y-76393453D01*
X144833329Y-76464140D01*
X144868151Y-76529287D01*
X144915012Y-76586388D01*
X144972113Y-76633249D01*
X145037260Y-76668071D01*
X145107947Y-76689514D01*
X145165969Y-76695228D01*
X145164021Y-76751656D01*
X145158864Y-76795259D01*
X145152712Y-76823074D01*
X145145858Y-76843361D01*
X145135808Y-76865508D01*
X145118620Y-76896973D01*
X145092047Y-76941649D01*
X145091813Y-76942044D01*
X145059358Y-76996761D01*
X145053527Y-77006952D01*
X145019315Y-77068978D01*
X145010618Y-77085729D01*
X145003705Y-77099906D01*
X144989824Y-77120680D01*
X144931403Y-77261721D01*
X144901620Y-77411449D01*
X144901620Y-77564111D01*
X144931403Y-77713839D01*
X144989824Y-77854880D01*
X145004228Y-77876438D01*
X145009501Y-77887206D01*
X145019500Y-77906228D01*
X145053093Y-77965913D01*
X145060293Y-77978156D01*
X145092520Y-78030658D01*
X145093820Y-78032760D01*
X145120679Y-78075877D01*
X145138075Y-78105995D01*
X145147629Y-78125769D01*
X145153645Y-78142406D01*
X145159130Y-78165495D01*
X145164014Y-78203835D01*
X145165729Y-78249875D01*
X145107947Y-78255566D01*
X145037260Y-78277009D01*
X144972113Y-78311831D01*
X144915012Y-78358692D01*
X144868151Y-78415793D01*
X144833329Y-78480940D01*
X144811886Y-78551627D01*
X144804646Y-78625140D01*
X144804646Y-79545140D01*
X144811886Y-79618653D01*
X144833329Y-79689340D01*
X144868151Y-79754487D01*
X144915012Y-79811588D01*
X144972113Y-79858449D01*
X145037260Y-79893271D01*
X145107947Y-79914714D01*
X145181460Y-79921954D01*
X146151460Y-79921954D01*
X146224973Y-79914714D01*
X146295660Y-79893271D01*
X146360807Y-79858449D01*
X146417908Y-79811588D01*
X146464769Y-79754487D01*
X146499591Y-79689340D01*
X146521034Y-79618653D01*
X146522363Y-79605160D01*
X146665019Y-79605160D01*
X146665580Y-79623910D01*
X146771830Y-79730160D01*
X147803080Y-79730160D01*
X147803080Y-79710160D01*
X147853080Y-79710160D01*
X147853080Y-79730160D01*
X148884330Y-79730160D01*
X148990580Y-79623910D01*
X148992636Y-79555160D01*
X148984430Y-79471846D01*
X148960128Y-79391733D01*
X148924866Y-79325761D01*
X148933232Y-79298182D01*
X148942394Y-79205160D01*
X148942394Y-79005160D01*
X148933232Y-78912138D01*
X148931224Y-78905520D01*
X150025825Y-78905520D01*
X148992158Y-79939187D01*
X148990580Y-79886410D01*
X148884330Y-79780160D01*
X147853080Y-79780160D01*
X147853080Y-79800160D01*
X147803080Y-79800160D01*
X147803080Y-79780160D01*
X146771830Y-79780160D01*
X146665580Y-79886410D01*
X146663524Y-79955160D01*
X146671730Y-80038474D01*
X146696032Y-80118587D01*
X146731294Y-80184559D01*
X146722928Y-80212138D01*
X146713766Y-80305160D01*
X146713766Y-80505160D01*
X146722928Y-80598182D01*
X146750061Y-80687629D01*
X146772795Y-80730160D01*
X146750061Y-80772691D01*
X146722928Y-80862138D01*
X146713766Y-80955160D01*
X146713766Y-81155160D01*
X146722928Y-81248182D01*
X146750061Y-81337629D01*
X146772795Y-81380160D01*
X146750061Y-81422691D01*
X146722928Y-81512138D01*
X146713766Y-81605160D01*
X146713766Y-81805160D01*
X146722928Y-81898182D01*
X146750061Y-81987629D01*
X146794124Y-82070064D01*
X146853422Y-82142318D01*
X146925676Y-82201616D01*
X147008111Y-82245679D01*
X147097558Y-82272812D01*
X147190580Y-82281974D01*
X148465580Y-82281974D01*
X148558602Y-82272812D01*
X148648049Y-82245679D01*
X148730484Y-82201616D01*
X148802738Y-82142318D01*
X148862036Y-82070064D01*
X148906099Y-81987629D01*
X148933232Y-81898182D01*
X148942394Y-81805160D01*
X148942394Y-81605160D01*
X148933675Y-81516640D01*
X149439085Y-81516640D01*
X149374129Y-81581596D01*
X149356964Y-81595683D01*
X149342877Y-81612848D01*
X149342872Y-81612853D01*
X149300729Y-81664204D01*
X149258943Y-81742380D01*
X149233212Y-81827205D01*
X149224524Y-81915420D01*
X149226701Y-81937524D01*
X149226700Y-83209663D01*
X149208187Y-83211486D01*
X149137500Y-83232929D01*
X149072353Y-83267751D01*
X149015252Y-83314612D01*
X148968391Y-83371713D01*
X148933569Y-83436860D01*
X148912126Y-83507547D01*
X148904886Y-83581060D01*
X148904886Y-84511060D01*
X148912126Y-84584573D01*
X148933569Y-84655260D01*
X148968391Y-84720407D01*
X149015252Y-84777508D01*
X149072353Y-84824369D01*
X149137500Y-84859191D01*
X149208187Y-84880634D01*
X149281700Y-84887874D01*
X150071700Y-84887874D01*
X150145213Y-84880634D01*
X150215900Y-84859191D01*
X150281047Y-84824369D01*
X150338148Y-84777508D01*
X150385009Y-84720407D01*
X150419831Y-84655260D01*
X150441274Y-84584573D01*
X150448514Y-84511060D01*
X150448514Y-83581060D01*
X150441274Y-83507547D01*
X150419831Y-83436860D01*
X150385009Y-83371713D01*
X150338148Y-83314612D01*
X150281047Y-83267751D01*
X150215900Y-83232929D01*
X150145213Y-83211486D01*
X150126700Y-83209663D01*
X150126700Y-82101815D01*
X151051261Y-81177255D01*
X151051260Y-83209663D01*
X151032747Y-83211486D01*
X150962060Y-83232929D01*
X150896913Y-83267751D01*
X150839812Y-83314612D01*
X150792951Y-83371713D01*
X150758129Y-83436860D01*
X150736686Y-83507547D01*
X150729446Y-83581060D01*
X150729446Y-84511060D01*
X150736686Y-84584573D01*
X150758129Y-84655260D01*
X150792951Y-84720407D01*
X150839812Y-84777508D01*
X150896913Y-84824369D01*
X150962060Y-84859191D01*
X151032747Y-84880634D01*
X151106260Y-84887874D01*
X151896260Y-84887874D01*
X151969773Y-84880634D01*
X152040460Y-84859191D01*
X152105607Y-84824369D01*
X152162708Y-84777508D01*
X152209569Y-84720407D01*
X152244391Y-84655260D01*
X152265834Y-84584573D01*
X152273074Y-84511060D01*
X152273074Y-84065730D01*
X154508140Y-84065730D01*
X154508140Y-84346430D01*
X154562902Y-84621737D01*
X154670321Y-84881071D01*
X154826270Y-85114465D01*
X155024755Y-85312950D01*
X155258149Y-85468899D01*
X155517483Y-85576318D01*
X155792790Y-85631080D01*
X156073490Y-85631080D01*
X156348797Y-85576318D01*
X156608131Y-85468899D01*
X156841525Y-85312950D01*
X157040010Y-85114465D01*
X157195959Y-84881071D01*
X157303378Y-84621737D01*
X157358140Y-84346430D01*
X157358140Y-84065730D01*
X157303378Y-83790423D01*
X157195959Y-83531089D01*
X157040010Y-83297695D01*
X156841525Y-83099210D01*
X156608131Y-82943261D01*
X156348797Y-82835842D01*
X156073490Y-82781080D01*
X155792790Y-82781080D01*
X155517483Y-82835842D01*
X155258149Y-82943261D01*
X155024755Y-83099210D01*
X154826270Y-83297695D01*
X154670321Y-83531089D01*
X154562902Y-83790423D01*
X154508140Y-84065730D01*
X152273074Y-84065730D01*
X152273074Y-83581060D01*
X152265834Y-83507547D01*
X152244391Y-83436860D01*
X152209569Y-83371713D01*
X152162708Y-83314612D01*
X152105607Y-83267751D01*
X152040460Y-83232929D01*
X151969773Y-83211486D01*
X151951260Y-83209663D01*
X151951260Y-80018175D01*
X152014275Y-79955160D01*
X152388524Y-79955160D01*
X152396730Y-80038474D01*
X152421032Y-80118587D01*
X152456294Y-80184559D01*
X152447928Y-80212138D01*
X152438766Y-80305160D01*
X152438766Y-80505160D01*
X152447928Y-80598182D01*
X152475061Y-80687629D01*
X152497795Y-80730160D01*
X152475061Y-80772691D01*
X152447928Y-80862138D01*
X152438766Y-80955160D01*
X152438766Y-81155160D01*
X152447928Y-81248182D01*
X152475061Y-81337629D01*
X152497795Y-81380160D01*
X152475061Y-81422691D01*
X152447928Y-81512138D01*
X152438766Y-81605160D01*
X152438766Y-81805160D01*
X152447928Y-81898182D01*
X152475061Y-81987629D01*
X152519124Y-82070064D01*
X152578422Y-82142318D01*
X152650676Y-82201616D01*
X152733111Y-82245679D01*
X152822558Y-82272812D01*
X152915580Y-82281974D01*
X154190580Y-82281974D01*
X154283602Y-82272812D01*
X154373049Y-82245679D01*
X154455484Y-82201616D01*
X154527738Y-82142318D01*
X154587036Y-82070064D01*
X154631099Y-81987629D01*
X154658232Y-81898182D01*
X154667394Y-81805160D01*
X154667394Y-81605160D01*
X154658232Y-81512138D01*
X154631099Y-81422691D01*
X154608365Y-81380160D01*
X154631099Y-81337629D01*
X154658232Y-81248182D01*
X154667394Y-81155160D01*
X154667394Y-80955160D01*
X154658232Y-80862138D01*
X154631099Y-80772691D01*
X154608365Y-80730160D01*
X154631099Y-80687629D01*
X154658232Y-80598182D01*
X154667394Y-80505160D01*
X154667394Y-80305160D01*
X154658232Y-80212138D01*
X154649866Y-80184559D01*
X154685128Y-80118587D01*
X154709430Y-80038474D01*
X154717636Y-79955160D01*
X154715580Y-79886410D01*
X154609330Y-79780160D01*
X153578080Y-79780160D01*
X153578080Y-79800160D01*
X153528080Y-79800160D01*
X153528080Y-79780160D01*
X152496830Y-79780160D01*
X152390580Y-79886410D01*
X152388524Y-79955160D01*
X152014275Y-79955160D01*
X152389272Y-79580164D01*
X152390580Y-79623910D01*
X152496830Y-79730160D01*
X153528080Y-79730160D01*
X153528080Y-79710160D01*
X153578080Y-79710160D01*
X153578080Y-79730160D01*
X154609330Y-79730160D01*
X154715580Y-79623910D01*
X154716208Y-79602920D01*
X154802485Y-79602920D01*
X154806786Y-79646593D01*
X154828229Y-79717280D01*
X154863051Y-79782427D01*
X154909912Y-79839528D01*
X154967013Y-79886389D01*
X155032160Y-79921211D01*
X155102847Y-79942654D01*
X155176360Y-79949894D01*
X156146360Y-79949894D01*
X156219873Y-79942654D01*
X156290560Y-79921211D01*
X156355707Y-79886389D01*
X156412808Y-79839528D01*
X156459669Y-79782427D01*
X156494491Y-79717280D01*
X156515934Y-79646593D01*
X156523174Y-79573080D01*
X156523174Y-78653080D01*
X156515934Y-78579567D01*
X156494491Y-78508880D01*
X156459669Y-78443733D01*
X156412808Y-78386632D01*
X156355707Y-78339771D01*
X156290560Y-78304949D01*
X156219873Y-78283506D01*
X156156280Y-78277243D01*
X156156280Y-78276935D01*
X156158712Y-78209585D01*
X156163666Y-78169618D01*
X156169293Y-78145396D01*
X156175346Y-78128383D01*
X156184619Y-78109035D01*
X156201442Y-78079970D01*
X156228407Y-78037297D01*
X156228461Y-78037211D01*
X156261777Y-77984457D01*
X156267945Y-77974340D01*
X156303109Y-77914556D01*
X156312492Y-77897616D01*
X156323297Y-77876864D01*
X156343076Y-77847262D01*
X156401497Y-77706221D01*
X156431280Y-77556493D01*
X156431280Y-77403831D01*
X156401497Y-77254103D01*
X156343076Y-77113062D01*
X156323298Y-77083462D01*
X156312493Y-77062709D01*
X156303109Y-77045767D01*
X156267945Y-76985983D01*
X156261777Y-76975866D01*
X156228461Y-76923112D01*
X156228407Y-76923026D01*
X156201442Y-76880353D01*
X156184619Y-76851288D01*
X156175346Y-76831940D01*
X156169293Y-76814927D01*
X156163666Y-76790705D01*
X156158712Y-76750738D01*
X156157046Y-76704611D01*
X156207173Y-76699674D01*
X156277860Y-76678231D01*
X156343007Y-76643409D01*
X156400108Y-76596548D01*
X156446969Y-76539447D01*
X156481791Y-76474300D01*
X156503234Y-76403613D01*
X156510474Y-76330100D01*
X156510474Y-75410100D01*
X156503234Y-75336587D01*
X156481791Y-75265900D01*
X156446969Y-75200753D01*
X156400108Y-75143652D01*
X156343007Y-75096791D01*
X156277860Y-75061969D01*
X156207173Y-75040526D01*
X156133660Y-75033286D01*
X155163660Y-75033286D01*
X155090147Y-75040526D01*
X155019460Y-75061969D01*
X154954313Y-75096791D01*
X154897212Y-75143652D01*
X154850351Y-75200753D01*
X154815529Y-75265900D01*
X154794086Y-75336587D01*
X154792286Y-75354860D01*
X154716132Y-75354860D01*
X154715580Y-75336410D01*
X154609330Y-75230160D01*
X153578080Y-75230160D01*
X153578080Y-75250160D01*
X153528080Y-75250160D01*
X153528080Y-75230160D01*
X153508080Y-75230160D01*
X153508080Y-75180160D01*
X153528080Y-75180160D01*
X153528080Y-75160160D01*
X153578080Y-75160160D01*
X153578080Y-75180160D01*
X154609330Y-75180160D01*
X154715580Y-75073910D01*
X154717636Y-75005160D01*
X154709430Y-74921846D01*
X154685128Y-74841733D01*
X154649866Y-74775761D01*
X154658232Y-74748182D01*
X154667394Y-74655160D01*
X154667394Y-74455160D01*
X154658232Y-74362138D01*
X154631099Y-74272691D01*
X154608365Y-74230160D01*
X154631099Y-74187629D01*
X154658232Y-74098182D01*
X154667394Y-74005160D01*
X154667394Y-73805160D01*
X154658232Y-73712138D01*
X154631099Y-73622691D01*
X154608365Y-73580160D01*
X154631099Y-73537629D01*
X154658232Y-73448182D01*
X154667394Y-73355160D01*
X154667394Y-73155160D01*
X154658232Y-73062138D01*
X154631099Y-72972691D01*
X154587036Y-72890256D01*
X154527738Y-72818002D01*
X154455484Y-72758704D01*
X154373049Y-72714641D01*
X154283602Y-72687508D01*
X154190580Y-72678346D01*
X153007130Y-72678346D01*
X153363636Y-72321840D01*
X154298146Y-72321840D01*
X154320240Y-72324016D01*
X154342334Y-72321840D01*
X154342345Y-72321840D01*
X154408455Y-72315329D01*
X154493281Y-72289597D01*
X154571456Y-72247811D01*
X154639977Y-72191577D01*
X154654069Y-72174406D01*
X156174894Y-70653581D01*
X156254179Y-70582415D01*
X156306830Y-70546330D01*
X156345332Y-70527861D01*
X156382135Y-70516813D01*
X156431749Y-70508585D01*
X156503816Y-70502149D01*
X156594584Y-70495501D01*
X156608403Y-70494232D01*
X156709377Y-70483068D01*
X156737524Y-70478869D01*
X156848327Y-70458016D01*
X156883950Y-70449492D01*
X156928677Y-70436449D01*
X156989697Y-70424312D01*
X157167136Y-70350814D01*
X157326827Y-70244112D01*
X157462632Y-70108307D01*
X157569334Y-69948616D01*
X157642832Y-69771177D01*
X157680300Y-69582809D01*
X157680300Y-69390751D01*
X157642832Y-69202383D01*
X157569334Y-69024944D01*
X157462632Y-68865253D01*
X157326827Y-68729448D01*
X157167136Y-68622746D01*
X156989697Y-68549248D01*
X156801329Y-68511780D01*
X156609271Y-68511780D01*
X156420903Y-68549248D01*
X156243464Y-68622746D01*
X156083773Y-68729448D01*
X155947968Y-68865253D01*
X155841266Y-69024944D01*
X155767768Y-69202383D01*
X155755632Y-69263396D01*
X155742588Y-69308126D01*
X155734063Y-69343752D01*
X155713210Y-69454555D01*
X155709011Y-69482702D01*
X155697847Y-69583676D01*
X155696578Y-69597495D01*
X155689930Y-69688263D01*
X155683494Y-69760330D01*
X155675266Y-69809944D01*
X155664218Y-69846747D01*
X155645749Y-69885249D01*
X155609664Y-69937900D01*
X155538494Y-70017190D01*
X155493350Y-70062335D01*
X155569334Y-69948616D01*
X155642832Y-69771177D01*
X155680300Y-69582809D01*
X155680300Y-69390751D01*
X155642832Y-69202383D01*
X155569334Y-69024944D01*
X155462632Y-68865253D01*
X155326827Y-68729448D01*
X155167136Y-68622746D01*
X154989697Y-68549248D01*
X154801329Y-68511780D01*
X154609271Y-68511780D01*
X154420903Y-68549248D01*
X154243464Y-68622746D01*
X154168260Y-68672996D01*
X154168260Y-68586854D01*
X154170436Y-68564760D01*
X154168260Y-68542666D01*
X154168260Y-68542655D01*
X154161749Y-68476545D01*
X154136017Y-68391719D01*
X154133045Y-68386158D01*
X154094231Y-68313543D01*
X154052088Y-68262192D01*
X154052084Y-68262188D01*
X154037997Y-68245023D01*
X154020833Y-68230937D01*
X153850893Y-68060997D01*
X153780731Y-67982840D01*
X153745865Y-67931856D01*
X153728863Y-67895979D01*
X153719319Y-67862792D01*
X153712750Y-67817294D01*
X153708844Y-67749353D01*
X153706161Y-67660370D01*
X153705750Y-67650799D01*
X153700082Y-67549120D01*
X153697915Y-67524678D01*
X153684293Y-67412774D01*
X153680604Y-67390751D01*
X153730300Y-67390751D01*
X153730300Y-67582809D01*
X153767768Y-67771177D01*
X153841266Y-67948616D01*
X153947968Y-68108307D01*
X154083773Y-68244112D01*
X154243464Y-68350814D01*
X154420903Y-68424312D01*
X154609271Y-68461780D01*
X154801329Y-68461780D01*
X154989697Y-68424312D01*
X155167136Y-68350814D01*
X155326827Y-68244112D01*
X155462632Y-68108307D01*
X155569334Y-67948616D01*
X155642832Y-67771177D01*
X155680300Y-67582809D01*
X155680300Y-67390751D01*
X155730300Y-67390751D01*
X155730300Y-67582809D01*
X155767768Y-67771177D01*
X155841266Y-67948616D01*
X155947968Y-68108307D01*
X156083773Y-68244112D01*
X156243464Y-68350814D01*
X156420903Y-68424312D01*
X156609271Y-68461780D01*
X156801329Y-68461780D01*
X156989697Y-68424312D01*
X157167136Y-68350814D01*
X157326827Y-68244112D01*
X157462632Y-68108307D01*
X157569334Y-67948616D01*
X157642832Y-67771177D01*
X157680300Y-67582809D01*
X157680300Y-67390751D01*
X157642832Y-67202383D01*
X157569334Y-67024944D01*
X157462632Y-66865253D01*
X157326827Y-66729448D01*
X157167136Y-66622746D01*
X156989697Y-66549248D01*
X156801329Y-66511780D01*
X156609271Y-66511780D01*
X156420903Y-66549248D01*
X156243464Y-66622746D01*
X156083773Y-66729448D01*
X155947968Y-66865253D01*
X155841266Y-67024944D01*
X155767768Y-67202383D01*
X155730300Y-67390751D01*
X155680300Y-67390751D01*
X155642832Y-67202383D01*
X155569334Y-67024944D01*
X155462632Y-66865253D01*
X155326827Y-66729448D01*
X155167136Y-66622746D01*
X154989697Y-66549248D01*
X154801329Y-66511780D01*
X154609271Y-66511780D01*
X154420903Y-66549248D01*
X154243464Y-66622746D01*
X154083773Y-66729448D01*
X153947968Y-66865253D01*
X153841266Y-67024944D01*
X153767768Y-67202383D01*
X153730300Y-67390751D01*
X153680604Y-67390751D01*
X153678739Y-67379620D01*
X153669470Y-67336306D01*
X153642832Y-67202383D01*
X153569334Y-67024944D01*
X153462632Y-66865253D01*
X153326827Y-66729448D01*
X153167136Y-66622746D01*
X152989697Y-66549248D01*
X152801329Y-66511780D01*
X152609271Y-66511780D01*
X152420903Y-66549248D01*
X152243464Y-66622746D01*
X152083773Y-66729448D01*
X151947968Y-66865253D01*
X151841266Y-67024944D01*
X151767768Y-67202383D01*
X151730300Y-67390751D01*
X151730300Y-67444109D01*
X151718370Y-67301012D01*
X151662662Y-67106941D01*
X151570164Y-66927468D01*
X151553004Y-66901788D01*
X151375900Y-66851535D01*
X150740655Y-67486780D01*
X151375900Y-68122025D01*
X151553004Y-68071772D01*
X151650842Y-67895152D01*
X151712344Y-67702839D01*
X151730300Y-67544852D01*
X151730300Y-67582809D01*
X151767768Y-67771177D01*
X151841266Y-67948616D01*
X151947968Y-68108307D01*
X152083773Y-68244112D01*
X152243464Y-68350814D01*
X152420903Y-68424312D01*
X152440972Y-68428304D01*
X152458197Y-68434794D01*
X152493248Y-68446069D01*
X152605191Y-68476101D01*
X152634357Y-68482692D01*
X152736581Y-68501542D01*
X152752663Y-68504147D01*
X152846397Y-68517251D01*
X152923780Y-68528668D01*
X152979874Y-68540708D01*
X153024138Y-68555690D01*
X153070101Y-68578980D01*
X153082559Y-68587713D01*
X152989697Y-68549248D01*
X152801329Y-68511780D01*
X152609271Y-68511780D01*
X152420903Y-68549248D01*
X152243464Y-68622746D01*
X152083773Y-68729448D01*
X151947968Y-68865253D01*
X151841266Y-69024944D01*
X151767768Y-69202383D01*
X151730300Y-69390751D01*
X151730300Y-69582809D01*
X151732764Y-69595197D01*
X151732807Y-69597417D01*
X151734337Y-69624773D01*
X151744127Y-69730413D01*
X151745920Y-69746142D01*
X151758897Y-69841950D01*
X151769490Y-69920690D01*
X151773608Y-69972945D01*
X151772563Y-70001423D01*
X151769438Y-70016488D01*
X151761563Y-70035254D01*
X151737795Y-70071634D01*
X151679215Y-70137590D01*
X151197447Y-70619357D01*
X151214059Y-70582815D01*
X151244087Y-70505843D01*
X151252538Y-70481796D01*
X151275889Y-70407358D01*
X151276934Y-70403970D01*
X151296275Y-70340211D01*
X151312821Y-70294576D01*
X151329837Y-70259648D01*
X151354003Y-70223367D01*
X151402899Y-70168040D01*
X151462632Y-70108307D01*
X151569334Y-69948616D01*
X151642832Y-69771177D01*
X151680300Y-69582809D01*
X151680300Y-69390751D01*
X151642832Y-69202383D01*
X151569334Y-69024944D01*
X151462632Y-68865253D01*
X151326827Y-68729448D01*
X151167136Y-68622746D01*
X150989697Y-68549248D01*
X150801329Y-68511780D01*
X150747971Y-68511780D01*
X150891068Y-68499850D01*
X151085139Y-68444142D01*
X151264612Y-68351644D01*
X151290292Y-68334484D01*
X151340545Y-68157380D01*
X150705300Y-67522135D01*
X150070055Y-68157380D01*
X150120308Y-68334484D01*
X150296928Y-68432322D01*
X150489241Y-68493824D01*
X150647228Y-68511780D01*
X150609271Y-68511780D01*
X150420903Y-68549248D01*
X150243464Y-68622746D01*
X150083773Y-68729448D01*
X149947968Y-68865253D01*
X149841266Y-69024944D01*
X149767768Y-69202383D01*
X149730300Y-69390751D01*
X149730300Y-69582809D01*
X149767768Y-69771177D01*
X149841266Y-69948616D01*
X149947968Y-70108307D01*
X149981864Y-70142203D01*
X150022767Y-70190852D01*
X150046518Y-70216563D01*
X150133626Y-70302444D01*
X150143743Y-70312054D01*
X150227449Y-70388653D01*
X150241354Y-70401970D01*
X149493933Y-71149391D01*
X149476763Y-71163483D01*
X149462672Y-71180653D01*
X149420529Y-71232004D01*
X149385728Y-71297112D01*
X148535777Y-70447161D01*
X148609271Y-70461780D01*
X148801329Y-70461780D01*
X148989697Y-70424312D01*
X149167136Y-70350814D01*
X149326827Y-70244112D01*
X149462632Y-70108307D01*
X149569334Y-69948616D01*
X149642832Y-69771177D01*
X149680300Y-69582809D01*
X149680300Y-69390751D01*
X149642832Y-69202383D01*
X149569334Y-69024944D01*
X149462632Y-68865253D01*
X149326827Y-68729448D01*
X149167136Y-68622746D01*
X148989697Y-68549248D01*
X148801329Y-68511780D01*
X148609271Y-68511780D01*
X148420903Y-68549248D01*
X148243464Y-68622746D01*
X148148460Y-68686226D01*
X148148460Y-68502031D01*
X148150636Y-68479939D01*
X148148460Y-68457847D01*
X148148460Y-68457835D01*
X148141949Y-68391725D01*
X148116217Y-68306899D01*
X148109622Y-68294560D01*
X148074431Y-68228723D01*
X148032288Y-68177372D01*
X148032284Y-68177368D01*
X148018197Y-68160203D01*
X148001033Y-68146117D01*
X147872111Y-68017195D01*
X147800932Y-67937896D01*
X147764850Y-67885249D01*
X147746381Y-67846747D01*
X147735333Y-67809944D01*
X147727105Y-67760330D01*
X147720669Y-67688263D01*
X147714021Y-67597495D01*
X147712752Y-67583676D01*
X147701588Y-67482702D01*
X147697389Y-67454555D01*
X147689089Y-67410449D01*
X147930300Y-67410449D01*
X147930300Y-67563111D01*
X147960083Y-67712839D01*
X148018504Y-67853880D01*
X148103318Y-67980814D01*
X148211266Y-68088762D01*
X148338200Y-68173576D01*
X148479241Y-68231997D01*
X148628969Y-68261780D01*
X148781631Y-68261780D01*
X148931359Y-68231997D01*
X149072400Y-68173576D01*
X149199334Y-68088762D01*
X149307282Y-67980814D01*
X149392096Y-67853880D01*
X149450517Y-67712839D01*
X149480300Y-67563111D01*
X149480300Y-67471337D01*
X149675455Y-67471337D01*
X149692230Y-67672548D01*
X149747938Y-67866619D01*
X149840436Y-68046092D01*
X149857596Y-68071772D01*
X150034700Y-68122025D01*
X150669945Y-67486780D01*
X150034700Y-66851535D01*
X149857596Y-66901788D01*
X149759758Y-67078408D01*
X149698256Y-67270721D01*
X149675455Y-67471337D01*
X149480300Y-67471337D01*
X149480300Y-67410449D01*
X149450517Y-67260721D01*
X149392096Y-67119680D01*
X149307282Y-66992746D01*
X149199334Y-66884798D01*
X149096640Y-66816180D01*
X150070055Y-66816180D01*
X150705300Y-67451425D01*
X151340545Y-66816180D01*
X151290292Y-66639076D01*
X151113672Y-66541238D01*
X150921359Y-66479736D01*
X150720743Y-66456935D01*
X150519532Y-66473710D01*
X150325461Y-66529418D01*
X150145988Y-66621916D01*
X150120308Y-66639076D01*
X150070055Y-66816180D01*
X149096640Y-66816180D01*
X149072400Y-66799984D01*
X148931359Y-66741563D01*
X148781631Y-66711780D01*
X148628969Y-66711780D01*
X148479241Y-66741563D01*
X148338200Y-66799984D01*
X148211266Y-66884798D01*
X148103318Y-66992746D01*
X148018504Y-67119680D01*
X147960083Y-67260721D01*
X147930300Y-67410449D01*
X147689089Y-67410449D01*
X147676536Y-67343752D01*
X147668012Y-67308129D01*
X147654969Y-67263401D01*
X147642832Y-67202383D01*
X147569334Y-67024944D01*
X147462632Y-66865253D01*
X147326827Y-66729448D01*
X147167136Y-66622746D01*
X146989697Y-66549248D01*
X146801329Y-66511780D01*
X146609271Y-66511780D01*
X146420903Y-66549248D01*
X146243464Y-66622746D01*
X146083773Y-66729448D01*
X145947968Y-66865253D01*
X145841266Y-67024944D01*
X145767768Y-67202383D01*
X145730300Y-67390751D01*
X145730300Y-67582809D01*
X145767768Y-67771177D01*
X145841266Y-67948616D01*
X145947968Y-68108307D01*
X146083773Y-68244112D01*
X146243464Y-68350814D01*
X146420903Y-68424312D01*
X146481921Y-68436449D01*
X146526649Y-68449492D01*
X146562272Y-68458016D01*
X146673075Y-68478869D01*
X146701222Y-68483068D01*
X146802196Y-68494232D01*
X146816015Y-68495501D01*
X146906783Y-68502149D01*
X146978850Y-68508585D01*
X147028464Y-68516813D01*
X147065267Y-68527861D01*
X147103769Y-68546330D01*
X147156416Y-68582412D01*
X147235715Y-68653591D01*
X147248460Y-68666336D01*
X147248460Y-68677085D01*
X147167136Y-68622746D01*
X146989697Y-68549248D01*
X146801329Y-68511780D01*
X146609271Y-68511780D01*
X146420903Y-68549248D01*
X146243464Y-68622746D01*
X146083773Y-68729448D01*
X145947968Y-68865253D01*
X145841266Y-69024944D01*
X145767768Y-69202383D01*
X145730300Y-69390751D01*
X145730300Y-69582809D01*
X145767768Y-69771177D01*
X145841266Y-69948616D01*
X145947968Y-70108307D01*
X146083773Y-70244112D01*
X146243464Y-70350814D01*
X146420903Y-70424312D01*
X146609271Y-70461780D01*
X146801329Y-70461780D01*
X146989697Y-70424312D01*
X147167136Y-70350814D01*
X147251060Y-70294738D01*
X147254972Y-70334455D01*
X147280703Y-70419280D01*
X147322489Y-70497456D01*
X147364632Y-70548807D01*
X147364637Y-70548812D01*
X147378724Y-70565977D01*
X147395889Y-70580064D01*
X148769920Y-71954096D01*
X148769921Y-72791069D01*
X148730484Y-72758704D01*
X148648049Y-72714641D01*
X148558602Y-72687508D01*
X148465580Y-72678346D01*
X147190580Y-72678346D01*
X147097558Y-72687508D01*
X147008111Y-72714641D01*
X146925676Y-72758704D01*
X146853422Y-72818002D01*
X146848173Y-72824398D01*
X146927478Y-72632937D01*
X146982240Y-72357630D01*
X146982240Y-72076930D01*
X146927478Y-71801623D01*
X146820059Y-71542289D01*
X146664110Y-71308895D01*
X146465625Y-71110410D01*
X146232231Y-70954461D01*
X145972897Y-70847042D01*
X145697590Y-70792280D01*
X145416890Y-70792280D01*
X145141583Y-70847042D01*
X144882249Y-70954461D01*
X144648855Y-71110410D01*
X144450370Y-71308895D01*
X144294421Y-71542289D01*
X144187002Y-71801623D01*
X144132240Y-72076930D01*
X143631403Y-72076930D01*
X143631106Y-69390751D01*
X143730300Y-69390751D01*
X143730300Y-69582809D01*
X143767768Y-69771177D01*
X143841266Y-69948616D01*
X143947968Y-70108307D01*
X144083773Y-70244112D01*
X144243464Y-70350814D01*
X144420903Y-70424312D01*
X144609271Y-70461780D01*
X144801329Y-70461780D01*
X144989697Y-70424312D01*
X145167136Y-70350814D01*
X145326827Y-70244112D01*
X145462632Y-70108307D01*
X145569334Y-69948616D01*
X145642832Y-69771177D01*
X145680300Y-69582809D01*
X145680300Y-69390751D01*
X145642832Y-69202383D01*
X145569334Y-69024944D01*
X145462632Y-68865253D01*
X145326827Y-68729448D01*
X145167136Y-68622746D01*
X144989697Y-68549248D01*
X144801329Y-68511780D01*
X144609271Y-68511780D01*
X144420903Y-68549248D01*
X144243464Y-68622746D01*
X144083773Y-68729448D01*
X143947968Y-68865253D01*
X143841266Y-69024944D01*
X143767768Y-69202383D01*
X143730300Y-69390751D01*
X143631106Y-69390751D01*
X143630886Y-67390751D01*
X143730300Y-67390751D01*
X143730300Y-67582809D01*
X143767768Y-67771177D01*
X143841266Y-67948616D01*
X143947968Y-68108307D01*
X144083773Y-68244112D01*
X144243464Y-68350814D01*
X144420903Y-68424312D01*
X144609271Y-68461780D01*
X144801329Y-68461780D01*
X144989697Y-68424312D01*
X145167136Y-68350814D01*
X145326827Y-68244112D01*
X145462632Y-68108307D01*
X145569334Y-67948616D01*
X145642832Y-67771177D01*
X145680300Y-67582809D01*
X145680300Y-67390751D01*
X145642832Y-67202383D01*
X145569334Y-67024944D01*
X145462632Y-66865253D01*
X145326827Y-66729448D01*
X145167136Y-66622746D01*
X144989697Y-66549248D01*
X144801329Y-66511780D01*
X144609271Y-66511780D01*
X144420903Y-66549248D01*
X144243464Y-66622746D01*
X144083773Y-66729448D01*
X143947968Y-66865253D01*
X143841266Y-67024944D01*
X143767768Y-67202383D01*
X143730300Y-67390751D01*
X143630886Y-67390751D01*
X143630346Y-62511780D01*
X157780463Y-62511780D01*
X157788736Y-84150823D01*
G37*
%TD.AperFunction*%
%TD*%
D18*
%TO.N,Net-(C1-Pad1)*%
X155771854Y-76781081D02*
X155771942Y-76782185D01*
X155781334Y-76857946D01*
X155781567Y-76859258D01*
X155796473Y-76923425D01*
X155796879Y-76924808D01*
X155816689Y-76980483D01*
X155817201Y-76981715D01*
X155841303Y-77032003D01*
X155841764Y-77032876D01*
X155869549Y-77080883D01*
X155869805Y-77081305D01*
X155900658Y-77130130D01*
X155933860Y-77182703D01*
X155968762Y-77242042D01*
X156000802Y-77303580D01*
X155656280Y-77661840D01*
X155311758Y-77303580D01*
X155343797Y-77242042D01*
X155378699Y-77182703D01*
X155411899Y-77130133D01*
X155442754Y-77081305D01*
X155443010Y-77080883D01*
X155470795Y-77032876D01*
X155471256Y-77032003D01*
X155495358Y-76981715D01*
X155495870Y-76980483D01*
X155515680Y-76924808D01*
X155516086Y-76923425D01*
X155530992Y-76859258D01*
X155531225Y-76857946D01*
X155540617Y-76782185D01*
X155540705Y-76781081D01*
X155543530Y-76702862D01*
X155769030Y-76702862D01*
X155771854Y-76781081D01*
%TA.AperFunction,Conductor*%
D17*
G36*
X155771854Y-76781081D02*
G01*
X155771942Y-76782185D01*
X155781334Y-76857946D01*
X155781567Y-76859258D01*
X155796473Y-76923425D01*
X155796879Y-76924808D01*
X155816689Y-76980483D01*
X155817201Y-76981715D01*
X155841303Y-77032003D01*
X155841764Y-77032876D01*
X155869549Y-77080883D01*
X155869805Y-77081305D01*
X155900658Y-77130130D01*
X155933860Y-77182703D01*
X155968762Y-77242042D01*
X156000802Y-77303580D01*
X155656280Y-77661840D01*
X155311758Y-77303580D01*
X155343797Y-77242042D01*
X155378699Y-77182703D01*
X155411899Y-77130133D01*
X155442754Y-77081305D01*
X155443010Y-77080883D01*
X155470795Y-77032876D01*
X155471256Y-77032003D01*
X155495358Y-76981715D01*
X155495870Y-76980483D01*
X155515680Y-76924808D01*
X155516086Y-76923425D01*
X155530992Y-76859258D01*
X155531225Y-76857946D01*
X155540617Y-76782185D01*
X155540705Y-76781081D01*
X155543530Y-76702862D01*
X155769030Y-76702862D01*
X155771854Y-76781081D01*
G37*
%TD.AperFunction*%
%TD*%
D18*
%TO.N,Net-(C1-Pad1)*%
X156000802Y-77656744D02*
X155968762Y-77718280D01*
X155933860Y-77777620D01*
X155900660Y-77830190D01*
X155869805Y-77879018D01*
X155869549Y-77879440D01*
X155841764Y-77927447D01*
X155841303Y-77928320D01*
X155817201Y-77978608D01*
X155816689Y-77979840D01*
X155796879Y-78035515D01*
X155796473Y-78036898D01*
X155781567Y-78101065D01*
X155781334Y-78102377D01*
X155771942Y-78178138D01*
X155771854Y-78179242D01*
X155769030Y-78257462D01*
X155543530Y-78257462D01*
X155540705Y-78179242D01*
X155540617Y-78178138D01*
X155531225Y-78102377D01*
X155530992Y-78101065D01*
X155516086Y-78036898D01*
X155515680Y-78035515D01*
X155495870Y-77979840D01*
X155495358Y-77978608D01*
X155471256Y-77928320D01*
X155470795Y-77927447D01*
X155443010Y-77879440D01*
X155442754Y-77879018D01*
X155411899Y-77830190D01*
X155378699Y-77777620D01*
X155343797Y-77718281D01*
X155311758Y-77656744D01*
X155656280Y-77298484D01*
X156000802Y-77656744D01*
%TA.AperFunction,Conductor*%
D17*
G36*
X156000802Y-77656744D02*
G01*
X155968762Y-77718280D01*
X155933860Y-77777620D01*
X155900660Y-77830190D01*
X155869805Y-77879018D01*
X155869549Y-77879440D01*
X155841764Y-77927447D01*
X155841303Y-77928320D01*
X155817201Y-77978608D01*
X155816689Y-77979840D01*
X155796879Y-78035515D01*
X155796473Y-78036898D01*
X155781567Y-78101065D01*
X155781334Y-78102377D01*
X155771942Y-78178138D01*
X155771854Y-78179242D01*
X155769030Y-78257462D01*
X155543530Y-78257462D01*
X155540705Y-78179242D01*
X155540617Y-78178138D01*
X155531225Y-78102377D01*
X155530992Y-78101065D01*
X155516086Y-78036898D01*
X155515680Y-78035515D01*
X155495870Y-77979840D01*
X155495358Y-77978608D01*
X155471256Y-77928320D01*
X155470795Y-77927447D01*
X155443010Y-77879440D01*
X155442754Y-77879018D01*
X155411899Y-77830190D01*
X155378699Y-77777620D01*
X155343797Y-77718281D01*
X155311758Y-77656744D01*
X155656280Y-77298484D01*
X156000802Y-77656744D01*
G37*
%TD.AperFunction*%
%TD*%
D18*
%TO.N,Net-(C1-Pad1)*%
X146016220Y-77673624D02*
X145983637Y-77732068D01*
X145948001Y-77788591D01*
X145914051Y-77838724D01*
X145882498Y-77885316D01*
X145882216Y-77885751D01*
X145853797Y-77931646D01*
X145853288Y-77932548D01*
X145828631Y-77980751D01*
X145828061Y-77982037D01*
X145807792Y-78035554D01*
X145807339Y-78037010D01*
X145792085Y-78098846D01*
X145791823Y-78100234D01*
X145782211Y-78173395D01*
X145782112Y-78174564D01*
X145779236Y-78249840D01*
X145553696Y-78249840D01*
X145550820Y-78172626D01*
X145550727Y-78171494D01*
X145541196Y-78096674D01*
X145540954Y-78095344D01*
X145525914Y-78032031D01*
X145525501Y-78030647D01*
X145505641Y-77975726D01*
X145505133Y-77974520D01*
X145481146Y-77924876D01*
X145480708Y-77924049D01*
X145453283Y-77876566D01*
X145453066Y-77876203D01*
X145422894Y-77827768D01*
X145390824Y-77775522D01*
X145357543Y-77716390D01*
X145327456Y-77654945D01*
X145681543Y-77306169D01*
X146016220Y-77673624D01*
%TA.AperFunction,Conductor*%
D17*
G36*
X146016220Y-77673624D02*
G01*
X145983637Y-77732068D01*
X145948001Y-77788591D01*
X145914051Y-77838724D01*
X145882498Y-77885316D01*
X145882216Y-77885751D01*
X145853797Y-77931646D01*
X145853288Y-77932548D01*
X145828631Y-77980751D01*
X145828061Y-77982037D01*
X145807792Y-78035554D01*
X145807339Y-78037010D01*
X145792085Y-78098846D01*
X145791823Y-78100234D01*
X145782211Y-78173395D01*
X145782112Y-78174564D01*
X145779236Y-78249840D01*
X145553696Y-78249840D01*
X145550820Y-78172626D01*
X145550727Y-78171494D01*
X145541196Y-78096674D01*
X145540954Y-78095344D01*
X145525914Y-78032031D01*
X145525501Y-78030647D01*
X145505641Y-77975726D01*
X145505133Y-77974520D01*
X145481146Y-77924876D01*
X145480708Y-77924049D01*
X145453283Y-77876566D01*
X145453066Y-77876203D01*
X145422894Y-77827768D01*
X145390824Y-77775522D01*
X145357543Y-77716390D01*
X145327456Y-77654945D01*
X145681543Y-77306169D01*
X146016220Y-77673624D01*
G37*
%TD.AperFunction*%
%TD*%
D18*
%TO.N,Net-(C1-Pad1)*%
X145782002Y-76778847D02*
X145782088Y-76779940D01*
X145791423Y-76856157D01*
X145791653Y-76857465D01*
X145806536Y-76922046D01*
X145806943Y-76923441D01*
X145826823Y-76979468D01*
X145827348Y-76980727D01*
X145851672Y-77031281D01*
X145852158Y-77032195D01*
X145880375Y-77080360D01*
X145880665Y-77080830D01*
X145912221Y-77129688D01*
X145912253Y-77129738D01*
X145946513Y-77182239D01*
X145982830Y-77241299D01*
X146016562Y-77302502D01*
X145681229Y-77669399D01*
X145327723Y-77319989D01*
X145358949Y-77255954D01*
X145392922Y-77194362D01*
X145425259Y-77139843D01*
X145455351Y-77089251D01*
X145455582Y-77088847D01*
X145482705Y-77039194D01*
X145483124Y-77038354D01*
X145506674Y-76986455D01*
X145507141Y-76985272D01*
X145526511Y-76927943D01*
X145526879Y-76926621D01*
X145541465Y-76860677D01*
X145541677Y-76859426D01*
X145550872Y-76781681D01*
X145550952Y-76780627D01*
X145553729Y-76700160D01*
X145779204Y-76700160D01*
X145782002Y-76778847D01*
%TA.AperFunction,Conductor*%
D17*
G36*
X145782002Y-76778847D02*
G01*
X145782088Y-76779940D01*
X145791423Y-76856157D01*
X145791653Y-76857465D01*
X145806536Y-76922046D01*
X145806943Y-76923441D01*
X145826823Y-76979468D01*
X145827348Y-76980727D01*
X145851672Y-77031281D01*
X145852158Y-77032195D01*
X145880375Y-77080360D01*
X145880665Y-77080830D01*
X145912221Y-77129688D01*
X145912253Y-77129738D01*
X145946513Y-77182239D01*
X145982830Y-77241299D01*
X146016562Y-77302502D01*
X145681229Y-77669399D01*
X145327723Y-77319989D01*
X145358949Y-77255954D01*
X145392922Y-77194362D01*
X145425259Y-77139843D01*
X145455351Y-77089251D01*
X145455582Y-77088847D01*
X145482705Y-77039194D01*
X145483124Y-77038354D01*
X145506674Y-76986455D01*
X145507141Y-76985272D01*
X145526511Y-76927943D01*
X145526879Y-76926621D01*
X145541465Y-76860677D01*
X145541677Y-76859426D01*
X145550872Y-76781681D01*
X145550952Y-76780627D01*
X145553729Y-76700160D01*
X145779204Y-76700160D01*
X145782002Y-76778847D01*
G37*
%TD.AperFunction*%
%TD*%
D18*
%TO.N,Net-(P1-Pad6)*%
X150291374Y-80695417D02*
X150242774Y-80710303D01*
X150191730Y-80722164D01*
X150145003Y-80730672D01*
X150101530Y-80737956D01*
X150101148Y-80738026D01*
X150059669Y-80746288D01*
X150058713Y-80746517D01*
X150018068Y-80757942D01*
X150016701Y-80758412D01*
X149975592Y-80775211D01*
X149974118Y-80775927D01*
X149931244Y-80800309D01*
X149929942Y-80801159D01*
X149884003Y-80835335D01*
X149882994Y-80836170D01*
X149841656Y-80874120D01*
X149752800Y-80785264D01*
X149790750Y-80743925D01*
X149791584Y-80742916D01*
X149825760Y-80696977D01*
X149826610Y-80695675D01*
X149850992Y-80652801D01*
X149851708Y-80651327D01*
X149868507Y-80610218D01*
X149868977Y-80608851D01*
X149880402Y-80568206D01*
X149880631Y-80567250D01*
X149888893Y-80525771D01*
X149888963Y-80525389D01*
X149896247Y-80481916D01*
X149904755Y-80435189D01*
X149916615Y-80384150D01*
X149931503Y-80335546D01*
X150298550Y-80328370D01*
X150291374Y-80695417D01*
%TA.AperFunction,Conductor*%
D17*
G36*
X150291374Y-80695417D02*
G01*
X150242774Y-80710303D01*
X150191730Y-80722164D01*
X150145003Y-80730672D01*
X150101530Y-80737956D01*
X150101148Y-80738026D01*
X150059669Y-80746288D01*
X150058713Y-80746517D01*
X150018068Y-80757942D01*
X150016701Y-80758412D01*
X149975592Y-80775211D01*
X149974118Y-80775927D01*
X149931244Y-80800309D01*
X149929942Y-80801159D01*
X149884003Y-80835335D01*
X149882994Y-80836170D01*
X149841656Y-80874120D01*
X149752800Y-80785264D01*
X149790750Y-80743925D01*
X149791584Y-80742916D01*
X149825760Y-80696977D01*
X149826610Y-80695675D01*
X149850992Y-80652801D01*
X149851708Y-80651327D01*
X149868507Y-80610218D01*
X149868977Y-80608851D01*
X149880402Y-80568206D01*
X149880631Y-80567250D01*
X149888893Y-80525771D01*
X149888963Y-80525389D01*
X149896247Y-80481916D01*
X149904755Y-80435189D01*
X149916615Y-80384150D01*
X149931503Y-80335546D01*
X150298550Y-80328370D01*
X150291374Y-80695417D01*
G37*
%TD.AperFunction*%
%TD*%
D18*
%TO.N,Net-(P1-Pad1)*%
X156889689Y-70043971D02*
X156776015Y-70077119D01*
X156666290Y-70097769D01*
X156566031Y-70108854D01*
X156472516Y-70115703D01*
X156472314Y-70115719D01*
X156383186Y-70123679D01*
X156382238Y-70123800D01*
X156295128Y-70138247D01*
X156293555Y-70138612D01*
X156205859Y-70164937D01*
X156204017Y-70165650D01*
X156113133Y-70209246D01*
X156111446Y-70210221D01*
X156014769Y-70276480D01*
X156013466Y-70277505D01*
X155917347Y-70363781D01*
X155828298Y-70274732D01*
X155914574Y-70178613D01*
X155915599Y-70177310D01*
X155981858Y-70080633D01*
X155982833Y-70078946D01*
X156026429Y-69988062D01*
X156027142Y-69986220D01*
X156053467Y-69898524D01*
X156053832Y-69896951D01*
X156068279Y-69809841D01*
X156068400Y-69808893D01*
X156076360Y-69719765D01*
X156076376Y-69719563D01*
X156083225Y-69626048D01*
X156094310Y-69525789D01*
X156114960Y-69416064D01*
X156148109Y-69302391D01*
X156904476Y-69287604D01*
X156889689Y-70043971D01*
%TA.AperFunction,Conductor*%
D17*
G36*
X156889689Y-70043971D02*
G01*
X156776015Y-70077119D01*
X156666290Y-70097769D01*
X156566031Y-70108854D01*
X156472516Y-70115703D01*
X156472314Y-70115719D01*
X156383186Y-70123679D01*
X156382238Y-70123800D01*
X156295128Y-70138247D01*
X156293555Y-70138612D01*
X156205859Y-70164937D01*
X156204017Y-70165650D01*
X156113133Y-70209246D01*
X156111446Y-70210221D01*
X156014769Y-70276480D01*
X156013466Y-70277505D01*
X155917347Y-70363781D01*
X155828298Y-70274732D01*
X155914574Y-70178613D01*
X155915599Y-70177310D01*
X155981858Y-70080633D01*
X155982833Y-70078946D01*
X156026429Y-69988062D01*
X156027142Y-69986220D01*
X156053467Y-69898524D01*
X156053832Y-69896951D01*
X156068279Y-69809841D01*
X156068400Y-69808893D01*
X156076360Y-69719765D01*
X156076376Y-69719563D01*
X156083225Y-69626048D01*
X156094310Y-69525789D01*
X156114960Y-69416064D01*
X156148109Y-69302391D01*
X156904476Y-69287604D01*
X156889689Y-70043971D01*
G37*
%TD.AperFunction*%
%TD*%
D18*
%TO.N,Net-(P1-Pad2)*%
X155113638Y-69908993D02*
X155035305Y-69987136D01*
X154962518Y-70059361D01*
X154898805Y-70122247D01*
X154840726Y-70179322D01*
X154784887Y-70234070D01*
X154784885Y-70234071D01*
X154727839Y-70290024D01*
X154727826Y-70290037D01*
X154666159Y-70350701D01*
X154666139Y-70350721D01*
X154596425Y-70419607D01*
X154596402Y-70419630D01*
X154515218Y-70500253D01*
X154515196Y-70500274D01*
X154428097Y-70587187D01*
X154339201Y-70498291D01*
X154397216Y-70428635D01*
X154398848Y-70426123D01*
X154435392Y-70352000D01*
X154436531Y-70348453D01*
X154448264Y-70277404D01*
X154448328Y-70273700D01*
X154439328Y-70204358D01*
X154438638Y-70201567D01*
X154412983Y-70132566D01*
X154412226Y-70130907D01*
X154373996Y-70060878D01*
X154373521Y-70060078D01*
X154326795Y-69987656D01*
X154326667Y-69987462D01*
X154275620Y-69911424D01*
X154224449Y-69830607D01*
X154181342Y-69751329D01*
X154702328Y-69207698D01*
X155113638Y-69908993D01*
%TA.AperFunction,Conductor*%
D17*
G36*
X155113638Y-69908993D02*
G01*
X155035305Y-69987136D01*
X154962518Y-70059361D01*
X154898805Y-70122247D01*
X154840726Y-70179322D01*
X154784887Y-70234070D01*
X154784885Y-70234071D01*
X154727839Y-70290024D01*
X154727826Y-70290037D01*
X154666159Y-70350701D01*
X154666139Y-70350721D01*
X154596425Y-70419607D01*
X154596402Y-70419630D01*
X154515218Y-70500253D01*
X154515196Y-70500274D01*
X154428097Y-70587187D01*
X154339201Y-70498291D01*
X154397216Y-70428635D01*
X154398848Y-70426123D01*
X154435392Y-70352000D01*
X154436531Y-70348453D01*
X154448264Y-70277404D01*
X154448328Y-70273700D01*
X154439328Y-70204358D01*
X154438638Y-70201567D01*
X154412983Y-70132566D01*
X154412226Y-70130907D01*
X154373996Y-70060878D01*
X154373521Y-70060078D01*
X154326795Y-69987656D01*
X154326667Y-69987462D01*
X154275620Y-69911424D01*
X154224449Y-69830607D01*
X154181342Y-69751329D01*
X154702328Y-69207698D01*
X155113638Y-69908993D01*
G37*
%TD.AperFunction*%
%TD*%
D18*
%TO.N,Net-(P1-Pad5)*%
X151073692Y-76959077D02*
X151025092Y-76973963D01*
X150974048Y-76985824D01*
X150927321Y-76994332D01*
X150883848Y-77001616D01*
X150883466Y-77001686D01*
X150841987Y-77009948D01*
X150841031Y-77010177D01*
X150800386Y-77021602D01*
X150799019Y-77022072D01*
X150757910Y-77038871D01*
X150756436Y-77039587D01*
X150713562Y-77063969D01*
X150712260Y-77064819D01*
X150666321Y-77098995D01*
X150665312Y-77099830D01*
X150623974Y-77137780D01*
X150535118Y-77048924D01*
X150573068Y-77007585D01*
X150573902Y-77006576D01*
X150608078Y-76960637D01*
X150608928Y-76959335D01*
X150633310Y-76916461D01*
X150634026Y-76914987D01*
X150650825Y-76873878D01*
X150651295Y-76872511D01*
X150662720Y-76831866D01*
X150662949Y-76830910D01*
X150671211Y-76789431D01*
X150671281Y-76789049D01*
X150678565Y-76745576D01*
X150687073Y-76698849D01*
X150698933Y-76647810D01*
X150713821Y-76599206D01*
X151080868Y-76592030D01*
X151073692Y-76959077D01*
%TA.AperFunction,Conductor*%
D17*
G36*
X151073692Y-76959077D02*
G01*
X151025092Y-76973963D01*
X150974048Y-76985824D01*
X150927321Y-76994332D01*
X150883848Y-77001616D01*
X150883466Y-77001686D01*
X150841987Y-77009948D01*
X150841031Y-77010177D01*
X150800386Y-77021602D01*
X150799019Y-77022072D01*
X150757910Y-77038871D01*
X150756436Y-77039587D01*
X150713562Y-77063969D01*
X150712260Y-77064819D01*
X150666321Y-77098995D01*
X150665312Y-77099830D01*
X150623974Y-77137780D01*
X150535118Y-77048924D01*
X150573068Y-77007585D01*
X150573902Y-77006576D01*
X150608078Y-76960637D01*
X150608928Y-76959335D01*
X150633310Y-76916461D01*
X150634026Y-76914987D01*
X150650825Y-76873878D01*
X150651295Y-76872511D01*
X150662720Y-76831866D01*
X150662949Y-76830910D01*
X150671211Y-76789431D01*
X150671281Y-76789049D01*
X150678565Y-76745576D01*
X150687073Y-76698849D01*
X150698933Y-76647810D01*
X150713821Y-76599206D01*
X151080868Y-76592030D01*
X151073692Y-76959077D01*
G37*
%TD.AperFunction*%
%TD*%
D18*
%TO.N,Net-(P1-Pad3)*%
X153051298Y-69960844D02*
X152944190Y-70033155D01*
X152839687Y-70088194D01*
X152742336Y-70127488D01*
X152649455Y-70157354D01*
X152558531Y-70184053D01*
X152558168Y-70184166D01*
X152467121Y-70213889D01*
X152466169Y-70214242D01*
X152372698Y-70253264D01*
X152371423Y-70253882D01*
X152273094Y-70308514D01*
X152271809Y-70309333D01*
X152166189Y-70385890D01*
X152165102Y-70386773D01*
X152058718Y-70483428D01*
X151969676Y-70394386D01*
X152046071Y-70308373D01*
X152047208Y-70306885D01*
X152104786Y-70218752D01*
X152105865Y-70216720D01*
X152140963Y-70133085D01*
X152141687Y-70130751D01*
X152158590Y-70049281D01*
X152158846Y-70047166D01*
X152161840Y-69965528D01*
X152161810Y-69964065D01*
X152155180Y-69879925D01*
X152155106Y-69879230D01*
X152143136Y-69790257D01*
X152143134Y-69790245D01*
X152130149Y-69694375D01*
X152120426Y-69589462D01*
X152118343Y-69481706D01*
X152833998Y-69236223D01*
X153051298Y-69960844D01*
%TA.AperFunction,Conductor*%
D17*
G36*
X153051298Y-69960844D02*
G01*
X152944190Y-70033155D01*
X152839687Y-70088194D01*
X152742336Y-70127488D01*
X152649455Y-70157354D01*
X152558531Y-70184053D01*
X152558168Y-70184166D01*
X152467121Y-70213889D01*
X152466169Y-70214242D01*
X152372698Y-70253264D01*
X152371423Y-70253882D01*
X152273094Y-70308514D01*
X152271809Y-70309333D01*
X152166189Y-70385890D01*
X152165102Y-70386773D01*
X152058718Y-70483428D01*
X151969676Y-70394386D01*
X152046071Y-70308373D01*
X152047208Y-70306885D01*
X152104786Y-70218752D01*
X152105865Y-70216720D01*
X152140963Y-70133085D01*
X152141687Y-70130751D01*
X152158590Y-70049281D01*
X152158846Y-70047166D01*
X152161840Y-69965528D01*
X152161810Y-69964065D01*
X152155180Y-69879925D01*
X152155106Y-69879230D01*
X152143136Y-69790257D01*
X152143134Y-69790245D01*
X152130149Y-69694375D01*
X152120426Y-69589462D01*
X152118343Y-69481706D01*
X152833998Y-69236223D01*
X153051298Y-69960844D01*
G37*
%TD.AperFunction*%
%TD*%
D18*
%TO.N,Net-(P1-Pad4)*%
X151113957Y-69909526D02*
X151046562Y-69985784D01*
X151045508Y-69987154D01*
X150993185Y-70065710D01*
X150992338Y-70067188D01*
X150955610Y-70142577D01*
X150955088Y-70143810D01*
X150928386Y-70217456D01*
X150928172Y-70218098D01*
X150905963Y-70291314D01*
X150882743Y-70365334D01*
X150853121Y-70441264D01*
X150811542Y-70520868D01*
X150752373Y-70605873D01*
X150678378Y-70688438D01*
X150589772Y-70599832D01*
X150657491Y-70513809D01*
X150658832Y-70511711D01*
X150659557Y-70509980D01*
X150688277Y-70424070D01*
X150688831Y-70421642D01*
X150688840Y-70418515D01*
X150679204Y-70339015D01*
X150678663Y-70336585D01*
X150677800Y-70334564D01*
X150637429Y-70258913D01*
X150635884Y-70256646D01*
X150572398Y-70182280D01*
X150571523Y-70181354D01*
X150492542Y-70105713D01*
X150492332Y-70105516D01*
X150405650Y-70026193D01*
X150319137Y-69940899D01*
X150240398Y-69847249D01*
X150181235Y-69750065D01*
X150702823Y-69207677D01*
X151113957Y-69909526D01*
%TA.AperFunction,Conductor*%
D17*
G36*
X151113957Y-69909526D02*
G01*
X151046562Y-69985784D01*
X151045508Y-69987154D01*
X150993185Y-70065710D01*
X150992338Y-70067188D01*
X150955610Y-70142577D01*
X150955088Y-70143810D01*
X150928386Y-70217456D01*
X150928172Y-70218098D01*
X150905963Y-70291314D01*
X150882743Y-70365334D01*
X150853121Y-70441264D01*
X150811542Y-70520868D01*
X150752373Y-70605873D01*
X150678378Y-70688438D01*
X150589772Y-70599832D01*
X150657491Y-70513809D01*
X150658832Y-70511711D01*
X150659557Y-70509980D01*
X150688277Y-70424070D01*
X150688831Y-70421642D01*
X150688840Y-70418515D01*
X150679204Y-70339015D01*
X150678663Y-70336585D01*
X150677800Y-70334564D01*
X150637429Y-70258913D01*
X150635884Y-70256646D01*
X150572398Y-70182280D01*
X150571523Y-70181354D01*
X150492542Y-70105713D01*
X150492332Y-70105516D01*
X150405650Y-70026193D01*
X150319137Y-69940899D01*
X150240398Y-69847249D01*
X150181235Y-69750065D01*
X150702823Y-69207677D01*
X151113957Y-69909526D01*
G37*
%TD.AperFunction*%
%TD*%
D18*
%TO.N,Net-(P1-Pad13)*%
X147262491Y-67302391D02*
X147295639Y-67416064D01*
X147316289Y-67525789D01*
X147327374Y-67626048D01*
X147334223Y-67719563D01*
X147334239Y-67719765D01*
X147342199Y-67808893D01*
X147342320Y-67809841D01*
X147356767Y-67896951D01*
X147357132Y-67898524D01*
X147383457Y-67986220D01*
X147384170Y-67988062D01*
X147427766Y-68078946D01*
X147428741Y-68080633D01*
X147495000Y-68177310D01*
X147496025Y-68178613D01*
X147582301Y-68274733D01*
X147493253Y-68363781D01*
X147397133Y-68277505D01*
X147395830Y-68276480D01*
X147299153Y-68210221D01*
X147297466Y-68209246D01*
X147206582Y-68165650D01*
X147204740Y-68164937D01*
X147117044Y-68138612D01*
X147115471Y-68138247D01*
X147028361Y-68123800D01*
X147027413Y-68123679D01*
X146938285Y-68115719D01*
X146938083Y-68115703D01*
X146844568Y-68108854D01*
X146744309Y-68097769D01*
X146634584Y-68077119D01*
X146520911Y-68043971D01*
X146506124Y-67287604D01*
X147262491Y-67302391D01*
%TA.AperFunction,Conductor*%
D17*
G36*
X147262491Y-67302391D02*
G01*
X147295639Y-67416064D01*
X147316289Y-67525789D01*
X147327374Y-67626048D01*
X147334223Y-67719563D01*
X147334239Y-67719765D01*
X147342199Y-67808893D01*
X147342320Y-67809841D01*
X147356767Y-67896951D01*
X147357132Y-67898524D01*
X147383457Y-67986220D01*
X147384170Y-67988062D01*
X147427766Y-68078946D01*
X147428741Y-68080633D01*
X147495000Y-68177310D01*
X147496025Y-68178613D01*
X147582301Y-68274733D01*
X147493253Y-68363781D01*
X147397133Y-68277505D01*
X147395830Y-68276480D01*
X147299153Y-68210221D01*
X147297466Y-68209246D01*
X147206582Y-68165650D01*
X147204740Y-68164937D01*
X147117044Y-68138612D01*
X147115471Y-68138247D01*
X147028361Y-68123800D01*
X147027413Y-68123679D01*
X146938285Y-68115719D01*
X146938083Y-68115703D01*
X146844568Y-68108854D01*
X146744309Y-68097769D01*
X146634584Y-68077119D01*
X146520911Y-68043971D01*
X146506124Y-67287604D01*
X147262491Y-67302391D01*
G37*
%TD.AperFunction*%
%TD*%
D18*
%TO.N,Net-(P1-Pad10)*%
X153274870Y-67345075D02*
X153299503Y-67460188D01*
X153313006Y-67571120D01*
X153318642Y-67672213D01*
X153321474Y-67766151D01*
X153321489Y-67766497D01*
X153326615Y-67855651D01*
X153326724Y-67856737D01*
X153339264Y-67943591D01*
X153339629Y-67945286D01*
X153364705Y-68032480D01*
X153365433Y-68034409D01*
X153408167Y-68124585D01*
X153409161Y-68126315D01*
X153474675Y-68222115D01*
X153475707Y-68223430D01*
X153561087Y-68318539D01*
X153472062Y-68407564D01*
X153371996Y-68317254D01*
X153370777Y-68316283D01*
X153270744Y-68246161D01*
X153269194Y-68245231D01*
X153175478Y-68197744D01*
X153173810Y-68197043D01*
X153083738Y-68166556D01*
X153082331Y-68166169D01*
X152993229Y-68147045D01*
X152992418Y-68146898D01*
X152901616Y-68133501D01*
X152901520Y-68133487D01*
X152806600Y-68120217D01*
X152705164Y-68101512D01*
X152594309Y-68071772D01*
X152479285Y-68028433D01*
X152521763Y-67273106D01*
X153274870Y-67345075D01*
%TA.AperFunction,Conductor*%
D17*
G36*
X153274870Y-67345075D02*
G01*
X153299503Y-67460188D01*
X153313006Y-67571120D01*
X153318642Y-67672213D01*
X153321474Y-67766151D01*
X153321489Y-67766497D01*
X153326615Y-67855651D01*
X153326724Y-67856737D01*
X153339264Y-67943591D01*
X153339629Y-67945286D01*
X153364705Y-68032480D01*
X153365433Y-68034409D01*
X153408167Y-68124585D01*
X153409161Y-68126315D01*
X153474675Y-68222115D01*
X153475707Y-68223430D01*
X153561087Y-68318539D01*
X153472062Y-68407564D01*
X153371996Y-68317254D01*
X153370777Y-68316283D01*
X153270744Y-68246161D01*
X153269194Y-68245231D01*
X153175478Y-68197744D01*
X153173810Y-68197043D01*
X153083738Y-68166556D01*
X153082331Y-68166169D01*
X152993229Y-68147045D01*
X152992418Y-68146898D01*
X152901616Y-68133501D01*
X152901520Y-68133487D01*
X152806600Y-68120217D01*
X152705164Y-68101512D01*
X152594309Y-68071772D01*
X152479285Y-68028433D01*
X152521763Y-67273106D01*
X153274870Y-67345075D01*
G37*
%TD.AperFunction*%
%TD*%
M02*
