%TF.GenerationSoftware,KiCad,Pcbnew,(5.1.8-0-10_14)*%
%TF.CreationDate,2021-08-04T22:04:29-04:00*%
%TF.ProjectId,MyTPM,4d795450-4d2e-46b6-9963-61645f706362,rev?*%
%TF.SameCoordinates,Original*%
%TF.FileFunction,Paste,Top*%
%TF.FilePolarity,Positive*%
%FSLAX46Y46*%
G04 Gerber Fmt 4.6, Leading zero omitted, Abs format (unit mm)*
G04 Created by KiCad (PCBNEW (5.1.8-0-10_14)) date 2021-08-04 22:04:29*
%MOMM*%
%LPD*%
G01*
G04 APERTURE LIST*
%ADD10R,0.970000X0.920000*%
%ADD11R,0.790000X0.930000*%
G04 APERTURE END LIST*
D10*
%TO.C,C4*%
X145666460Y-75859940D03*
X145666460Y-74309940D03*
%TD*%
%TO.C,U1*%
G36*
G01*
X154290580Y-81605160D02*
X154290580Y-81805160D01*
G75*
G02*
X154190580Y-81905160I-100000J0D01*
G01*
X152915580Y-81905160D01*
G75*
G02*
X152815580Y-81805160I0J100000D01*
G01*
X152815580Y-81605160D01*
G75*
G02*
X152915580Y-81505160I100000J0D01*
G01*
X154190580Y-81505160D01*
G75*
G02*
X154290580Y-81605160I0J-100000D01*
G01*
G37*
G36*
G01*
X154290580Y-80955160D02*
X154290580Y-81155160D01*
G75*
G02*
X154190580Y-81255160I-100000J0D01*
G01*
X152915580Y-81255160D01*
G75*
G02*
X152815580Y-81155160I0J100000D01*
G01*
X152815580Y-80955160D01*
G75*
G02*
X152915580Y-80855160I100000J0D01*
G01*
X154190580Y-80855160D01*
G75*
G02*
X154290580Y-80955160I0J-100000D01*
G01*
G37*
G36*
G01*
X154290580Y-80305160D02*
X154290580Y-80505160D01*
G75*
G02*
X154190580Y-80605160I-100000J0D01*
G01*
X152915580Y-80605160D01*
G75*
G02*
X152815580Y-80505160I0J100000D01*
G01*
X152815580Y-80305160D01*
G75*
G02*
X152915580Y-80205160I100000J0D01*
G01*
X154190580Y-80205160D01*
G75*
G02*
X154290580Y-80305160I0J-100000D01*
G01*
G37*
G36*
G01*
X154290580Y-79655160D02*
X154290580Y-79855160D01*
G75*
G02*
X154190580Y-79955160I-100000J0D01*
G01*
X152915580Y-79955160D01*
G75*
G02*
X152815580Y-79855160I0J100000D01*
G01*
X152815580Y-79655160D01*
G75*
G02*
X152915580Y-79555160I100000J0D01*
G01*
X154190580Y-79555160D01*
G75*
G02*
X154290580Y-79655160I0J-100000D01*
G01*
G37*
G36*
G01*
X154290580Y-79005160D02*
X154290580Y-79205160D01*
G75*
G02*
X154190580Y-79305160I-100000J0D01*
G01*
X152915580Y-79305160D01*
G75*
G02*
X152815580Y-79205160I0J100000D01*
G01*
X152815580Y-79005160D01*
G75*
G02*
X152915580Y-78905160I100000J0D01*
G01*
X154190580Y-78905160D01*
G75*
G02*
X154290580Y-79005160I0J-100000D01*
G01*
G37*
G36*
G01*
X154290580Y-78355160D02*
X154290580Y-78555160D01*
G75*
G02*
X154190580Y-78655160I-100000J0D01*
G01*
X152915580Y-78655160D01*
G75*
G02*
X152815580Y-78555160I0J100000D01*
G01*
X152815580Y-78355160D01*
G75*
G02*
X152915580Y-78255160I100000J0D01*
G01*
X154190580Y-78255160D01*
G75*
G02*
X154290580Y-78355160I0J-100000D01*
G01*
G37*
G36*
G01*
X154290580Y-77705160D02*
X154290580Y-77905160D01*
G75*
G02*
X154190580Y-78005160I-100000J0D01*
G01*
X152915580Y-78005160D01*
G75*
G02*
X152815580Y-77905160I0J100000D01*
G01*
X152815580Y-77705160D01*
G75*
G02*
X152915580Y-77605160I100000J0D01*
G01*
X154190580Y-77605160D01*
G75*
G02*
X154290580Y-77705160I0J-100000D01*
G01*
G37*
G36*
G01*
X154290580Y-77055160D02*
X154290580Y-77255160D01*
G75*
G02*
X154190580Y-77355160I-100000J0D01*
G01*
X152915580Y-77355160D01*
G75*
G02*
X152815580Y-77255160I0J100000D01*
G01*
X152815580Y-77055160D01*
G75*
G02*
X152915580Y-76955160I100000J0D01*
G01*
X154190580Y-76955160D01*
G75*
G02*
X154290580Y-77055160I0J-100000D01*
G01*
G37*
G36*
G01*
X154290580Y-76405160D02*
X154290580Y-76605160D01*
G75*
G02*
X154190580Y-76705160I-100000J0D01*
G01*
X152915580Y-76705160D01*
G75*
G02*
X152815580Y-76605160I0J100000D01*
G01*
X152815580Y-76405160D01*
G75*
G02*
X152915580Y-76305160I100000J0D01*
G01*
X154190580Y-76305160D01*
G75*
G02*
X154290580Y-76405160I0J-100000D01*
G01*
G37*
G36*
G01*
X154290580Y-75755160D02*
X154290580Y-75955160D01*
G75*
G02*
X154190580Y-76055160I-100000J0D01*
G01*
X152915580Y-76055160D01*
G75*
G02*
X152815580Y-75955160I0J100000D01*
G01*
X152815580Y-75755160D01*
G75*
G02*
X152915580Y-75655160I100000J0D01*
G01*
X154190580Y-75655160D01*
G75*
G02*
X154290580Y-75755160I0J-100000D01*
G01*
G37*
G36*
G01*
X154290580Y-75105160D02*
X154290580Y-75305160D01*
G75*
G02*
X154190580Y-75405160I-100000J0D01*
G01*
X152915580Y-75405160D01*
G75*
G02*
X152815580Y-75305160I0J100000D01*
G01*
X152815580Y-75105160D01*
G75*
G02*
X152915580Y-75005160I100000J0D01*
G01*
X154190580Y-75005160D01*
G75*
G02*
X154290580Y-75105160I0J-100000D01*
G01*
G37*
G36*
G01*
X154290580Y-74455160D02*
X154290580Y-74655160D01*
G75*
G02*
X154190580Y-74755160I-100000J0D01*
G01*
X152915580Y-74755160D01*
G75*
G02*
X152815580Y-74655160I0J100000D01*
G01*
X152815580Y-74455160D01*
G75*
G02*
X152915580Y-74355160I100000J0D01*
G01*
X154190580Y-74355160D01*
G75*
G02*
X154290580Y-74455160I0J-100000D01*
G01*
G37*
G36*
G01*
X154290580Y-73805160D02*
X154290580Y-74005160D01*
G75*
G02*
X154190580Y-74105160I-100000J0D01*
G01*
X152915580Y-74105160D01*
G75*
G02*
X152815580Y-74005160I0J100000D01*
G01*
X152815580Y-73805160D01*
G75*
G02*
X152915580Y-73705160I100000J0D01*
G01*
X154190580Y-73705160D01*
G75*
G02*
X154290580Y-73805160I0J-100000D01*
G01*
G37*
G36*
G01*
X154290580Y-73155160D02*
X154290580Y-73355160D01*
G75*
G02*
X154190580Y-73455160I-100000J0D01*
G01*
X152915580Y-73455160D01*
G75*
G02*
X152815580Y-73355160I0J100000D01*
G01*
X152815580Y-73155160D01*
G75*
G02*
X152915580Y-73055160I100000J0D01*
G01*
X154190580Y-73055160D01*
G75*
G02*
X154290580Y-73155160I0J-100000D01*
G01*
G37*
G36*
G01*
X148565580Y-73155160D02*
X148565580Y-73355160D01*
G75*
G02*
X148465580Y-73455160I-100000J0D01*
G01*
X147190580Y-73455160D01*
G75*
G02*
X147090580Y-73355160I0J100000D01*
G01*
X147090580Y-73155160D01*
G75*
G02*
X147190580Y-73055160I100000J0D01*
G01*
X148465580Y-73055160D01*
G75*
G02*
X148565580Y-73155160I0J-100000D01*
G01*
G37*
G36*
G01*
X148565580Y-73805160D02*
X148565580Y-74005160D01*
G75*
G02*
X148465580Y-74105160I-100000J0D01*
G01*
X147190580Y-74105160D01*
G75*
G02*
X147090580Y-74005160I0J100000D01*
G01*
X147090580Y-73805160D01*
G75*
G02*
X147190580Y-73705160I100000J0D01*
G01*
X148465580Y-73705160D01*
G75*
G02*
X148565580Y-73805160I0J-100000D01*
G01*
G37*
G36*
G01*
X148565580Y-74455160D02*
X148565580Y-74655160D01*
G75*
G02*
X148465580Y-74755160I-100000J0D01*
G01*
X147190580Y-74755160D01*
G75*
G02*
X147090580Y-74655160I0J100000D01*
G01*
X147090580Y-74455160D01*
G75*
G02*
X147190580Y-74355160I100000J0D01*
G01*
X148465580Y-74355160D01*
G75*
G02*
X148565580Y-74455160I0J-100000D01*
G01*
G37*
G36*
G01*
X148565580Y-75105160D02*
X148565580Y-75305160D01*
G75*
G02*
X148465580Y-75405160I-100000J0D01*
G01*
X147190580Y-75405160D01*
G75*
G02*
X147090580Y-75305160I0J100000D01*
G01*
X147090580Y-75105160D01*
G75*
G02*
X147190580Y-75005160I100000J0D01*
G01*
X148465580Y-75005160D01*
G75*
G02*
X148565580Y-75105160I0J-100000D01*
G01*
G37*
G36*
G01*
X148565580Y-75755160D02*
X148565580Y-75955160D01*
G75*
G02*
X148465580Y-76055160I-100000J0D01*
G01*
X147190580Y-76055160D01*
G75*
G02*
X147090580Y-75955160I0J100000D01*
G01*
X147090580Y-75755160D01*
G75*
G02*
X147190580Y-75655160I100000J0D01*
G01*
X148465580Y-75655160D01*
G75*
G02*
X148565580Y-75755160I0J-100000D01*
G01*
G37*
G36*
G01*
X148565580Y-76405160D02*
X148565580Y-76605160D01*
G75*
G02*
X148465580Y-76705160I-100000J0D01*
G01*
X147190580Y-76705160D01*
G75*
G02*
X147090580Y-76605160I0J100000D01*
G01*
X147090580Y-76405160D01*
G75*
G02*
X147190580Y-76305160I100000J0D01*
G01*
X148465580Y-76305160D01*
G75*
G02*
X148565580Y-76405160I0J-100000D01*
G01*
G37*
G36*
G01*
X148565580Y-77055160D02*
X148565580Y-77255160D01*
G75*
G02*
X148465580Y-77355160I-100000J0D01*
G01*
X147190580Y-77355160D01*
G75*
G02*
X147090580Y-77255160I0J100000D01*
G01*
X147090580Y-77055160D01*
G75*
G02*
X147190580Y-76955160I100000J0D01*
G01*
X148465580Y-76955160D01*
G75*
G02*
X148565580Y-77055160I0J-100000D01*
G01*
G37*
G36*
G01*
X148565580Y-77705160D02*
X148565580Y-77905160D01*
G75*
G02*
X148465580Y-78005160I-100000J0D01*
G01*
X147190580Y-78005160D01*
G75*
G02*
X147090580Y-77905160I0J100000D01*
G01*
X147090580Y-77705160D01*
G75*
G02*
X147190580Y-77605160I100000J0D01*
G01*
X148465580Y-77605160D01*
G75*
G02*
X148565580Y-77705160I0J-100000D01*
G01*
G37*
G36*
G01*
X148565580Y-78355160D02*
X148565580Y-78555160D01*
G75*
G02*
X148465580Y-78655160I-100000J0D01*
G01*
X147190580Y-78655160D01*
G75*
G02*
X147090580Y-78555160I0J100000D01*
G01*
X147090580Y-78355160D01*
G75*
G02*
X147190580Y-78255160I100000J0D01*
G01*
X148465580Y-78255160D01*
G75*
G02*
X148565580Y-78355160I0J-100000D01*
G01*
G37*
G36*
G01*
X148565580Y-79005160D02*
X148565580Y-79205160D01*
G75*
G02*
X148465580Y-79305160I-100000J0D01*
G01*
X147190580Y-79305160D01*
G75*
G02*
X147090580Y-79205160I0J100000D01*
G01*
X147090580Y-79005160D01*
G75*
G02*
X147190580Y-78905160I100000J0D01*
G01*
X148465580Y-78905160D01*
G75*
G02*
X148565580Y-79005160I0J-100000D01*
G01*
G37*
G36*
G01*
X148565580Y-79655160D02*
X148565580Y-79855160D01*
G75*
G02*
X148465580Y-79955160I-100000J0D01*
G01*
X147190580Y-79955160D01*
G75*
G02*
X147090580Y-79855160I0J100000D01*
G01*
X147090580Y-79655160D01*
G75*
G02*
X147190580Y-79555160I100000J0D01*
G01*
X148465580Y-79555160D01*
G75*
G02*
X148565580Y-79655160I0J-100000D01*
G01*
G37*
G36*
G01*
X148565580Y-80305160D02*
X148565580Y-80505160D01*
G75*
G02*
X148465580Y-80605160I-100000J0D01*
G01*
X147190580Y-80605160D01*
G75*
G02*
X147090580Y-80505160I0J100000D01*
G01*
X147090580Y-80305160D01*
G75*
G02*
X147190580Y-80205160I100000J0D01*
G01*
X148465580Y-80205160D01*
G75*
G02*
X148565580Y-80305160I0J-100000D01*
G01*
G37*
G36*
G01*
X148565580Y-80955160D02*
X148565580Y-81155160D01*
G75*
G02*
X148465580Y-81255160I-100000J0D01*
G01*
X147190580Y-81255160D01*
G75*
G02*
X147090580Y-81155160I0J100000D01*
G01*
X147090580Y-80955160D01*
G75*
G02*
X147190580Y-80855160I100000J0D01*
G01*
X148465580Y-80855160D01*
G75*
G02*
X148565580Y-80955160I0J-100000D01*
G01*
G37*
G36*
G01*
X148565580Y-81605160D02*
X148565580Y-81805160D01*
G75*
G02*
X148465580Y-81905160I-100000J0D01*
G01*
X147190580Y-81905160D01*
G75*
G02*
X147090580Y-81805160I0J100000D01*
G01*
X147090580Y-81605160D01*
G75*
G02*
X147190580Y-81505160I100000J0D01*
G01*
X148465580Y-81505160D01*
G75*
G02*
X148565580Y-81605160I0J-100000D01*
G01*
G37*
%TD*%
D11*
%TO.C,R2*%
X148036700Y-84046060D03*
X149676700Y-84046060D03*
%TD*%
%TO.C,R1*%
X153141260Y-84046060D03*
X151501260Y-84046060D03*
%TD*%
D10*
%TO.C,C3*%
X145666460Y-79085140D03*
X145666460Y-80635140D03*
%TD*%
%TO.C,C2*%
X155648660Y-75870100D03*
X155648660Y-74320100D03*
%TD*%
%TO.C,C1*%
X155661360Y-79113080D03*
X155661360Y-80663080D03*
%TD*%
M02*
