%TF.GenerationSoftware,KiCad,Pcbnew,8.0.6*%
%TF.CreationDate,2024-11-06T21:45:52-05:00*%
%TF.ProjectId,Asus To Asrock,41737573-2054-46f2-9041-73726f636b2e,rev?*%
%TF.SameCoordinates,Original*%
%TF.FileFunction,Copper,L1,Top*%
%TF.FilePolarity,Positive*%
%FSLAX46Y46*%
G04 Gerber Fmt 4.6, Leading zero omitted, Abs format (unit mm)*
G04 Created by KiCad (PCBNEW 8.0.6) date 2024-11-06 21:45:52*
%MOMM*%
%LPD*%
G01*
G04 APERTURE LIST*
%TA.AperFunction,ComponentPad*%
%ADD10C,1.200000*%
%TD*%
%TA.AperFunction,ViaPad*%
%ADD11C,0.500000*%
%TD*%
%TA.AperFunction,Conductor*%
%ADD12C,0.200000*%
%TD*%
G04 APERTURE END LIST*
D10*
%TO.P,P1,1,F_LAD0*%
%TO.N,Net-(P1-F_LAD0)*%
X167520000Y-97840000D03*
%TO.P,P1,2,F_LAD1*%
%TO.N,Net-(P1-F_LAD1)*%
X165519999Y-97840000D03*
%TO.P,P1,3,F_LAD2*%
%TO.N,Net-(P1-F_LAD2)*%
X163520000Y-97840000D03*
%TO.P,P1,4,F_LAD3*%
%TO.N,Net-(P1-F_LAD3)*%
X161520000Y-97840000D03*
%TO.P,P1,5,F_FRAME#*%
%TO.N,Net-(P1-F_FRAME#)*%
X159520000Y-97840000D03*
%TO.P,P1,6,F_SERIRQ*%
%TO.N,Net-(P1-F_SERIRQ)*%
X157520000Y-97840000D03*
%TO.P,P1,7,F_CLKRUN*%
%TO.N,unconnected-(P1-F_CLKRUN-Pad7)*%
X155520001Y-97840000D03*
%TO.P,P1,8,+3V*%
%TO.N,+3V0*%
X167520000Y-99840001D03*
%TO.P,P1,9,+3V*%
X165520000Y-99840000D03*
%TO.P,P1,10,C_PCICLK_TPM*%
%TO.N,Net-(P1-C_PCICLK_TPM)*%
X163519999Y-99840000D03*
%TO.P,P1,11,GND*%
%TO.N,GND*%
X161520000Y-99840000D03*
%TO.P,P1,13,S_PCIRST#_TBD*%
%TO.N,Net-(P1-S_PCIRST#_TBD)*%
X157520000Y-99840000D03*
%TO.P,P1,14,+3VSB*%
%TO.N,unconnected-(P1-+3VSB-Pad14)*%
X155520000Y-99840000D03*
%TD*%
%TO.P,P2,1,PCICLK*%
%TO.N,Net-(P1-C_PCICLK_TPM)*%
X169520000Y-95340001D03*
%TO.P,P2,2,GND*%
%TO.N,GND*%
X169520000Y-93340000D03*
%TO.P,P2,3,FRAME*%
%TO.N,Net-(P1-F_FRAME#)*%
X167519999Y-95340001D03*
%TO.P,P2,4,SMB_CLK_MAIN*%
%TO.N,unconnected-(P2-SMB_CLK_MAIN-Pad4)*%
X167520000Y-93340001D03*
%TO.P,P2,5,PCIRST#*%
%TO.N,Net-(P1-S_PCIRST#_TBD)*%
X165520000Y-95340001D03*
%TO.P,P2,6,SMB_DATA_MAIN*%
%TO.N,unconnected-(P2-SMB_DATA_MAIN-Pad6)*%
X165519999Y-93340001D03*
%TO.P,P2,7,LAD3*%
%TO.N,Net-(P1-F_LAD3)*%
X163520000Y-95340001D03*
%TO.P,P2,8,LAD2*%
%TO.N,Net-(P1-F_LAD2)*%
X163520000Y-93340001D03*
%TO.P,P2,9,+3V*%
%TO.N,+3V0*%
X161520000Y-95340001D03*
%TO.P,P2,10,LAD1*%
%TO.N,Net-(P1-F_LAD1)*%
X161520000Y-93340001D03*
%TO.P,P2,11,LAD0*%
%TO.N,Net-(P1-F_LAD0)*%
X159520000Y-95340001D03*
%TO.P,P2,12,GND*%
%TO.N,GND*%
X159520000Y-93340001D03*
%TO.P,P2,14,S_PWRDWN#*%
%TO.N,unconnected-(P2-S_PWRDWN#-Pad14)*%
X157520000Y-93340001D03*
%TO.P,P2,15,+3VSB*%
%TO.N,unconnected-(P2-+3VSB-Pad15)*%
X155520000Y-95340001D03*
%TO.P,P2,16,SERIRQ#*%
%TO.N,Net-(P1-F_SERIRQ)*%
X155520001Y-93340001D03*
%TO.P,P2,17,GND*%
%TO.N,GND*%
X153520001Y-95340001D03*
%TO.P,P2,18,GND*%
%TO.N,unconnected-(P2-GND-Pad18)*%
X153520000Y-93340001D03*
%TD*%
D11*
%TO.N,GND*%
X169750000Y-89080000D03*
X153310000Y-101550000D03*
X156530000Y-98850000D03*
X153310000Y-89080000D03*
X161560000Y-96590000D03*
X168520000Y-96590000D03*
X165860000Y-96590000D03*
X164030000Y-96590000D03*
X169750000Y-101550000D03*
X159520000Y-96590000D03*
%TD*%
D12*
%TO.N,Net-(P1-F_LAD2)*%
X163520000Y-93340001D02*
X162783604Y-94076397D01*
X162520000Y-94712793D02*
X162520000Y-96467208D01*
X162783604Y-97103604D02*
X163520000Y-97840000D01*
X162783604Y-94076397D02*
G75*
G03*
X162519995Y-94712793I636396J-636403D01*
G01*
X162783604Y-97103604D02*
G75*
G02*
X162519994Y-96467208I636396J636404D01*
G01*
%TO.N,+3V0*%
X167519999Y-99840000D02*
X167520000Y-99840001D01*
X165520000Y-99840000D02*
X167519999Y-99840000D01*
%TO.N,Net-(P1-F_SERIRQ)*%
X155520001Y-93340001D02*
X156300330Y-94120330D01*
X156520000Y-94650660D02*
X156520000Y-96529340D01*
X156739670Y-97059670D02*
X157520000Y-97840000D01*
X156300330Y-94120330D02*
G75*
G02*
X156520028Y-94650660I-530330J-530370D01*
G01*
X156739670Y-97059670D02*
G75*
G02*
X156519972Y-96529340I530330J530370D01*
G01*
%TO.N,Net-(P1-F_LAD1)*%
X163282793Y-91950000D02*
X165444416Y-91950000D01*
X161520000Y-93340001D02*
X162646397Y-92213604D01*
X166080812Y-92213604D02*
X166256396Y-92389188D01*
X166256396Y-97103603D02*
X165519999Y-97840000D01*
X166520000Y-93025584D02*
X166520000Y-96467207D01*
X166520000Y-96467207D02*
G75*
G02*
X166256393Y-97103600I-900000J7D01*
G01*
X166080812Y-92213604D02*
G75*
G03*
X165444416Y-91949989I-636412J-636396D01*
G01*
X166256396Y-92389188D02*
G75*
G02*
X166520011Y-93025584I-636396J-636412D01*
G01*
X162646397Y-92213604D02*
G75*
G02*
X163282793Y-91949995I636403J-636396D01*
G01*
%TO.N,Net-(P1-C_PCICLK_TPM)*%
X169256396Y-100733604D02*
X168903604Y-101086396D01*
X168267208Y-101350000D02*
X165402791Y-101350000D01*
X169520000Y-95340001D02*
X169520000Y-100097208D01*
X164766395Y-101086396D02*
X163519999Y-99840000D01*
X168267208Y-101350000D02*
G75*
G03*
X168903600Y-101086392I-8J900000D01*
G01*
X165402791Y-101350000D02*
G75*
G02*
X164766399Y-101086392I9J900000D01*
G01*
X169520000Y-100097208D02*
G75*
G02*
X169256392Y-100733600I-900000J8D01*
G01*
%TO.N,Net-(P1-S_PCIRST#_TBD)*%
X165520000Y-95340001D02*
X165520000Y-95815737D01*
X164266396Y-98503604D02*
X164193604Y-98576396D01*
X165256396Y-96452133D02*
X164793604Y-96914925D01*
X158256396Y-99103604D02*
X157520000Y-99840000D01*
X164530000Y-97551321D02*
X164530000Y-97867208D01*
X163557208Y-98840000D02*
X158892792Y-98840000D01*
X163557208Y-98840000D02*
G75*
G03*
X164193600Y-98576392I-8J900000D01*
G01*
X164530000Y-97551321D02*
G75*
G02*
X164793593Y-96914914I900000J21D01*
G01*
X158256396Y-99103604D02*
G75*
G02*
X158892792Y-98839994I636404J-636396D01*
G01*
X165256396Y-96452133D02*
G75*
G03*
X165520026Y-95815737I-636396J636433D01*
G01*
X164530000Y-97867208D02*
G75*
G02*
X164266392Y-98503600I-900000J8D01*
G01*
%TD*%
%TA.AperFunction,Conductor*%
%TO.N,GND*%
G36*
X166153939Y-95917392D02*
G01*
X166211574Y-95956889D01*
X166238706Y-96021275D01*
X166239500Y-96035284D01*
X166239500Y-96461111D01*
X166238903Y-96473267D01*
X166228792Y-96575912D01*
X166224050Y-96599751D01*
X166217628Y-96620923D01*
X166199219Y-96681609D01*
X166195889Y-96692585D01*
X166186586Y-96715044D01*
X166140851Y-96800606D01*
X166127344Y-96820820D01*
X166087770Y-96869038D01*
X166082569Y-96874979D01*
X166003313Y-96959894D01*
X166000344Y-96962966D01*
X165984928Y-96978382D01*
X165939733Y-97007195D01*
X165900600Y-97021467D01*
X165859983Y-97028959D01*
X165738297Y-97030793D01*
X165736924Y-97030819D01*
X165534929Y-97035566D01*
X165520360Y-97036754D01*
X165513556Y-97037309D01*
X165513549Y-97037310D01*
X165510896Y-97037681D01*
X165510875Y-97037685D01*
X165489786Y-97041900D01*
X165489774Y-97041902D01*
X165489768Y-97041904D01*
X165489760Y-97041906D01*
X165489739Y-97041911D01*
X165390115Y-97067918D01*
X165372680Y-97071159D01*
X165343199Y-97074481D01*
X165274377Y-97062427D01*
X165222997Y-97015079D01*
X165205372Y-96947468D01*
X165227098Y-96881062D01*
X165241625Y-96863588D01*
X165423761Y-96681452D01*
X165438296Y-96669007D01*
X165453246Y-96658088D01*
X165612972Y-96484407D01*
X165619044Y-96477467D01*
X165619781Y-96476581D01*
X165625401Y-96469477D01*
X165731417Y-96328567D01*
X165734235Y-96324721D01*
X165734595Y-96324216D01*
X165737476Y-96320055D01*
X165818706Y-96199264D01*
X165822508Y-96193924D01*
X165824516Y-96191256D01*
X165914945Y-96071062D01*
X165922758Y-96061679D01*
X165927373Y-96056662D01*
X166024230Y-95951344D01*
X166084100Y-95915326D01*
X166153939Y-95917392D01*
G37*
%TD.AperFunction*%
%TA.AperFunction,Conductor*%
G36*
X170178059Y-88311561D02*
G01*
X170252035Y-88321300D01*
X170283302Y-88329678D01*
X170344665Y-88355095D01*
X170372700Y-88371281D01*
X170425395Y-88411716D01*
X170448283Y-88434604D01*
X170488718Y-88487299D01*
X170504904Y-88515334D01*
X170530321Y-88576697D01*
X170538699Y-88607962D01*
X170548439Y-88681938D01*
X170549500Y-88698125D01*
X170549500Y-93132088D01*
X170529815Y-93199127D01*
X170477011Y-93244882D01*
X170407853Y-93254826D01*
X170344297Y-93225801D01*
X170306523Y-93167023D01*
X170305027Y-93161288D01*
X170245333Y-92990692D01*
X170236661Y-92976892D01*
X170236660Y-92976892D01*
X169920000Y-93293552D01*
X169920000Y-93287339D01*
X169892741Y-93185606D01*
X169840080Y-93094394D01*
X169765606Y-93019920D01*
X169674394Y-92967259D01*
X169572661Y-92940000D01*
X169566447Y-92940000D01*
X169883107Y-92623338D01*
X169869304Y-92614665D01*
X169699138Y-92555121D01*
X169520003Y-92534938D01*
X169519997Y-92534938D01*
X169340861Y-92555121D01*
X169340858Y-92555122D01*
X169170701Y-92614662D01*
X169170691Y-92614667D01*
X169156891Y-92623337D01*
X169156891Y-92623338D01*
X169473554Y-92940000D01*
X169467339Y-92940000D01*
X169365606Y-92967259D01*
X169274394Y-93019920D01*
X169199920Y-93094394D01*
X169147259Y-93185606D01*
X169120000Y-93287339D01*
X169120000Y-93293553D01*
X168803338Y-92976891D01*
X168803337Y-92976891D01*
X168794667Y-92990691D01*
X168794662Y-92990701D01*
X168735122Y-93160858D01*
X168735121Y-93160861D01*
X168714938Y-93339997D01*
X168714938Y-93340002D01*
X168735121Y-93519138D01*
X168794665Y-93689304D01*
X168803338Y-93703107D01*
X169120000Y-93386445D01*
X169120000Y-93392661D01*
X169147259Y-93494394D01*
X169199920Y-93585606D01*
X169274394Y-93660080D01*
X169365606Y-93712741D01*
X169467339Y-93740000D01*
X169473553Y-93740000D01*
X169156892Y-94056660D01*
X169156892Y-94056661D01*
X169170692Y-94065333D01*
X169170691Y-94065333D01*
X169340861Y-94124878D01*
X169519997Y-94145062D01*
X169520003Y-94145062D01*
X169699138Y-94124878D01*
X169699141Y-94124877D01*
X169869305Y-94065334D01*
X169869306Y-94065334D01*
X169883106Y-94056661D01*
X169883106Y-94056660D01*
X169566448Y-93740000D01*
X169572661Y-93740000D01*
X169674394Y-93712741D01*
X169765606Y-93660080D01*
X169840080Y-93585606D01*
X169892741Y-93494394D01*
X169920000Y-93392661D01*
X169920000Y-93386447D01*
X170236660Y-93703106D01*
X170236661Y-93703106D01*
X170245334Y-93689306D01*
X170245334Y-93689305D01*
X170307177Y-93512570D01*
X170308654Y-93513086D01*
X170338716Y-93459342D01*
X170400376Y-93426483D01*
X170470014Y-93432176D01*
X170525518Y-93474615D01*
X170549268Y-93540324D01*
X170549500Y-93547911D01*
X170549500Y-95298077D01*
X170537303Y-95339613D01*
X170547640Y-95360530D01*
X170549500Y-95381924D01*
X170549500Y-101981874D01*
X170548439Y-101998061D01*
X170538699Y-102072037D01*
X170530321Y-102103302D01*
X170504904Y-102164665D01*
X170488718Y-102192700D01*
X170448283Y-102245395D01*
X170425395Y-102268283D01*
X170372700Y-102308718D01*
X170344665Y-102324904D01*
X170283302Y-102350321D01*
X170252037Y-102358699D01*
X170195499Y-102366142D01*
X170178057Y-102368439D01*
X170161874Y-102369500D01*
X152878126Y-102369500D01*
X152861941Y-102368439D01*
X152853032Y-102367266D01*
X152787963Y-102358699D01*
X152756697Y-102350321D01*
X152695334Y-102324904D01*
X152667299Y-102308718D01*
X152614604Y-102268283D01*
X152591716Y-102245395D01*
X152551281Y-102192700D01*
X152535095Y-102164665D01*
X152509678Y-102103302D01*
X152501300Y-102072035D01*
X152491561Y-101998059D01*
X152490500Y-101981874D01*
X152490500Y-99839997D01*
X154734561Y-99839997D01*
X154734561Y-99840002D01*
X154754252Y-100014771D01*
X154812344Y-100180790D01*
X154883712Y-100294371D01*
X154905919Y-100329713D01*
X155030287Y-100454081D01*
X155099928Y-100497839D01*
X155154119Y-100531890D01*
X155179211Y-100547656D01*
X155345223Y-100605746D01*
X155345226Y-100605746D01*
X155345228Y-100605747D01*
X155519997Y-100625439D01*
X155520000Y-100625439D01*
X155520003Y-100625439D01*
X155694771Y-100605747D01*
X155694772Y-100605746D01*
X155694777Y-100605746D01*
X155860789Y-100547656D01*
X156009713Y-100454081D01*
X156134081Y-100329713D01*
X156227656Y-100180789D01*
X156285746Y-100014777D01*
X156288842Y-99987306D01*
X156305439Y-99840002D01*
X156305439Y-99839997D01*
X156734561Y-99839997D01*
X156734561Y-99840002D01*
X156754252Y-100014771D01*
X156812344Y-100180790D01*
X156883712Y-100294371D01*
X156905919Y-100329713D01*
X157030287Y-100454081D01*
X157099928Y-100497839D01*
X157154119Y-100531890D01*
X157179211Y-100547656D01*
X157345223Y-100605746D01*
X157345226Y-100605746D01*
X157345228Y-100605747D01*
X157519997Y-100625439D01*
X157520000Y-100625439D01*
X157520003Y-100625439D01*
X157694771Y-100605747D01*
X157694772Y-100605746D01*
X157694777Y-100605746D01*
X157860789Y-100547656D01*
X158009713Y-100454081D01*
X158134081Y-100329713D01*
X158227656Y-100180789D01*
X158245886Y-100128688D01*
X158251370Y-100115503D01*
X158257198Y-100103493D01*
X158257197Y-100103493D01*
X158257200Y-100103489D01*
X158263264Y-100080258D01*
X158266190Y-100070661D01*
X158285746Y-100014777D01*
X158288842Y-99987293D01*
X158292079Y-99969873D01*
X158318091Y-99870235D01*
X158322307Y-99849153D01*
X158322683Y-99846473D01*
X158324431Y-99825059D01*
X158329175Y-99623242D01*
X158329188Y-99622630D01*
X158329190Y-99622531D01*
X158329193Y-99622400D01*
X158329204Y-99621750D01*
X158329207Y-99621578D01*
X158331038Y-99500009D01*
X158338528Y-99459400D01*
X158352799Y-99420267D01*
X158381610Y-99375075D01*
X158397124Y-99359561D01*
X158400108Y-99356677D01*
X158485069Y-99277379D01*
X158490968Y-99272214D01*
X158539186Y-99232643D01*
X158559386Y-99219147D01*
X158644957Y-99173407D01*
X158667394Y-99164112D01*
X158760255Y-99135943D01*
X158784084Y-99131203D01*
X158886682Y-99121096D01*
X158898838Y-99120500D01*
X159020192Y-99120500D01*
X159087231Y-99140185D01*
X159132986Y-99192989D01*
X159142930Y-99262147D01*
X159113905Y-99325703D01*
X159107873Y-99332181D01*
X159014726Y-99425327D01*
X159014723Y-99425331D01*
X158943538Y-99531866D01*
X158943533Y-99531875D01*
X158894499Y-99650255D01*
X158894497Y-99650261D01*
X158869500Y-99775928D01*
X158869500Y-99775931D01*
X158869500Y-99904069D01*
X158869500Y-99904071D01*
X158869499Y-99904071D01*
X158894497Y-100029738D01*
X158894499Y-100029744D01*
X158943533Y-100148124D01*
X158943538Y-100148133D01*
X159014723Y-100254668D01*
X159014726Y-100254672D01*
X159105327Y-100345273D01*
X159105331Y-100345276D01*
X159211866Y-100416461D01*
X159211875Y-100416466D01*
X159233246Y-100425318D01*
X159330256Y-100465501D01*
X159330260Y-100465501D01*
X159330261Y-100465502D01*
X159455928Y-100490500D01*
X159455931Y-100490500D01*
X159584071Y-100490500D01*
X159668615Y-100473682D01*
X159709744Y-100465501D01*
X159828127Y-100416465D01*
X159934669Y-100345276D01*
X160025276Y-100254669D01*
X160096465Y-100148127D01*
X160145501Y-100029744D01*
X160170500Y-99904069D01*
X160170500Y-99775931D01*
X160170500Y-99775928D01*
X160145502Y-99650261D01*
X160145501Y-99650260D01*
X160145501Y-99650256D01*
X160096465Y-99531873D01*
X160096464Y-99531872D01*
X160096461Y-99531866D01*
X160025276Y-99425331D01*
X160025273Y-99425327D01*
X159932127Y-99332181D01*
X159898642Y-99270858D01*
X159903626Y-99201166D01*
X159945498Y-99145233D01*
X160010962Y-99120816D01*
X160019808Y-99120500D01*
X161102692Y-99120500D01*
X161169731Y-99140185D01*
X161190373Y-99156819D01*
X161473554Y-99440000D01*
X161467339Y-99440000D01*
X161365606Y-99467259D01*
X161274394Y-99519920D01*
X161199920Y-99594394D01*
X161147259Y-99685606D01*
X161120000Y-99787339D01*
X161120000Y-99793553D01*
X160803338Y-99476891D01*
X160803337Y-99476891D01*
X160794667Y-99490691D01*
X160794662Y-99490701D01*
X160735122Y-99660858D01*
X160735121Y-99660861D01*
X160714938Y-99839997D01*
X160714938Y-99840002D01*
X160735121Y-100019138D01*
X160794665Y-100189304D01*
X160803338Y-100203107D01*
X161120000Y-99886445D01*
X161120000Y-99892661D01*
X161147259Y-99994394D01*
X161199920Y-100085606D01*
X161274394Y-100160080D01*
X161365606Y-100212741D01*
X161467339Y-100240000D01*
X161473553Y-100240000D01*
X161156892Y-100556660D01*
X161156892Y-100556661D01*
X161170692Y-100565333D01*
X161170691Y-100565333D01*
X161340861Y-100624878D01*
X161519997Y-100645062D01*
X161520003Y-100645062D01*
X161699138Y-100624878D01*
X161699141Y-100624877D01*
X161869305Y-100565334D01*
X161869306Y-100565334D01*
X161883106Y-100556661D01*
X161883106Y-100556660D01*
X161566448Y-100240000D01*
X161572661Y-100240000D01*
X161674394Y-100212741D01*
X161765606Y-100160080D01*
X161840080Y-100085606D01*
X161892741Y-99994394D01*
X161920000Y-99892661D01*
X161920000Y-99886447D01*
X162236660Y-100203106D01*
X162236661Y-100203106D01*
X162245334Y-100189306D01*
X162245334Y-100189305D01*
X162304877Y-100019141D01*
X162304878Y-100019138D01*
X162325062Y-99840002D01*
X162325062Y-99839997D01*
X162304878Y-99660861D01*
X162245333Y-99490692D01*
X162236661Y-99476892D01*
X162236660Y-99476892D01*
X161920000Y-99793552D01*
X161920000Y-99787339D01*
X161892741Y-99685606D01*
X161840080Y-99594394D01*
X161765606Y-99519920D01*
X161674394Y-99467259D01*
X161572661Y-99440000D01*
X161566447Y-99440000D01*
X161849627Y-99156819D01*
X161910950Y-99123334D01*
X161937308Y-99120500D01*
X162836343Y-99120500D01*
X162903382Y-99140185D01*
X162949137Y-99192989D01*
X162959081Y-99262147D01*
X162930056Y-99325703D01*
X162924024Y-99332181D01*
X162905918Y-99350286D01*
X162812343Y-99499209D01*
X162754251Y-99665228D01*
X162734560Y-99839997D01*
X162734560Y-99840002D01*
X162754251Y-100014771D01*
X162812343Y-100180790D01*
X162883711Y-100294371D01*
X162905918Y-100329713D01*
X163030286Y-100454081D01*
X163085634Y-100488858D01*
X163179209Y-100547656D01*
X163186946Y-100550363D01*
X163219019Y-100561586D01*
X163237244Y-100569662D01*
X163247572Y-100575272D01*
X163339748Y-100603911D01*
X163343920Y-100605290D01*
X163346761Y-100606285D01*
X163351395Y-100607531D01*
X163492893Y-100651497D01*
X163507654Y-100655425D01*
X163509533Y-100655843D01*
X163524559Y-100658542D01*
X163723135Y-100685830D01*
X163809968Y-100697888D01*
X163859131Y-100704716D01*
X163888190Y-100712433D01*
X163982922Y-100750391D01*
X164014714Y-100769030D01*
X164156688Y-100883701D01*
X164173075Y-100896936D01*
X164174307Y-100897624D01*
X164176107Y-100898985D01*
X164177439Y-100899886D01*
X164177391Y-100899956D01*
X164201502Y-100918190D01*
X164600337Y-101317025D01*
X164600401Y-101317081D01*
X164633749Y-101350429D01*
X164784075Y-101459649D01*
X164949636Y-101544008D01*
X165126355Y-101601429D01*
X165309881Y-101630499D01*
X165351421Y-101630499D01*
X165351429Y-101630500D01*
X165365863Y-101630500D01*
X165402788Y-101630500D01*
X165452248Y-101630500D01*
X168215842Y-101630500D01*
X168215862Y-101630505D01*
X168267210Y-101630504D01*
X168267210Y-101630505D01*
X168360118Y-101630504D01*
X168543645Y-101601434D01*
X168720365Y-101544013D01*
X168885926Y-101459654D01*
X169036253Y-101350433D01*
X169101948Y-101284738D01*
X169101949Y-101284738D01*
X169136922Y-101249765D01*
X169136922Y-101249764D01*
X169154358Y-101232328D01*
X169154359Y-101232325D01*
X169480851Y-100905836D01*
X169480853Y-100905831D01*
X169486940Y-100899745D01*
X169486986Y-100899693D01*
X169498629Y-100888050D01*
X169520430Y-100866250D01*
X169629649Y-100715924D01*
X169714009Y-100550363D01*
X169771430Y-100373644D01*
X169800499Y-100190118D01*
X169800500Y-100097210D01*
X169800500Y-100047751D01*
X169800500Y-96584314D01*
X169804927Y-96555253D01*
X169804337Y-96555131D01*
X169805572Y-96549163D01*
X169812941Y-96479889D01*
X169827106Y-96346734D01*
X169836403Y-96311088D01*
X169876552Y-96217251D01*
X169891641Y-96191251D01*
X169966830Y-96091812D01*
X169974379Y-96081829D01*
X169974485Y-96081689D01*
X169982540Y-96071068D01*
X170095571Y-95922022D01*
X170104285Y-95909492D01*
X170105318Y-95907868D01*
X170112980Y-95894650D01*
X170211892Y-95706564D01*
X170216640Y-95698321D01*
X170227654Y-95680794D01*
X170227655Y-95680791D01*
X170227656Y-95680790D01*
X170229420Y-95675746D01*
X170235449Y-95661454D01*
X170235526Y-95661299D01*
X170236281Y-95659782D01*
X170236728Y-95658830D01*
X170237618Y-95654851D01*
X170241581Y-95640992D01*
X170260962Y-95585607D01*
X170285746Y-95514778D01*
X170285746Y-95514776D01*
X170285747Y-95514774D01*
X170302280Y-95368040D01*
X170312857Y-95342868D01*
X170306523Y-95333012D01*
X170302280Y-95311961D01*
X170285747Y-95165229D01*
X170285746Y-95165227D01*
X170285746Y-95165224D01*
X170227656Y-94999212D01*
X170213631Y-94976892D01*
X170134080Y-94850287D01*
X170009713Y-94725920D01*
X169860790Y-94632345D01*
X169694771Y-94574253D01*
X169520003Y-94554562D01*
X169519997Y-94554562D01*
X169345228Y-94574253D01*
X169179209Y-94632345D01*
X169030286Y-94725920D01*
X168905919Y-94850287D01*
X168812344Y-94999210D01*
X168754252Y-95165229D01*
X168734561Y-95339998D01*
X168734561Y-95340003D01*
X168754252Y-95514775D01*
X168779038Y-95585607D01*
X168805529Y-95661317D01*
X168807378Y-95667043D01*
X168807449Y-95667284D01*
X168807507Y-95667426D01*
X168809671Y-95673154D01*
X168812339Y-95680779D01*
X168812346Y-95680794D01*
X168823354Y-95698315D01*
X168828105Y-95706564D01*
X168927017Y-95894651D01*
X168934452Y-95907475D01*
X168934680Y-95907868D01*
X168935713Y-95909492D01*
X168936667Y-95910864D01*
X168944433Y-95922031D01*
X169065795Y-96082063D01*
X169065903Y-96082205D01*
X169148356Y-96191256D01*
X169163448Y-96217262D01*
X169167458Y-96226634D01*
X169203590Y-96311080D01*
X169212891Y-96346739D01*
X169227057Y-96479889D01*
X169234428Y-96549164D01*
X169234811Y-96550518D01*
X169235121Y-96552754D01*
X169235427Y-96554333D01*
X169235343Y-96554349D01*
X169239500Y-96584293D01*
X169239500Y-100091110D01*
X169238903Y-100103266D01*
X169228792Y-100205909D01*
X169224049Y-100229749D01*
X169195885Y-100322592D01*
X169186583Y-100345050D01*
X169140851Y-100430607D01*
X169127345Y-100450819D01*
X169061873Y-100530595D01*
X169053702Y-100539610D01*
X169037864Y-100555448D01*
X169023079Y-100570233D01*
X168744572Y-100848740D01*
X168744550Y-100848760D01*
X168709572Y-100883740D01*
X168700555Y-100891913D01*
X168620823Y-100957348D01*
X168600613Y-100970852D01*
X168515048Y-101016589D01*
X168492592Y-101025891D01*
X168441748Y-101041314D01*
X168399752Y-101054054D01*
X168375914Y-101058796D01*
X168287507Y-101067505D01*
X168273316Y-101068903D01*
X168261162Y-101069500D01*
X165408889Y-101069500D01*
X165396734Y-101068903D01*
X165380988Y-101067352D01*
X165294085Y-101058791D01*
X165270246Y-101054048D01*
X165177410Y-101025886D01*
X165154953Y-101016584D01*
X165069392Y-100970851D01*
X165049179Y-100957345D01*
X164969402Y-100891872D01*
X164960387Y-100883701D01*
X164598205Y-100521519D01*
X164580787Y-100497839D01*
X164580283Y-100498171D01*
X164576940Y-100493083D01*
X164576936Y-100493078D01*
X164576935Y-100493076D01*
X164449025Y-100334710D01*
X164430390Y-100302925D01*
X164392432Y-100208192D01*
X164384715Y-100179128D01*
X164373338Y-100097210D01*
X164366014Y-100044469D01*
X164338541Y-99844560D01*
X164337721Y-99839997D01*
X164734561Y-99839997D01*
X164734561Y-99840002D01*
X164754252Y-100014771D01*
X164812344Y-100180790D01*
X164883712Y-100294371D01*
X164905919Y-100329713D01*
X165030287Y-100454081D01*
X165099928Y-100497839D01*
X165154119Y-100531890D01*
X165179211Y-100547656D01*
X165345223Y-100605746D01*
X165345226Y-100605746D01*
X165345228Y-100605747D01*
X165519997Y-100625439D01*
X165520000Y-100625439D01*
X165520003Y-100625439D01*
X165694773Y-100605747D01*
X165694775Y-100605746D01*
X165694777Y-100605746D01*
X165841310Y-100554471D01*
X165847065Y-100552613D01*
X165847281Y-100552550D01*
X165847293Y-100552543D01*
X165847369Y-100552513D01*
X165853107Y-100550343D01*
X165860789Y-100547656D01*
X165878321Y-100536639D01*
X165886569Y-100531888D01*
X166074649Y-100432980D01*
X166087867Y-100425318D01*
X166089491Y-100424285D01*
X166102021Y-100415571D01*
X166261979Y-100294265D01*
X166371246Y-100211645D01*
X166397250Y-100196552D01*
X166471224Y-100164902D01*
X166540598Y-100156629D01*
X166568773Y-100164902D01*
X166642736Y-100196548D01*
X166668742Y-100211640D01*
X166777414Y-100293807D01*
X166777416Y-100293808D01*
X166937975Y-100415571D01*
X166950506Y-100424286D01*
X166952130Y-100425319D01*
X166965349Y-100432982D01*
X167153454Y-100531903D01*
X167161671Y-100536636D01*
X167179211Y-100547657D01*
X167179213Y-100547658D01*
X167184239Y-100549416D01*
X167198537Y-100555446D01*
X167200218Y-100556282D01*
X167201170Y-100556729D01*
X167205137Y-100557617D01*
X167219003Y-100561580D01*
X167243728Y-100570232D01*
X167345225Y-100605748D01*
X167519997Y-100625440D01*
X167520000Y-100625440D01*
X167520003Y-100625440D01*
X167694771Y-100605748D01*
X167694772Y-100605747D01*
X167694777Y-100605747D01*
X167860789Y-100547657D01*
X168009713Y-100454082D01*
X168134081Y-100329714D01*
X168227656Y-100180790D01*
X168285746Y-100014778D01*
X168288842Y-99987306D01*
X168305439Y-99840003D01*
X168305439Y-99839998D01*
X168285747Y-99665229D01*
X168285746Y-99665227D01*
X168285746Y-99665224D01*
X168227656Y-99499212D01*
X168213631Y-99476892D01*
X168181231Y-99425327D01*
X168134081Y-99350288D01*
X168009713Y-99225920D01*
X167923634Y-99171833D01*
X167860790Y-99132345D01*
X167694771Y-99074253D01*
X167520003Y-99054562D01*
X167519997Y-99054562D01*
X167345227Y-99074253D01*
X167345223Y-99074254D01*
X167198706Y-99125522D01*
X167192970Y-99127374D01*
X167192713Y-99127450D01*
X167192504Y-99127535D01*
X167186819Y-99129682D01*
X167179217Y-99132342D01*
X167179207Y-99132347D01*
X167161697Y-99143348D01*
X167153449Y-99148098D01*
X166965351Y-99247015D01*
X166952099Y-99254698D01*
X166950485Y-99255725D01*
X166937981Y-99264422D01*
X166777335Y-99386250D01*
X166777194Y-99386358D01*
X166668744Y-99468357D01*
X166642741Y-99483447D01*
X166568775Y-99515094D01*
X166499398Y-99523367D01*
X166471223Y-99515094D01*
X166397258Y-99483447D01*
X166371255Y-99468356D01*
X166262204Y-99385903D01*
X166262062Y-99385795D01*
X166102024Y-99264428D01*
X166089484Y-99255708D01*
X166087849Y-99254668D01*
X166074663Y-99247026D01*
X166032595Y-99224903D01*
X165971910Y-99192989D01*
X165886558Y-99148103D01*
X165878305Y-99143350D01*
X165860786Y-99132342D01*
X165860782Y-99132341D01*
X165855720Y-99130569D01*
X165841521Y-99124585D01*
X165839679Y-99123670D01*
X165838739Y-99123229D01*
X165838735Y-99123227D01*
X165838734Y-99123227D01*
X165838732Y-99123226D01*
X165838725Y-99123224D01*
X165834705Y-99122325D01*
X165820831Y-99118360D01*
X165694776Y-99074253D01*
X165520003Y-99054561D01*
X165519997Y-99054561D01*
X165345228Y-99074252D01*
X165179209Y-99132344D01*
X165030286Y-99225919D01*
X164905919Y-99350286D01*
X164812344Y-99499209D01*
X164754252Y-99665228D01*
X164734561Y-99839997D01*
X164337721Y-99839997D01*
X164335842Y-99829534D01*
X164335424Y-99827655D01*
X164331496Y-99812894D01*
X164287530Y-99671396D01*
X164286284Y-99666762D01*
X164285289Y-99663921D01*
X164283904Y-99659729D01*
X164255271Y-99567573D01*
X164252606Y-99559633D01*
X164252249Y-99558644D01*
X164251398Y-99557302D01*
X164239074Y-99531846D01*
X164233212Y-99515094D01*
X164227655Y-99499211D01*
X164134080Y-99350287D01*
X164009712Y-99225919D01*
X164004788Y-99220995D01*
X164006664Y-99219118D01*
X163973498Y-99171833D01*
X163970671Y-99102021D01*
X164006036Y-99041763D01*
X164034662Y-99021632D01*
X164175926Y-98949654D01*
X164326253Y-98840433D01*
X164391948Y-98774738D01*
X164391949Y-98774738D01*
X164426922Y-98739765D01*
X164426922Y-98739764D01*
X164490851Y-98675836D01*
X164490852Y-98675833D01*
X164496930Y-98669756D01*
X164496975Y-98669703D01*
X164530430Y-98636250D01*
X164639649Y-98485924D01*
X164704773Y-98358112D01*
X164752745Y-98307321D01*
X164820566Y-98290526D01*
X164886701Y-98313064D01*
X164902936Y-98326731D01*
X164905918Y-98329713D01*
X165030286Y-98454081D01*
X165179210Y-98547656D01*
X165345222Y-98605746D01*
X165345225Y-98605746D01*
X165345227Y-98605747D01*
X165519996Y-98625439D01*
X165519999Y-98625439D01*
X165520002Y-98625439D01*
X165694770Y-98605747D01*
X165694771Y-98605746D01*
X165694776Y-98605746D01*
X165860788Y-98547656D01*
X166009712Y-98454081D01*
X166134080Y-98329713D01*
X166227655Y-98180789D01*
X166239662Y-98146472D01*
X166249246Y-98125550D01*
X166254050Y-98117208D01*
X166331840Y-97887184D01*
X166335387Y-97875428D01*
X166335788Y-97873920D01*
X166338587Y-97861762D01*
X166342832Y-97839997D01*
X166734561Y-97839997D01*
X166734561Y-97840002D01*
X166754252Y-98014771D01*
X166812344Y-98180790D01*
X166812345Y-98180791D01*
X166905919Y-98329713D01*
X167030287Y-98454081D01*
X167179211Y-98547656D01*
X167345223Y-98605746D01*
X167345226Y-98605746D01*
X167345228Y-98605747D01*
X167519997Y-98625439D01*
X167520000Y-98625439D01*
X167520003Y-98625439D01*
X167694771Y-98605747D01*
X167694772Y-98605746D01*
X167694777Y-98605746D01*
X167860789Y-98547656D01*
X168009713Y-98454081D01*
X168134081Y-98329713D01*
X168227656Y-98180789D01*
X168285746Y-98014777D01*
X168301460Y-97875319D01*
X168305439Y-97840002D01*
X168305439Y-97839997D01*
X168285747Y-97665228D01*
X168285746Y-97665226D01*
X168285746Y-97665223D01*
X168227656Y-97499211D01*
X168134081Y-97350287D01*
X168009713Y-97225919D01*
X167979817Y-97207134D01*
X167860790Y-97132344D01*
X167728082Y-97085908D01*
X167694777Y-97074254D01*
X167694776Y-97074253D01*
X167694771Y-97074252D01*
X167520003Y-97054561D01*
X167519997Y-97054561D01*
X167345228Y-97074252D01*
X167179209Y-97132344D01*
X167030286Y-97225919D01*
X166905919Y-97350286D01*
X166812344Y-97499209D01*
X166754252Y-97665228D01*
X166734561Y-97839997D01*
X166342832Y-97839997D01*
X166373992Y-97680249D01*
X166374386Y-97678164D01*
X166374434Y-97677902D01*
X166374800Y-97675839D01*
X166398008Y-97540548D01*
X166402560Y-97522383D01*
X166442512Y-97402306D01*
X166452311Y-97380283D01*
X166556710Y-97196234D01*
X166557443Y-97194146D01*
X166574117Y-97162354D01*
X166629650Y-97085923D01*
X166714009Y-96920362D01*
X166771430Y-96743642D01*
X166800499Y-96560116D01*
X166800500Y-96467209D01*
X166800500Y-96417749D01*
X166800500Y-96023657D01*
X166820185Y-95956619D01*
X166872989Y-95910864D01*
X166942147Y-95900920D01*
X167005703Y-95929945D01*
X167012180Y-95935976D01*
X167030286Y-95954082D01*
X167179210Y-96047657D01*
X167345222Y-96105747D01*
X167345225Y-96105747D01*
X167345227Y-96105748D01*
X167519996Y-96125440D01*
X167519999Y-96125440D01*
X167520002Y-96125440D01*
X167694770Y-96105748D01*
X167694771Y-96105747D01*
X167694776Y-96105747D01*
X167860788Y-96047657D01*
X168009712Y-95954082D01*
X168134080Y-95829714D01*
X168227655Y-95680790D01*
X168285745Y-95514778D01*
X168285949Y-95512973D01*
X168305438Y-95340003D01*
X168305438Y-95339998D01*
X168285746Y-95165229D01*
X168285745Y-95165227D01*
X168285745Y-95165224D01*
X168227655Y-94999212D01*
X168213630Y-94976892D01*
X168134079Y-94850287D01*
X168009712Y-94725920D01*
X167860789Y-94632345D01*
X167694770Y-94574253D01*
X167520002Y-94554562D01*
X167519996Y-94554562D01*
X167345227Y-94574253D01*
X167179208Y-94632345D01*
X167030285Y-94725920D01*
X167012181Y-94744025D01*
X166950858Y-94777510D01*
X166881166Y-94772526D01*
X166825233Y-94730654D01*
X166800816Y-94665190D01*
X166800500Y-94656344D01*
X166800500Y-94023657D01*
X166820185Y-93956618D01*
X166872989Y-93910863D01*
X166942147Y-93900919D01*
X167005703Y-93929944D01*
X167012180Y-93935975D01*
X167030287Y-93954082D01*
X167118372Y-94009430D01*
X167141013Y-94023656D01*
X167179211Y-94047657D01*
X167345223Y-94105747D01*
X167345226Y-94105747D01*
X167345228Y-94105748D01*
X167519997Y-94125440D01*
X167520000Y-94125440D01*
X167520003Y-94125440D01*
X167694771Y-94105748D01*
X167694772Y-94105747D01*
X167694777Y-94105747D01*
X167860789Y-94047657D01*
X168009713Y-93954082D01*
X168134081Y-93829714D01*
X168227656Y-93680790D01*
X168285746Y-93514778D01*
X168286134Y-93511339D01*
X168305439Y-93340003D01*
X168305439Y-93339998D01*
X168285747Y-93165229D01*
X168285746Y-93165227D01*
X168285746Y-93165224D01*
X168227656Y-92999212D01*
X168213631Y-92976892D01*
X168144270Y-92866504D01*
X168134081Y-92850288D01*
X168009713Y-92725920D01*
X168009711Y-92725919D01*
X167860790Y-92632345D01*
X167694771Y-92574253D01*
X167520003Y-92554562D01*
X167519997Y-92554562D01*
X167345228Y-92574253D01*
X167179209Y-92632345D01*
X167030288Y-92725919D01*
X166972304Y-92783903D01*
X166910980Y-92817387D01*
X166841289Y-92812402D01*
X166785355Y-92770531D01*
X166766693Y-92734541D01*
X166714016Y-92572428D01*
X166714015Y-92572427D01*
X166714015Y-92572425D01*
X166629654Y-92406863D01*
X166629650Y-92406857D01*
X166520437Y-92256542D01*
X166520436Y-92256540D01*
X166454737Y-92190842D01*
X166454737Y-92190841D01*
X166454736Y-92190841D01*
X166305266Y-92041371D01*
X166261722Y-91997826D01*
X166261715Y-91997821D01*
X166247529Y-91983635D01*
X166247412Y-91983532D01*
X166213454Y-91949573D01*
X166213448Y-91949568D01*
X166063134Y-91840356D01*
X165897570Y-91755994D01*
X165897567Y-91755993D01*
X165720853Y-91698572D01*
X165537324Y-91669501D01*
X165537328Y-91669501D01*
X165481347Y-91669500D01*
X165481346Y-91669500D01*
X165481344Y-91669500D01*
X165444422Y-91669500D01*
X165444416Y-91669499D01*
X165394961Y-91669499D01*
X165394960Y-91669499D01*
X165384973Y-91669499D01*
X165384961Y-91669500D01*
X163334158Y-91669500D01*
X163334140Y-91669495D01*
X163189884Y-91669496D01*
X163006362Y-91698564D01*
X162914926Y-91728274D01*
X162829637Y-91755987D01*
X162829635Y-91755987D01*
X162829635Y-91755988D01*
X162829631Y-91755989D01*
X162664080Y-91840344D01*
X162664078Y-91840345D01*
X162513746Y-91949568D01*
X162513743Y-91949571D01*
X162474175Y-91989137D01*
X162474168Y-91989145D01*
X162474168Y-91989146D01*
X162474166Y-91989148D01*
X162232813Y-92230500D01*
X162201520Y-92261793D01*
X162177841Y-92279212D01*
X162178172Y-92279715D01*
X162173079Y-92283060D01*
X162014711Y-92410970D01*
X161982921Y-92429607D01*
X161939715Y-92446920D01*
X161888192Y-92467565D01*
X161859130Y-92475282D01*
X161750774Y-92490331D01*
X161724470Y-92493985D01*
X161582268Y-92513526D01*
X161524551Y-92521458D01*
X161509479Y-92524168D01*
X161509476Y-92524168D01*
X161509474Y-92524169D01*
X161507611Y-92524584D01*
X161492902Y-92528500D01*
X161492896Y-92528502D01*
X161351359Y-92572479D01*
X161346777Y-92573711D01*
X161345223Y-92574254D01*
X161345223Y-92574255D01*
X161343901Y-92574716D01*
X161339801Y-92576070D01*
X161247545Y-92604736D01*
X161239543Y-92607424D01*
X161238546Y-92607785D01*
X161237228Y-92608622D01*
X161211758Y-92620956D01*
X161179209Y-92632345D01*
X161179208Y-92632346D01*
X161030286Y-92725920D01*
X160905919Y-92850287D01*
X160812344Y-92999210D01*
X160754252Y-93165229D01*
X160734561Y-93339998D01*
X160734561Y-93340003D01*
X160754252Y-93514772D01*
X160812344Y-93680791D01*
X160887769Y-93800829D01*
X160905919Y-93829714D01*
X161030287Y-93954082D01*
X161118372Y-94009430D01*
X161141013Y-94023656D01*
X161179211Y-94047657D01*
X161345223Y-94105747D01*
X161345226Y-94105747D01*
X161345228Y-94105748D01*
X161519997Y-94125440D01*
X161520000Y-94125440D01*
X161520003Y-94125440D01*
X161694771Y-94105748D01*
X161694772Y-94105747D01*
X161694777Y-94105747D01*
X161860789Y-94047657D01*
X162009713Y-93954082D01*
X162134081Y-93829714D01*
X162227656Y-93680790D01*
X162241584Y-93640983D01*
X162249667Y-93622744D01*
X162255272Y-93612427D01*
X162283912Y-93520247D01*
X162285290Y-93516080D01*
X162286288Y-93513228D01*
X162287538Y-93508580D01*
X162290296Y-93499705D01*
X162331497Y-93367105D01*
X162335425Y-93352344D01*
X162335843Y-93350465D01*
X162338542Y-93335440D01*
X162365978Y-93135800D01*
X162384718Y-93000861D01*
X162392433Y-92971808D01*
X162429954Y-92878167D01*
X162429964Y-92878150D01*
X162430369Y-92877138D01*
X162433105Y-92872467D01*
X162444771Y-92851363D01*
X162444779Y-92851352D01*
X162445267Y-92851707D01*
X162449036Y-92845276D01*
X162494881Y-92788515D01*
X162576935Y-92686925D01*
X162577622Y-92685694D01*
X162578978Y-92683901D01*
X162579882Y-92682565D01*
X162579952Y-92682612D01*
X162598186Y-92658500D01*
X162840438Y-92416249D01*
X162849431Y-92408098D01*
X162929181Y-92342648D01*
X162949391Y-92329145D01*
X163034951Y-92283412D01*
X163057401Y-92274111D01*
X163150258Y-92245942D01*
X163174083Y-92241203D01*
X163254569Y-92233276D01*
X163276695Y-92231097D01*
X163288848Y-92230500D01*
X165438314Y-92230500D01*
X165450471Y-92231097D01*
X165553118Y-92241209D01*
X165576957Y-92245952D01*
X165669792Y-92274114D01*
X165692247Y-92283414D01*
X165777818Y-92329155D01*
X165798024Y-92342657D01*
X165825585Y-92365277D01*
X165864918Y-92423024D01*
X165866787Y-92492868D01*
X165830598Y-92552636D01*
X165767841Y-92583350D01*
X165705967Y-92578171D01*
X165694776Y-92574255D01*
X165694774Y-92574254D01*
X165694769Y-92574253D01*
X165520002Y-92554562D01*
X165519996Y-92554562D01*
X165345227Y-92574253D01*
X165179208Y-92632345D01*
X165030285Y-92725920D01*
X164905918Y-92850287D01*
X164812343Y-92999210D01*
X164754251Y-93165229D01*
X164734560Y-93339998D01*
X164734560Y-93340003D01*
X164754251Y-93514772D01*
X164812343Y-93680791D01*
X164887768Y-93800829D01*
X164905918Y-93829714D01*
X165030286Y-93954082D01*
X165118371Y-94009430D01*
X165141012Y-94023656D01*
X165179210Y-94047657D01*
X165345222Y-94105747D01*
X165345225Y-94105747D01*
X165345227Y-94105748D01*
X165519996Y-94125440D01*
X165519999Y-94125440D01*
X165520002Y-94125440D01*
X165694770Y-94105748D01*
X165694771Y-94105747D01*
X165694776Y-94105747D01*
X165860788Y-94047657D01*
X166009712Y-93954082D01*
X166027819Y-93935975D01*
X166089142Y-93902490D01*
X166158834Y-93907474D01*
X166214767Y-93949346D01*
X166239184Y-94014810D01*
X166239500Y-94023656D01*
X166239500Y-94656345D01*
X166219815Y-94723384D01*
X166167011Y-94769139D01*
X166097853Y-94779083D01*
X166034297Y-94750058D01*
X166027819Y-94744026D01*
X166009713Y-94725920D01*
X165860790Y-94632345D01*
X165694771Y-94574253D01*
X165520003Y-94554562D01*
X165519997Y-94554562D01*
X165345228Y-94574253D01*
X165179209Y-94632345D01*
X165030286Y-94725920D01*
X164905919Y-94850287D01*
X164812344Y-94999210D01*
X164754252Y-95165229D01*
X164734561Y-95339998D01*
X164734561Y-95340003D01*
X164754252Y-95514770D01*
X164754253Y-95514774D01*
X164754254Y-95514778D01*
X164812344Y-95680790D01*
X164812345Y-95680791D01*
X164812346Y-95680793D01*
X164828090Y-95705850D01*
X164832223Y-95712938D01*
X164874666Y-95791604D01*
X164917828Y-95871603D01*
X164919119Y-95873491D01*
X164920023Y-95875061D01*
X164920693Y-95876151D01*
X164923685Y-95880732D01*
X164926365Y-95884834D01*
X164947520Y-95915326D01*
X165032421Y-96037698D01*
X165039328Y-96048874D01*
X165066126Y-96097871D01*
X165081024Y-96166134D01*
X165060187Y-96226634D01*
X165015978Y-96292284D01*
X165015350Y-96291861D01*
X165000364Y-96311476D01*
X164634570Y-96677271D01*
X164634533Y-96677305D01*
X164634534Y-96677306D01*
X164632787Y-96679052D01*
X164632742Y-96679076D01*
X164529549Y-96782275D01*
X164420335Y-96932600D01*
X164335979Y-97098165D01*
X164287168Y-97248398D01*
X164247732Y-97306074D01*
X164183373Y-97333273D01*
X164114527Y-97321359D01*
X164081556Y-97297762D01*
X164009713Y-97225919D01*
X163860791Y-97132345D01*
X163860790Y-97132344D01*
X163808692Y-97114114D01*
X163795520Y-97108635D01*
X163783498Y-97102802D01*
X163783482Y-97102796D01*
X163760262Y-97096734D01*
X163750633Y-97093798D01*
X163694777Y-97074254D01*
X163694759Y-97074252D01*
X163667303Y-97071157D01*
X163649876Y-97067917D01*
X163596317Y-97053936D01*
X163550229Y-97041905D01*
X163543199Y-97040499D01*
X163529153Y-97037690D01*
X163529146Y-97037689D01*
X163529141Y-97037688D01*
X163526477Y-97037314D01*
X163505073Y-97035567D01*
X163505050Y-97035566D01*
X163303073Y-97030819D01*
X163301700Y-97030793D01*
X163180012Y-97028959D01*
X163139397Y-97021468D01*
X163100263Y-97007196D01*
X163055069Y-96978383D01*
X163039635Y-96962949D01*
X163036667Y-96959877D01*
X163011209Y-96932602D01*
X162957387Y-96874937D01*
X162952189Y-96869000D01*
X162912651Y-96820823D01*
X162899147Y-96800613D01*
X162853410Y-96715048D01*
X162844111Y-96692601D01*
X162815943Y-96599744D01*
X162811203Y-96575913D01*
X162801097Y-96473315D01*
X162800500Y-96461160D01*
X162800500Y-96023657D01*
X162820185Y-95956618D01*
X162872989Y-95910863D01*
X162942147Y-95900919D01*
X163005703Y-95929944D01*
X163012181Y-95935976D01*
X163030287Y-95954082D01*
X163179211Y-96047657D01*
X163345223Y-96105747D01*
X163345226Y-96105747D01*
X163345228Y-96105748D01*
X163519997Y-96125440D01*
X163520000Y-96125440D01*
X163520003Y-96125440D01*
X163694771Y-96105748D01*
X163694772Y-96105747D01*
X163694777Y-96105747D01*
X163860789Y-96047657D01*
X164009713Y-95954082D01*
X164134081Y-95829714D01*
X164227656Y-95680790D01*
X164285746Y-95514778D01*
X164285950Y-95512973D01*
X164305439Y-95340003D01*
X164305439Y-95339998D01*
X164285747Y-95165229D01*
X164285746Y-95165227D01*
X164285746Y-95165224D01*
X164227656Y-94999212D01*
X164213631Y-94976892D01*
X164134080Y-94850287D01*
X164009713Y-94725920D01*
X163860790Y-94632345D01*
X163694771Y-94574253D01*
X163520003Y-94554562D01*
X163519997Y-94554562D01*
X163345228Y-94574253D01*
X163179209Y-94632345D01*
X163030288Y-94725919D01*
X163019012Y-94737195D01*
X162957687Y-94770678D01*
X162887996Y-94765691D01*
X162832064Y-94723818D01*
X162807649Y-94658353D01*
X162807930Y-94637355D01*
X162810166Y-94614663D01*
X162811207Y-94604084D01*
X162815947Y-94580256D01*
X162844116Y-94487398D01*
X162853411Y-94464960D01*
X162899152Y-94379387D01*
X162912649Y-94359187D01*
X162952264Y-94310916D01*
X162957425Y-94305020D01*
X163036637Y-94220152D01*
X163039577Y-94217108D01*
X163055074Y-94201611D01*
X163100264Y-94172800D01*
X163139400Y-94158527D01*
X163180010Y-94151038D01*
X163301578Y-94149207D01*
X163301725Y-94149204D01*
X163301750Y-94149204D01*
X163302071Y-94149198D01*
X163302386Y-94149192D01*
X163302420Y-94149192D01*
X163302428Y-94149191D01*
X163302531Y-94149190D01*
X163302630Y-94149188D01*
X163303241Y-94149175D01*
X163505058Y-94144432D01*
X163518216Y-94143357D01*
X163526451Y-94142686D01*
X163526454Y-94142685D01*
X163526473Y-94142684D01*
X163529153Y-94142308D01*
X163550235Y-94138092D01*
X163649873Y-94112080D01*
X163667293Y-94108843D01*
X163694777Y-94105747D01*
X163750675Y-94086186D01*
X163760256Y-94083265D01*
X163783489Y-94077201D01*
X163795574Y-94073603D01*
X163797081Y-94073098D01*
X163799173Y-94072383D01*
X163799185Y-94072375D01*
X163805632Y-94069306D01*
X163805639Y-94069322D01*
X163823728Y-94060624D01*
X163860789Y-94047657D01*
X164009713Y-93954082D01*
X164134081Y-93829714D01*
X164227656Y-93680790D01*
X164285746Y-93514778D01*
X164286134Y-93511339D01*
X164305439Y-93340003D01*
X164305439Y-93339998D01*
X164285747Y-93165229D01*
X164285746Y-93165227D01*
X164285746Y-93165224D01*
X164227656Y-92999212D01*
X164213631Y-92976892D01*
X164144270Y-92866504D01*
X164134081Y-92850288D01*
X164009713Y-92725920D01*
X164009711Y-92725919D01*
X163860790Y-92632345D01*
X163694771Y-92574253D01*
X163520003Y-92554562D01*
X163519997Y-92554562D01*
X163345228Y-92574253D01*
X163179209Y-92632345D01*
X163030286Y-92725920D01*
X162905919Y-92850287D01*
X162812344Y-92999212D01*
X162812341Y-92999218D01*
X162800336Y-93033524D01*
X162790761Y-93054430D01*
X162785948Y-93062789D01*
X162785945Y-93062797D01*
X162708161Y-93292798D01*
X162704584Y-93304665D01*
X162704183Y-93306177D01*
X162701413Y-93318221D01*
X162666013Y-93499705D01*
X162665696Y-93501367D01*
X162665658Y-93501571D01*
X162665217Y-93504041D01*
X162641988Y-93639450D01*
X162637432Y-93657628D01*
X162597487Y-93777686D01*
X162587688Y-93799712D01*
X162483286Y-93983769D01*
X162483283Y-93983774D01*
X162482549Y-93985866D01*
X162465878Y-94017648D01*
X162410349Y-94094077D01*
X162410348Y-94094078D01*
X162325996Y-94259626D01*
X162325991Y-94259636D01*
X162325991Y-94259638D01*
X162310313Y-94307890D01*
X162268568Y-94436363D01*
X162239500Y-94619885D01*
X162239500Y-94656348D01*
X162219814Y-94723387D01*
X162167009Y-94769141D01*
X162097850Y-94779082D01*
X162034295Y-94750056D01*
X162027819Y-94744026D01*
X162009713Y-94725920D01*
X161860790Y-94632345D01*
X161694771Y-94574253D01*
X161520003Y-94554562D01*
X161519997Y-94554562D01*
X161345228Y-94574253D01*
X161179209Y-94632345D01*
X161030286Y-94725920D01*
X160905919Y-94850287D01*
X160812344Y-94999210D01*
X160754252Y-95165229D01*
X160734561Y-95339998D01*
X160734561Y-95340003D01*
X160754252Y-95514772D01*
X160812344Y-95680791D01*
X160881972Y-95791603D01*
X160905919Y-95829714D01*
X161030287Y-95954082D01*
X161179211Y-96047657D01*
X161345223Y-96105747D01*
X161345226Y-96105747D01*
X161345228Y-96105748D01*
X161519997Y-96125440D01*
X161520000Y-96125440D01*
X161520003Y-96125440D01*
X161694771Y-96105748D01*
X161694772Y-96105747D01*
X161694777Y-96105747D01*
X161860789Y-96047657D01*
X162009713Y-95954082D01*
X162027819Y-95935976D01*
X162089142Y-95902491D01*
X162158834Y-95907475D01*
X162214767Y-95949347D01*
X162239184Y-96014811D01*
X162239500Y-96023657D01*
X162239500Y-96415842D01*
X162239494Y-96415862D01*
X162239495Y-96560116D01*
X162268564Y-96743639D01*
X162268566Y-96743645D01*
X162325987Y-96920365D01*
X162325988Y-96920366D01*
X162325992Y-96920376D01*
X162410336Y-97085908D01*
X162410341Y-97085916D01*
X162410346Y-97085926D01*
X162417275Y-97095463D01*
X162465922Y-97162420D01*
X162480489Y-97190813D01*
X162480817Y-97190668D01*
X162483289Y-97196237D01*
X162587687Y-97380283D01*
X162597489Y-97402316D01*
X162637430Y-97522360D01*
X162641987Y-97540542D01*
X162665194Y-97675830D01*
X162665568Y-97677934D01*
X162665612Y-97678173D01*
X162666018Y-97680320D01*
X162701405Y-97861741D01*
X162704182Y-97873819D01*
X162704580Y-97875321D01*
X162708159Y-97887196D01*
X162785947Y-98117205D01*
X162787911Y-98122724D01*
X162788165Y-98123404D01*
X162788168Y-98123411D01*
X162789302Y-98125177D01*
X162801992Y-98151205D01*
X162812343Y-98180788D01*
X162812345Y-98180791D01*
X162905919Y-98329713D01*
X162924025Y-98347819D01*
X162957510Y-98409142D01*
X162952526Y-98478834D01*
X162910654Y-98534767D01*
X162845190Y-98559184D01*
X162836344Y-98559500D01*
X162203656Y-98559500D01*
X162136617Y-98539815D01*
X162090862Y-98487011D01*
X162080918Y-98417853D01*
X162109943Y-98354297D01*
X162115975Y-98347819D01*
X162115980Y-98347814D01*
X162134081Y-98329713D01*
X162227656Y-98180789D01*
X162285746Y-98014777D01*
X162301460Y-97875319D01*
X162305439Y-97840002D01*
X162305439Y-97839997D01*
X162285747Y-97665228D01*
X162285746Y-97665226D01*
X162285746Y-97665223D01*
X162227656Y-97499211D01*
X162134081Y-97350287D01*
X162009713Y-97225919D01*
X161979817Y-97207134D01*
X161860790Y-97132344D01*
X161728082Y-97085908D01*
X161694777Y-97074254D01*
X161694776Y-97074253D01*
X161694771Y-97074252D01*
X161520003Y-97054561D01*
X161519997Y-97054561D01*
X161345228Y-97074252D01*
X161179209Y-97132344D01*
X161030286Y-97225919D01*
X160905919Y-97350286D01*
X160812344Y-97499209D01*
X160754252Y-97665228D01*
X160734561Y-97839997D01*
X160734561Y-97840002D01*
X160754252Y-98014771D01*
X160812344Y-98180790D01*
X160905919Y-98329713D01*
X160924025Y-98347819D01*
X160957510Y-98409142D01*
X160952526Y-98478834D01*
X160910654Y-98534767D01*
X160845190Y-98559184D01*
X160836344Y-98559500D01*
X160203656Y-98559500D01*
X160136617Y-98539815D01*
X160090862Y-98487011D01*
X160080918Y-98417853D01*
X160109943Y-98354297D01*
X160115975Y-98347819D01*
X160115980Y-98347814D01*
X160134081Y-98329713D01*
X160227656Y-98180789D01*
X160285746Y-98014777D01*
X160301460Y-97875319D01*
X160305439Y-97840002D01*
X160305439Y-97839997D01*
X160285747Y-97665228D01*
X160285746Y-97665226D01*
X160285746Y-97665223D01*
X160227656Y-97499211D01*
X160134081Y-97350287D01*
X160009713Y-97225919D01*
X159979817Y-97207134D01*
X159860790Y-97132344D01*
X159728082Y-97085908D01*
X159694777Y-97074254D01*
X159694776Y-97074253D01*
X159694771Y-97074252D01*
X159520003Y-97054561D01*
X159519997Y-97054561D01*
X159345228Y-97074252D01*
X159179209Y-97132344D01*
X159030286Y-97225919D01*
X158905919Y-97350286D01*
X158812344Y-97499209D01*
X158754252Y-97665228D01*
X158734561Y-97839997D01*
X158734561Y-97840002D01*
X158754252Y-98014771D01*
X158812344Y-98180790D01*
X158905919Y-98329713D01*
X158924020Y-98347814D01*
X158957505Y-98409137D01*
X158952521Y-98478829D01*
X158910649Y-98534762D01*
X158845185Y-98559179D01*
X158836342Y-98559495D01*
X158799883Y-98559495D01*
X158616360Y-98588564D01*
X158563481Y-98605746D01*
X158439635Y-98645987D01*
X158439633Y-98645987D01*
X158439633Y-98645988D01*
X158439623Y-98645992D01*
X158274091Y-98730336D01*
X158274077Y-98730344D01*
X158274074Y-98730345D01*
X158274074Y-98730346D01*
X158261110Y-98739765D01*
X158197581Y-98785922D01*
X158169180Y-98800489D01*
X158169327Y-98800819D01*
X158163761Y-98803289D01*
X157979712Y-98907688D01*
X157957679Y-98917489D01*
X157837635Y-98957430D01*
X157819453Y-98961987D01*
X157684107Y-98985204D01*
X157681930Y-98985591D01*
X157681697Y-98985634D01*
X157679764Y-98986001D01*
X157498220Y-99021413D01*
X157486176Y-99024183D01*
X157484664Y-99024584D01*
X157472807Y-99028158D01*
X157242768Y-99105955D01*
X157237199Y-99107938D01*
X157236514Y-99108194D01*
X157236504Y-99108199D01*
X157234761Y-99109319D01*
X157208721Y-99122017D01*
X157179212Y-99132343D01*
X157179208Y-99132345D01*
X157030286Y-99225919D01*
X156905919Y-99350286D01*
X156812344Y-99499209D01*
X156754252Y-99665228D01*
X156734561Y-99839997D01*
X156305439Y-99839997D01*
X156285747Y-99665228D01*
X156285746Y-99665224D01*
X156285746Y-99665223D01*
X156227656Y-99499211D01*
X156217753Y-99483451D01*
X156156678Y-99386250D01*
X156134081Y-99350287D01*
X156009713Y-99225919D01*
X156008096Y-99224903D01*
X155860790Y-99132344D01*
X155694771Y-99074252D01*
X155520003Y-99054561D01*
X155519997Y-99054561D01*
X155345228Y-99074252D01*
X155179209Y-99132344D01*
X155030286Y-99225919D01*
X154905919Y-99350286D01*
X154812344Y-99499209D01*
X154754252Y-99665228D01*
X154734561Y-99839997D01*
X152490500Y-99839997D01*
X152490500Y-97839997D01*
X154734562Y-97839997D01*
X154734562Y-97840002D01*
X154754253Y-98014771D01*
X154812345Y-98180790D01*
X154812346Y-98180791D01*
X154905920Y-98329713D01*
X155030288Y-98454081D01*
X155179212Y-98547656D01*
X155345224Y-98605746D01*
X155345227Y-98605746D01*
X155345229Y-98605747D01*
X155519998Y-98625439D01*
X155520001Y-98625439D01*
X155520004Y-98625439D01*
X155694772Y-98605747D01*
X155694773Y-98605746D01*
X155694778Y-98605746D01*
X155860790Y-98547656D01*
X156009714Y-98454081D01*
X156134082Y-98329713D01*
X156227657Y-98180789D01*
X156285747Y-98014777D01*
X156301461Y-97875319D01*
X156305440Y-97840002D01*
X156305440Y-97839997D01*
X156285748Y-97665228D01*
X156285747Y-97665226D01*
X156285747Y-97665223D01*
X156227657Y-97499211D01*
X156134082Y-97350287D01*
X156009714Y-97225919D01*
X155979818Y-97207134D01*
X155860791Y-97132344D01*
X155728083Y-97085908D01*
X155694778Y-97074254D01*
X155694777Y-97074253D01*
X155694772Y-97074252D01*
X155520004Y-97054561D01*
X155519998Y-97054561D01*
X155345229Y-97074252D01*
X155179210Y-97132344D01*
X155030287Y-97225919D01*
X154905920Y-97350286D01*
X154812345Y-97499209D01*
X154754253Y-97665228D01*
X154734562Y-97839997D01*
X152490500Y-97839997D01*
X152490500Y-95547908D01*
X152510185Y-95480869D01*
X152562989Y-95435114D01*
X152632147Y-95425170D01*
X152695703Y-95454195D01*
X152733477Y-95512973D01*
X152734972Y-95518708D01*
X152794666Y-95689305D01*
X152803339Y-95703108D01*
X153120001Y-95386446D01*
X153120001Y-95392662D01*
X153147260Y-95494395D01*
X153199921Y-95585607D01*
X153274395Y-95660081D01*
X153365607Y-95712742D01*
X153467340Y-95740001D01*
X153473554Y-95740001D01*
X153156893Y-96056661D01*
X153156893Y-96056662D01*
X153170693Y-96065334D01*
X153170692Y-96065334D01*
X153340862Y-96124879D01*
X153519998Y-96145063D01*
X153520004Y-96145063D01*
X153699139Y-96124879D01*
X153699142Y-96124878D01*
X153869306Y-96065335D01*
X153869307Y-96065335D01*
X153883107Y-96056662D01*
X153883107Y-96056661D01*
X153566449Y-95740001D01*
X153572662Y-95740001D01*
X153674395Y-95712742D01*
X153765607Y-95660081D01*
X153840081Y-95585607D01*
X153892742Y-95494395D01*
X153920001Y-95392662D01*
X153920001Y-95386447D01*
X154236661Y-95703107D01*
X154236662Y-95703107D01*
X154245335Y-95689307D01*
X154245335Y-95689306D01*
X154304878Y-95519142D01*
X154304879Y-95519139D01*
X154325063Y-95340003D01*
X154325063Y-95339998D01*
X154734561Y-95339998D01*
X154734561Y-95340003D01*
X154754252Y-95514772D01*
X154812344Y-95680791D01*
X154881972Y-95791603D01*
X154905919Y-95829714D01*
X155030287Y-95954082D01*
X155179211Y-96047657D01*
X155345223Y-96105747D01*
X155345226Y-96105747D01*
X155345228Y-96105748D01*
X155519997Y-96125440D01*
X155520000Y-96125440D01*
X155520003Y-96125440D01*
X155694771Y-96105748D01*
X155694772Y-96105747D01*
X155694777Y-96105747D01*
X155860789Y-96047657D01*
X156009713Y-95954082D01*
X156027819Y-95935976D01*
X156089142Y-95902491D01*
X156158834Y-95907475D01*
X156214767Y-95949347D01*
X156239184Y-96014811D01*
X156239500Y-96023657D01*
X156239500Y-96469890D01*
X156239498Y-96469916D01*
X156239498Y-96477967D01*
X156239469Y-96478065D01*
X156239475Y-96610460D01*
X156264857Y-96770663D01*
X156314990Y-96924930D01*
X156372257Y-97037310D01*
X156388636Y-97069452D01*
X156433059Y-97130590D01*
X156447728Y-97158892D01*
X156447897Y-97158816D01*
X156449369Y-97162060D01*
X156450133Y-97163533D01*
X156450414Y-97164361D01*
X156468848Y-97196235D01*
X156563306Y-97359565D01*
X156572462Y-97379170D01*
X156619907Y-97509324D01*
X156624746Y-97526245D01*
X156627756Y-97540542D01*
X156654533Y-97667725D01*
X156654549Y-97667802D01*
X156654559Y-97667846D01*
X156654997Y-97669867D01*
X156679207Y-97778157D01*
X156696953Y-97857536D01*
X156698025Y-97861762D01*
X156699545Y-97867757D01*
X156699913Y-97869053D01*
X156703121Y-97879219D01*
X156786386Y-98118808D01*
X156788168Y-98123712D01*
X156788184Y-98123753D01*
X156788419Y-98124372D01*
X156788939Y-98125177D01*
X156789555Y-98126131D01*
X156802422Y-98152434D01*
X156812344Y-98180790D01*
X156812345Y-98180791D01*
X156905919Y-98329713D01*
X157030287Y-98454081D01*
X157179211Y-98547656D01*
X157345223Y-98605746D01*
X157345226Y-98605746D01*
X157345228Y-98605747D01*
X157519997Y-98625439D01*
X157520000Y-98625439D01*
X157520003Y-98625439D01*
X157694771Y-98605747D01*
X157694772Y-98605746D01*
X157694777Y-98605746D01*
X157860789Y-98547656D01*
X158009713Y-98454081D01*
X158134081Y-98329713D01*
X158227656Y-98180789D01*
X158285746Y-98014777D01*
X158301460Y-97875319D01*
X158305439Y-97840002D01*
X158305439Y-97839997D01*
X158285747Y-97665228D01*
X158285746Y-97665226D01*
X158285746Y-97665223D01*
X158227656Y-97499211D01*
X158134081Y-97350287D01*
X158009713Y-97225919D01*
X157911744Y-97164361D01*
X157860791Y-97132345D01*
X157860790Y-97132344D01*
X157811238Y-97115005D01*
X157797139Y-97109072D01*
X157785124Y-97103118D01*
X157774717Y-97100309D01*
X157774707Y-97100306D01*
X157766785Y-97098167D01*
X157755077Y-97095005D01*
X157746451Y-97092335D01*
X157694774Y-97074253D01*
X157694772Y-97074252D01*
X157675693Y-97072102D01*
X157657265Y-97068597D01*
X157555675Y-97041170D01*
X157541715Y-97037402D01*
X157541711Y-97037401D01*
X157541699Y-97037398D01*
X157522148Y-97033237D01*
X157522138Y-97033235D01*
X157522136Y-97033235D01*
X157519652Y-97032845D01*
X157519651Y-97032844D01*
X157519639Y-97032843D01*
X157499705Y-97030809D01*
X157499689Y-97030808D01*
X157290913Y-97020857D01*
X157290864Y-97020840D01*
X157290775Y-97020850D01*
X157283308Y-97020486D01*
X157163172Y-97014625D01*
X157123261Y-97005942D01*
X157079342Y-96988418D01*
X157037615Y-96960929D01*
X156981714Y-96905028D01*
X156978075Y-96901232D01*
X156967797Y-96890043D01*
X156967791Y-96890037D01*
X156911871Y-96829165D01*
X156912036Y-96829012D01*
X156907316Y-96823925D01*
X156887361Y-96799612D01*
X156873855Y-96779401D01*
X156854741Y-96743645D01*
X156841976Y-96719767D01*
X156832675Y-96697314D01*
X156813040Y-96632599D01*
X156808300Y-96608768D01*
X156801098Y-96535675D01*
X156800500Y-96523517D01*
X156800500Y-95808635D01*
X156820185Y-95741596D01*
X156872989Y-95695841D01*
X156942147Y-95685897D01*
X157005703Y-95714922D01*
X157027604Y-95739747D01*
X157029483Y-95742559D01*
X157029485Y-95742562D01*
X157117439Y-95830516D01*
X157117443Y-95830519D01*
X157220866Y-95899625D01*
X157220875Y-95899630D01*
X157244684Y-95909492D01*
X157335799Y-95947233D01*
X157457799Y-95971500D01*
X157457803Y-95971501D01*
X157457804Y-95971501D01*
X157582199Y-95971501D01*
X157582200Y-95971500D01*
X157704203Y-95947233D01*
X157819129Y-95899629D01*
X157922559Y-95830519D01*
X158010519Y-95742559D01*
X158079629Y-95639129D01*
X158127233Y-95524203D01*
X158151501Y-95402198D01*
X158151501Y-95339998D01*
X158734561Y-95339998D01*
X158734561Y-95340003D01*
X158754252Y-95514772D01*
X158812344Y-95680791D01*
X158881972Y-95791603D01*
X158905919Y-95829714D01*
X159030287Y-95954082D01*
X159179211Y-96047657D01*
X159345223Y-96105747D01*
X159345226Y-96105747D01*
X159345228Y-96105748D01*
X159519997Y-96125440D01*
X159520000Y-96125440D01*
X159520003Y-96125440D01*
X159694771Y-96105748D01*
X159694772Y-96105747D01*
X159694777Y-96105747D01*
X159860789Y-96047657D01*
X160009713Y-95954082D01*
X160134081Y-95829714D01*
X160227656Y-95680790D01*
X160285746Y-95514778D01*
X160285950Y-95512973D01*
X160305439Y-95340003D01*
X160305439Y-95339998D01*
X160285747Y-95165229D01*
X160285746Y-95165227D01*
X160285746Y-95165224D01*
X160227656Y-94999212D01*
X160213631Y-94976892D01*
X160134080Y-94850287D01*
X160009713Y-94725920D01*
X159860790Y-94632345D01*
X159694771Y-94574253D01*
X159520003Y-94554562D01*
X159519997Y-94554562D01*
X159345228Y-94574253D01*
X159179209Y-94632345D01*
X159030286Y-94725920D01*
X158905919Y-94850287D01*
X158812344Y-94999210D01*
X158754252Y-95165229D01*
X158734561Y-95339998D01*
X158151501Y-95339998D01*
X158151501Y-95277804D01*
X158127233Y-95155799D01*
X158079629Y-95040873D01*
X158079628Y-95040872D01*
X158079625Y-95040866D01*
X158010519Y-94937443D01*
X158010516Y-94937439D01*
X157922562Y-94849485D01*
X157922558Y-94849482D01*
X157819135Y-94780376D01*
X157819126Y-94780371D01*
X157704203Y-94732769D01*
X157704195Y-94732767D01*
X157582202Y-94708501D01*
X157582198Y-94708501D01*
X157457804Y-94708501D01*
X157457799Y-94708501D01*
X157335806Y-94732767D01*
X157335798Y-94732769D01*
X157220875Y-94780371D01*
X157220866Y-94780376D01*
X157117443Y-94849482D01*
X157117439Y-94849485D01*
X157029484Y-94937440D01*
X157027600Y-94940261D01*
X157026231Y-94941404D01*
X157025619Y-94942151D01*
X157025477Y-94942034D01*
X156973986Y-94985064D01*
X156904661Y-94993769D01*
X156841634Y-94963612D01*
X156804917Y-94904167D01*
X156800500Y-94871366D01*
X156800500Y-94711943D01*
X156800501Y-94711922D01*
X156800501Y-94702045D01*
X156800530Y-94701942D01*
X156800527Y-94644170D01*
X156800524Y-94569542D01*
X156798239Y-94555122D01*
X156775142Y-94409336D01*
X156772302Y-94400597D01*
X156725010Y-94255071D01*
X156651364Y-94110548D01*
X156606938Y-94049406D01*
X156592275Y-94021111D01*
X156592105Y-94021189D01*
X156590617Y-94017912D01*
X156589861Y-94016453D01*
X156589584Y-94015638D01*
X156476690Y-93820433D01*
X156467537Y-93800835D01*
X156420083Y-93670655D01*
X156415251Y-93653757D01*
X156385480Y-93512346D01*
X156385248Y-93511263D01*
X156385217Y-93511120D01*
X156384960Y-93509950D01*
X156346967Y-93339998D01*
X156734561Y-93339998D01*
X156734561Y-93340003D01*
X156754252Y-93514772D01*
X156812344Y-93680791D01*
X156887769Y-93800829D01*
X156905919Y-93829714D01*
X157030287Y-93954082D01*
X157118372Y-94009430D01*
X157141013Y-94023656D01*
X157179211Y-94047657D01*
X157345223Y-94105747D01*
X157345226Y-94105747D01*
X157345228Y-94105748D01*
X157519997Y-94125440D01*
X157520000Y-94125440D01*
X157520003Y-94125440D01*
X157694771Y-94105748D01*
X157694772Y-94105747D01*
X157694777Y-94105747D01*
X157860789Y-94047657D01*
X158009713Y-93954082D01*
X158134081Y-93829714D01*
X158227656Y-93680790D01*
X158285746Y-93514778D01*
X158286134Y-93511339D01*
X158305439Y-93340003D01*
X158305439Y-93339998D01*
X158714938Y-93339998D01*
X158714938Y-93340003D01*
X158735121Y-93519139D01*
X158794665Y-93689305D01*
X158803338Y-93703108D01*
X159120000Y-93386446D01*
X159120000Y-93392662D01*
X159147259Y-93494395D01*
X159199920Y-93585607D01*
X159274394Y-93660081D01*
X159365606Y-93712742D01*
X159467339Y-93740001D01*
X159473553Y-93740001D01*
X159156892Y-94056661D01*
X159156892Y-94056662D01*
X159170692Y-94065334D01*
X159170691Y-94065334D01*
X159340861Y-94124879D01*
X159519997Y-94145063D01*
X159520003Y-94145063D01*
X159699138Y-94124879D01*
X159699141Y-94124878D01*
X159869305Y-94065335D01*
X159869306Y-94065335D01*
X159883106Y-94056662D01*
X159883106Y-94056661D01*
X159566448Y-93740001D01*
X159572661Y-93740001D01*
X159674394Y-93712742D01*
X159765606Y-93660081D01*
X159840080Y-93585607D01*
X159892741Y-93494395D01*
X159920000Y-93392662D01*
X159920000Y-93386447D01*
X160236660Y-93703107D01*
X160236661Y-93703107D01*
X160245334Y-93689307D01*
X160245334Y-93689306D01*
X160304877Y-93519142D01*
X160304878Y-93519139D01*
X160325062Y-93340003D01*
X160325062Y-93339998D01*
X160304878Y-93160862D01*
X160245333Y-92990693D01*
X160236661Y-92976893D01*
X160236660Y-92976893D01*
X159920000Y-93293553D01*
X159920000Y-93287340D01*
X159892741Y-93185607D01*
X159840080Y-93094395D01*
X159765606Y-93019921D01*
X159674394Y-92967260D01*
X159572661Y-92940001D01*
X159566447Y-92940001D01*
X159883107Y-92623339D01*
X159869304Y-92614666D01*
X159699138Y-92555122D01*
X159520003Y-92534939D01*
X159519997Y-92534939D01*
X159340861Y-92555122D01*
X159340858Y-92555123D01*
X159170701Y-92614663D01*
X159170691Y-92614668D01*
X159156891Y-92623338D01*
X159156891Y-92623339D01*
X159473554Y-92940001D01*
X159467339Y-92940001D01*
X159365606Y-92967260D01*
X159274394Y-93019921D01*
X159199920Y-93094395D01*
X159147259Y-93185607D01*
X159120000Y-93287340D01*
X159120000Y-93293554D01*
X158803338Y-92976892D01*
X158803337Y-92976892D01*
X158794667Y-92990692D01*
X158794662Y-92990702D01*
X158735122Y-93160859D01*
X158735121Y-93160862D01*
X158714938Y-93339998D01*
X158305439Y-93339998D01*
X158285747Y-93165229D01*
X158285746Y-93165227D01*
X158285746Y-93165224D01*
X158227656Y-92999212D01*
X158213631Y-92976892D01*
X158144270Y-92866504D01*
X158134081Y-92850288D01*
X158009713Y-92725920D01*
X158009711Y-92725919D01*
X157860790Y-92632345D01*
X157694771Y-92574253D01*
X157520003Y-92554562D01*
X157519997Y-92554562D01*
X157345228Y-92574253D01*
X157179209Y-92632345D01*
X157030286Y-92725920D01*
X156905919Y-92850287D01*
X156812344Y-92999210D01*
X156754252Y-93165229D01*
X156734561Y-93339998D01*
X156346967Y-93339998D01*
X156343049Y-93322474D01*
X156340453Y-93312239D01*
X156340087Y-93310951D01*
X156336871Y-93300762D01*
X156335938Y-93298077D01*
X156253638Y-93061262D01*
X156253613Y-93061192D01*
X156251816Y-93056247D01*
X156251581Y-93055628D01*
X156250449Y-93053875D01*
X156237578Y-93027567D01*
X156227657Y-92999212D01*
X156134082Y-92850288D01*
X156009714Y-92725920D01*
X156009712Y-92725919D01*
X155860791Y-92632345D01*
X155694772Y-92574253D01*
X155520004Y-92554562D01*
X155519998Y-92554562D01*
X155345229Y-92574253D01*
X155179210Y-92632345D01*
X155030287Y-92725920D01*
X154905920Y-92850287D01*
X154812345Y-92999210D01*
X154754253Y-93165229D01*
X154734562Y-93339998D01*
X154734562Y-93340003D01*
X154754253Y-93514772D01*
X154812345Y-93680791D01*
X154887770Y-93800829D01*
X154905920Y-93829714D01*
X155030288Y-93954082D01*
X155179212Y-94047657D01*
X155228775Y-94064999D01*
X155242866Y-94070929D01*
X155254878Y-94076882D01*
X155284919Y-94084992D01*
X155293510Y-94087651D01*
X155345224Y-94105747D01*
X155364312Y-94107897D01*
X155382739Y-94111401D01*
X155481593Y-94138090D01*
X155497219Y-94142309D01*
X155498279Y-94142595D01*
X155517887Y-94146767D01*
X155520380Y-94147158D01*
X155540289Y-94149188D01*
X155540310Y-94149189D01*
X155623758Y-94153167D01*
X155623759Y-94153167D01*
X155749309Y-94159152D01*
X155749313Y-94159152D01*
X155749725Y-94159171D01*
X155876822Y-94165371D01*
X155916733Y-94174054D01*
X155960654Y-94191579D01*
X156002381Y-94219068D01*
X156058297Y-94274984D01*
X156061933Y-94278777D01*
X156128132Y-94350839D01*
X156127971Y-94350986D01*
X156132688Y-94356080D01*
X156150648Y-94377962D01*
X156151819Y-94379389D01*
X156152637Y-94380385D01*
X156166142Y-94400595D01*
X156184886Y-94435658D01*
X156198021Y-94460229D01*
X156207324Y-94482685D01*
X156226957Y-94547393D01*
X156231700Y-94571235D01*
X156238887Y-94644170D01*
X156225872Y-94712817D01*
X156177809Y-94763529D01*
X156109959Y-94780207D01*
X156043864Y-94757554D01*
X156027804Y-94744011D01*
X156009713Y-94725920D01*
X155860790Y-94632345D01*
X155694771Y-94574253D01*
X155520003Y-94554562D01*
X155519997Y-94554562D01*
X155345228Y-94574253D01*
X155179209Y-94632345D01*
X155030286Y-94725920D01*
X154905919Y-94850287D01*
X154812344Y-94999210D01*
X154754252Y-95165229D01*
X154734561Y-95339998D01*
X154325063Y-95339998D01*
X154304879Y-95160862D01*
X154245334Y-94990693D01*
X154236662Y-94976893D01*
X154236661Y-94976893D01*
X153920001Y-95293553D01*
X153920001Y-95287340D01*
X153892742Y-95185607D01*
X153840081Y-95094395D01*
X153765607Y-95019921D01*
X153674395Y-94967260D01*
X153572662Y-94940001D01*
X153566448Y-94940001D01*
X153883108Y-94623339D01*
X153869305Y-94614666D01*
X153699139Y-94555122D01*
X153520004Y-94534939D01*
X153519998Y-94534939D01*
X153340862Y-94555122D01*
X153340859Y-94555123D01*
X153170702Y-94614663D01*
X153170692Y-94614668D01*
X153156892Y-94623338D01*
X153156892Y-94623339D01*
X153473555Y-94940001D01*
X153467340Y-94940001D01*
X153365607Y-94967260D01*
X153274395Y-95019921D01*
X153199921Y-95094395D01*
X153147260Y-95185607D01*
X153120001Y-95287340D01*
X153120001Y-95293554D01*
X152803339Y-94976892D01*
X152803338Y-94976892D01*
X152794668Y-94990692D01*
X152794663Y-94990702D01*
X152732824Y-95167431D01*
X152731348Y-95166914D01*
X152701280Y-95220667D01*
X152639617Y-95253523D01*
X152569980Y-95247825D01*
X152514478Y-95205384D01*
X152490732Y-95139673D01*
X152490500Y-95132093D01*
X152490500Y-93381924D01*
X152502696Y-93340387D01*
X152501087Y-93337132D01*
X152727142Y-93337132D01*
X152733477Y-93346989D01*
X152737720Y-93368040D01*
X152754252Y-93514772D01*
X152812344Y-93680791D01*
X152887769Y-93800829D01*
X152905919Y-93829714D01*
X153030287Y-93954082D01*
X153118372Y-94009430D01*
X153141013Y-94023656D01*
X153179211Y-94047657D01*
X153345223Y-94105747D01*
X153345226Y-94105747D01*
X153345228Y-94105748D01*
X153519997Y-94125440D01*
X153520000Y-94125440D01*
X153520003Y-94125440D01*
X153694771Y-94105748D01*
X153694772Y-94105747D01*
X153694777Y-94105747D01*
X153860789Y-94047657D01*
X154009713Y-93954082D01*
X154134081Y-93829714D01*
X154227656Y-93680790D01*
X154285746Y-93514778D01*
X154286134Y-93511339D01*
X154305439Y-93340003D01*
X154305439Y-93339998D01*
X154285747Y-93165229D01*
X154285746Y-93165227D01*
X154285746Y-93165224D01*
X154227656Y-92999212D01*
X154213631Y-92976892D01*
X154144270Y-92866504D01*
X154134081Y-92850288D01*
X154009713Y-92725920D01*
X154009711Y-92725919D01*
X153860790Y-92632345D01*
X153694771Y-92574253D01*
X153520003Y-92554562D01*
X153519997Y-92554562D01*
X153345228Y-92574253D01*
X153179209Y-92632345D01*
X153030286Y-92725920D01*
X152905919Y-92850287D01*
X152812344Y-92999210D01*
X152754252Y-93165229D01*
X152737720Y-93311961D01*
X152727142Y-93337132D01*
X152501087Y-93337132D01*
X152492360Y-93319471D01*
X152490500Y-93298077D01*
X152490500Y-88698125D01*
X152491561Y-88681940D01*
X152501300Y-88607964D01*
X152509678Y-88576697D01*
X152535095Y-88515334D01*
X152551281Y-88487299D01*
X152591716Y-88434604D01*
X152614604Y-88411716D01*
X152667299Y-88371281D01*
X152695334Y-88355095D01*
X152756697Y-88329678D01*
X152787963Y-88321300D01*
X152861941Y-88311561D01*
X152878126Y-88310500D01*
X152909882Y-88310500D01*
X170130118Y-88310500D01*
X170161874Y-88310500D01*
X170178059Y-88311561D01*
G37*
%TD.AperFunction*%
%TD*%
%TA.AperFunction,Conductor*%
%TO.N,Net-(P1-F_LAD2)*%
G36*
X162977214Y-93115150D02*
G01*
X163113498Y-93171339D01*
X163516056Y-93337315D01*
X163522397Y-93343636D01*
X163522411Y-93343669D01*
X163744495Y-93881933D01*
X163744482Y-93890887D01*
X163738141Y-93897211D01*
X163736634Y-93897716D01*
X163503380Y-93958607D01*
X163500700Y-93958983D01*
X163298883Y-93963726D01*
X163298784Y-93963728D01*
X163124951Y-93966347D01*
X162965511Y-94024495D01*
X162965510Y-94024495D01*
X162965509Y-94024496D01*
X162812351Y-94188591D01*
X162804201Y-94192301D01*
X162797298Y-94190336D01*
X162648316Y-94090788D01*
X162643341Y-94083342D01*
X162644638Y-94075289D01*
X162763955Y-93864939D01*
X162820852Y-93693931D01*
X162848031Y-93535492D01*
X162848074Y-93535261D01*
X162883481Y-93353741D01*
X162883877Y-93352249D01*
X162961672Y-93122217D01*
X162967567Y-93115479D01*
X162976502Y-93114884D01*
X162977214Y-93115150D01*
G37*
%TD.AperFunction*%
%TD*%
%TA.AperFunction,Conductor*%
%TO.N,Net-(P1-F_LAD2)*%
G36*
X162812350Y-96991408D02*
G01*
X162965512Y-97155504D01*
X163124952Y-97213652D01*
X163298823Y-97216271D01*
X163500708Y-97221016D01*
X163503373Y-97221390D01*
X163736635Y-97282284D01*
X163743774Y-97287690D01*
X163745000Y-97296560D01*
X163744495Y-97298067D01*
X163522411Y-97836331D01*
X163516087Y-97842672D01*
X163516055Y-97842686D01*
X162977214Y-98064850D01*
X162968259Y-98064835D01*
X162961937Y-98058493D01*
X162961677Y-98057797D01*
X162883878Y-97827753D01*
X162883479Y-97826249D01*
X162848074Y-97644737D01*
X162848026Y-97644475D01*
X162820853Y-97486068D01*
X162763956Y-97315060D01*
X162644639Y-97104712D01*
X162643538Y-97095825D01*
X162648314Y-97089213D01*
X162797299Y-96989663D01*
X162806081Y-96987917D01*
X162812350Y-96991408D01*
G37*
%TD.AperFunction*%
%TD*%
%TA.AperFunction,Conductor*%
%TO.N,+3V0*%
G36*
X167294860Y-99296540D02*
G01*
X167295307Y-99297492D01*
X167519130Y-99835507D01*
X167519144Y-99844462D01*
X167519130Y-99844495D01*
X167295307Y-100382509D01*
X167288966Y-100388831D01*
X167280011Y-100388817D01*
X167279059Y-100388370D01*
X167051689Y-100268800D01*
X167050065Y-100267767D01*
X166889290Y-100145840D01*
X166889290Y-100145841D01*
X166750465Y-100040876D01*
X166579130Y-99967568D01*
X166579125Y-99967567D01*
X166330462Y-99941113D01*
X166322598Y-99936831D01*
X166320000Y-99929479D01*
X166320000Y-99750520D01*
X166323427Y-99742247D01*
X166330459Y-99738887D01*
X166579128Y-99712431D01*
X166750468Y-99639122D01*
X166889283Y-99534163D01*
X167050072Y-99412227D01*
X167051680Y-99411204D01*
X167279060Y-99291630D01*
X167287977Y-99290813D01*
X167294860Y-99296540D01*
G37*
%TD.AperFunction*%
%TD*%
%TA.AperFunction,Conductor*%
%TO.N,+3V0*%
G36*
X165759988Y-99291183D02*
G01*
X165760935Y-99291627D01*
X165988311Y-99411201D01*
X165989932Y-99412232D01*
X166150708Y-99534158D01*
X166150709Y-99534158D01*
X166150716Y-99534163D01*
X166289531Y-99639121D01*
X166289532Y-99639121D01*
X166289533Y-99639122D01*
X166460868Y-99712430D01*
X166460869Y-99712430D01*
X166460871Y-99712431D01*
X166709540Y-99738887D01*
X166717402Y-99743168D01*
X166720000Y-99750520D01*
X166720000Y-99929479D01*
X166716573Y-99937752D01*
X166709538Y-99941113D01*
X166460873Y-99967567D01*
X166460868Y-99967568D01*
X166289530Y-100040876D01*
X166150709Y-100145841D01*
X166150708Y-100145840D01*
X165989932Y-100267766D01*
X165988308Y-100268799D01*
X165760940Y-100388369D01*
X165752022Y-100389187D01*
X165745139Y-100383460D01*
X165744697Y-100382520D01*
X165520868Y-99844492D01*
X165520855Y-99835541D01*
X165744693Y-99297489D01*
X165751033Y-99291169D01*
X165759988Y-99291183D01*
G37*
%TD.AperFunction*%
%TD*%
%TA.AperFunction,Conductor*%
%TO.N,Net-(P1-F_SERIRQ)*%
G36*
X156071836Y-93115125D02*
G01*
X156078158Y-93121467D01*
X156078393Y-93122086D01*
X156161651Y-93361656D01*
X156162017Y-93362944D01*
X156203928Y-93550420D01*
X156203959Y-93550563D01*
X156238264Y-93713504D01*
X156238268Y-93713517D01*
X156302538Y-93889829D01*
X156302541Y-93889836D01*
X156302543Y-93889840D01*
X156302546Y-93889846D01*
X156302548Y-93889849D01*
X156429004Y-94108506D01*
X156430180Y-94117383D01*
X156425377Y-94124091D01*
X156276540Y-94223549D01*
X156267757Y-94225296D01*
X156261424Y-94221736D01*
X156165561Y-94117383D01*
X156102094Y-94048294D01*
X156102092Y-94048293D01*
X155937476Y-93982610D01*
X155758149Y-93973862D01*
X155758142Y-93973862D01*
X155632592Y-93967877D01*
X155549122Y-93963898D01*
X155546629Y-93963507D01*
X155303228Y-93897794D01*
X155296134Y-93892329D01*
X155294982Y-93883448D01*
X155295457Y-93882049D01*
X155517590Y-93343667D01*
X155523912Y-93337328D01*
X156062883Y-93115110D01*
X156071836Y-93115125D01*
G37*
%TD.AperFunction*%
%TD*%
%TA.AperFunction,Conductor*%
%TO.N,Net-(P1-F_SERIRQ)*%
G36*
X156778574Y-96958262D02*
G01*
X156832969Y-97017474D01*
X156937904Y-97131704D01*
X156937906Y-97131705D01*
X156937907Y-97131706D01*
X157102519Y-97197388D01*
X157281857Y-97206137D01*
X157490880Y-97216100D01*
X157493364Y-97216490D01*
X157720368Y-97277777D01*
X157736772Y-97282206D01*
X157743866Y-97287671D01*
X157745018Y-97296552D01*
X157744538Y-97297964D01*
X157522411Y-97836331D01*
X157516087Y-97842672D01*
X157516055Y-97842686D01*
X156977119Y-98064890D01*
X156968164Y-98064875D01*
X156961842Y-98058533D01*
X156961607Y-98057914D01*
X156878344Y-97818332D01*
X156877984Y-97817065D01*
X156836054Y-97629509D01*
X156801734Y-97466493D01*
X156801733Y-97466490D01*
X156801730Y-97466480D01*
X156737459Y-97290169D01*
X156737457Y-97290165D01*
X156737455Y-97290159D01*
X156610994Y-97071492D01*
X156609819Y-97062616D01*
X156614620Y-97055910D01*
X156763460Y-96956449D01*
X156772242Y-96954703D01*
X156778574Y-96958262D01*
G37*
%TD.AperFunction*%
%TD*%
%TA.AperFunction,Conductor*%
%TO.N,Net-(P1-F_LAD1)*%
G36*
X162305256Y-92428202D02*
G01*
X162431798Y-92554744D01*
X162435225Y-92563017D01*
X162432626Y-92570369D01*
X162275499Y-92764909D01*
X162262437Y-92797508D01*
X162206181Y-92937905D01*
X162182241Y-93110283D01*
X162154769Y-93310184D01*
X162154351Y-93312063D01*
X162078126Y-93557385D01*
X162072399Y-93564268D01*
X162063481Y-93565086D01*
X162062492Y-93564729D01*
X161523792Y-93342563D01*
X161517451Y-93336241D01*
X161517437Y-93336208D01*
X161506704Y-93310184D01*
X161295271Y-92797508D01*
X161295285Y-92788553D01*
X161301626Y-92782231D01*
X161302605Y-92781877D01*
X161547944Y-92705646D01*
X161549807Y-92705231D01*
X161749724Y-92677758D01*
X161922098Y-92653818D01*
X162095091Y-92584500D01*
X162289633Y-92427372D01*
X162298221Y-92424841D01*
X162305256Y-92428202D01*
G37*
%TD.AperFunction*%
%TD*%
%TA.AperFunction,Conductor*%
%TO.N,Net-(P1-F_LAD1)*%
G36*
X166242701Y-96989663D02*
G01*
X166391683Y-97089211D01*
X166396658Y-97096655D01*
X166395360Y-97104711D01*
X166276043Y-97315061D01*
X166219145Y-97486072D01*
X166191971Y-97644474D01*
X166191923Y-97644736D01*
X166156518Y-97826249D01*
X166156117Y-97827757D01*
X166078327Y-98057781D01*
X166072431Y-98064520D01*
X166063496Y-98065116D01*
X166062784Y-98064850D01*
X165523943Y-97842686D01*
X165517601Y-97836364D01*
X165517587Y-97836331D01*
X165514049Y-97827757D01*
X165295503Y-97298066D01*
X165295516Y-97289113D01*
X165301857Y-97282789D01*
X165303353Y-97282287D01*
X165536624Y-97221389D01*
X165539287Y-97221016D01*
X165741175Y-97216271D01*
X165915047Y-97213652D01*
X166074488Y-97155503D01*
X166227650Y-96991406D01*
X166235798Y-96987698D01*
X166242701Y-96989663D01*
G37*
%TD.AperFunction*%
%TD*%
%TA.AperFunction,Conductor*%
%TO.N,Net-(P1-C_PCICLK_TPM)*%
G36*
X170062509Y-95564694D02*
G01*
X170068830Y-95571034D01*
X170068816Y-95579989D01*
X170068369Y-95580941D01*
X169948799Y-95808309D01*
X169947766Y-95809933D01*
X169825840Y-95970709D01*
X169825841Y-95970710D01*
X169720876Y-96109531D01*
X169647568Y-96280869D01*
X169647567Y-96280874D01*
X169621113Y-96529539D01*
X169616831Y-96537403D01*
X169609479Y-96540001D01*
X169430521Y-96540001D01*
X169422248Y-96536574D01*
X169418887Y-96529539D01*
X169392431Y-96280874D01*
X169392430Y-96280869D01*
X169319122Y-96109534D01*
X169319121Y-96109533D01*
X169319121Y-96109532D01*
X169214163Y-95970717D01*
X169214158Y-95970710D01*
X169214158Y-95970709D01*
X169092232Y-95809933D01*
X169091199Y-95808309D01*
X168971630Y-95580941D01*
X168970812Y-95572023D01*
X168976539Y-95565140D01*
X168977470Y-95564702D01*
X169515507Y-95340869D01*
X169524458Y-95340856D01*
X170062509Y-95564694D01*
G37*
%TD.AperFunction*%
%TD*%
%TA.AperFunction,Conductor*%
%TO.N,Net-(P1-C_PCICLK_TPM)*%
G36*
X164071446Y-99615285D02*
G01*
X164077768Y-99621626D01*
X164078125Y-99622615D01*
X164154350Y-99867936D01*
X164154768Y-99869815D01*
X164182241Y-100069724D01*
X164206181Y-100242098D01*
X164275498Y-100415091D01*
X164432626Y-100609632D01*
X164435158Y-100618221D01*
X164431797Y-100625256D01*
X164305255Y-100751798D01*
X164296982Y-100755225D01*
X164289631Y-100752627D01*
X164095090Y-100595499D01*
X163922097Y-100526182D01*
X163922094Y-100526181D01*
X163922093Y-100526181D01*
X163784179Y-100507027D01*
X163749723Y-100502242D01*
X163749715Y-100502240D01*
X163549814Y-100474769D01*
X163547935Y-100474351D01*
X163302614Y-100398126D01*
X163295731Y-100392399D01*
X163294913Y-100383481D01*
X163295270Y-100382492D01*
X163353172Y-100242094D01*
X163517436Y-99843791D01*
X163523758Y-99837451D01*
X164062491Y-99615271D01*
X164071446Y-99615285D01*
G37*
%TD.AperFunction*%
%TD*%
%TA.AperFunction,Conductor*%
%TO.N,Net-(P1-S_PCIRST#_TBD)*%
G36*
X158270788Y-98968316D02*
G01*
X158370335Y-99117298D01*
X158372082Y-99126081D01*
X158368590Y-99132351D01*
X158204496Y-99285510D01*
X158204495Y-99285511D01*
X158204495Y-99285512D01*
X158146347Y-99444952D01*
X158143728Y-99618784D01*
X158143726Y-99618883D01*
X158138982Y-99820700D01*
X158138606Y-99823380D01*
X158077715Y-100056634D01*
X158072309Y-100063774D01*
X158063439Y-100065000D01*
X158061932Y-100064495D01*
X157523668Y-99842411D01*
X157517327Y-99836087D01*
X157517324Y-99836080D01*
X157295149Y-99297214D01*
X157295164Y-99288259D01*
X157301506Y-99281937D01*
X157302193Y-99281680D01*
X157532248Y-99203877D01*
X157533740Y-99203481D01*
X157715291Y-99168068D01*
X157715492Y-99168031D01*
X157873931Y-99140853D01*
X158044938Y-99083956D01*
X158255287Y-98964638D01*
X158264174Y-98963538D01*
X158270788Y-98968316D01*
G37*
%TD.AperFunction*%
%TD*%
%TA.AperFunction,Conductor*%
%TO.N,Net-(P1-S_PCIRST#_TBD)*%
G36*
X165526238Y-95344844D02*
G01*
X165936356Y-95756331D01*
X165939769Y-95764608D01*
X165936681Y-95772509D01*
X165775888Y-95947346D01*
X165775885Y-95947350D01*
X165669346Y-96088954D01*
X165669335Y-96088970D01*
X165583546Y-96216538D01*
X165583186Y-96217043D01*
X165477170Y-96357953D01*
X165476433Y-96358839D01*
X165316707Y-96532520D01*
X165308584Y-96536290D01*
X165300175Y-96533212D01*
X165299822Y-96532873D01*
X165173843Y-96406894D01*
X165170416Y-96398621D01*
X165172409Y-96392089D01*
X165277799Y-96235591D01*
X165273758Y-96090923D01*
X165195233Y-95947350D01*
X165194196Y-95945454D01*
X165078776Y-95779093D01*
X165078092Y-95777979D01*
X165037921Y-95703523D01*
X164971820Y-95581007D01*
X164970909Y-95572101D01*
X164976563Y-95565157D01*
X164977629Y-95564648D01*
X165513470Y-95342296D01*
X165522424Y-95342292D01*
X165526238Y-95344844D01*
G37*
%TD.AperFunction*%
%TD*%
M02*
