%TF.GenerationSoftware,KiCad,Pcbnew,8.0.6*%
%TF.CreationDate,2024-11-06T21:45:57-05:00*%
%TF.ProjectId,Asus To Asrock,41737573-2054-46f2-9041-73726f636b2e,rev?*%
%TF.SameCoordinates,Original*%
%TF.FileFunction,Drillmap*%
%TF.FilePolarity,Positive*%
%FSLAX45Y45*%
G04 Gerber Fmt 4.5, Leading zero omitted, Abs format (unit mm)*
G04 Created by KiCad (PCBNEW 8.0.6) date 2024-11-06 21:45:57*
%MOMM*%
%LPD*%
G01*
G04 APERTURE LIST*
%ADD10C,0.150000*%
%ADD11C,0.200000*%
%ADD12C,0.100000*%
G04 APERTURE END LIST*
D10*
X15287000Y-10257000D02*
G75*
G02*
X15229000Y-10199000I0J58000D01*
G01*
X17017000Y-8811000D02*
G75*
G02*
X17075000Y-8869000I0J-58000D01*
G01*
X17075000Y-8869000D02*
X17075000Y-10199000D01*
X15287000Y-8811000D02*
X17017000Y-8811000D01*
X17075000Y-10199000D02*
G75*
G02*
X17017000Y-10257000I-58000J0D01*
G01*
X15229000Y-8869000D02*
G75*
G02*
X15287000Y-8811000I58000J0D01*
G01*
X15229000Y-8869000D02*
X15229000Y-10199000D01*
X15287000Y-10257000D02*
X17017000Y-10257000D01*
D11*
D12*
X15713900Y-9495900D02*
X15790100Y-9572100D01*
X15790100Y-9495900D02*
X15713900Y-9572100D01*
X15992000Y-9984000D02*
G75*
G02*
X15912000Y-9984000I-40000J0D01*
G01*
X15912000Y-9984000D02*
G75*
G02*
X15992000Y-9984000I40000J0D01*
G01*
D11*
X15482277Y-10575984D02*
X15482277Y-10375984D01*
X15482277Y-10375984D02*
X15529896Y-10375984D01*
X15529896Y-10375984D02*
X15558467Y-10385508D01*
X15558467Y-10385508D02*
X15577515Y-10404555D01*
X15577515Y-10404555D02*
X15587039Y-10423603D01*
X15587039Y-10423603D02*
X15596562Y-10461698D01*
X15596562Y-10461698D02*
X15596562Y-10490270D01*
X15596562Y-10490270D02*
X15587039Y-10528365D01*
X15587039Y-10528365D02*
X15577515Y-10547412D01*
X15577515Y-10547412D02*
X15558467Y-10566460D01*
X15558467Y-10566460D02*
X15529896Y-10575984D01*
X15529896Y-10575984D02*
X15482277Y-10575984D01*
X15682277Y-10575984D02*
X15682277Y-10442650D01*
X15682277Y-10480746D02*
X15691801Y-10461698D01*
X15691801Y-10461698D02*
X15701324Y-10452174D01*
X15701324Y-10452174D02*
X15720372Y-10442650D01*
X15720372Y-10442650D02*
X15739420Y-10442650D01*
X15806086Y-10575984D02*
X15806086Y-10442650D01*
X15806086Y-10375984D02*
X15796562Y-10385508D01*
X15796562Y-10385508D02*
X15806086Y-10395031D01*
X15806086Y-10395031D02*
X15815610Y-10385508D01*
X15815610Y-10385508D02*
X15806086Y-10375984D01*
X15806086Y-10375984D02*
X15806086Y-10395031D01*
X15929896Y-10575984D02*
X15910848Y-10566460D01*
X15910848Y-10566460D02*
X15901324Y-10547412D01*
X15901324Y-10547412D02*
X15901324Y-10375984D01*
X16034658Y-10575984D02*
X16015610Y-10566460D01*
X16015610Y-10566460D02*
X16006086Y-10547412D01*
X16006086Y-10547412D02*
X16006086Y-10375984D01*
X16263229Y-10575984D02*
X16263229Y-10375984D01*
X16263229Y-10375984D02*
X16329896Y-10518841D01*
X16329896Y-10518841D02*
X16396562Y-10375984D01*
X16396562Y-10375984D02*
X16396562Y-10575984D01*
X16577515Y-10575984D02*
X16577515Y-10471222D01*
X16577515Y-10471222D02*
X16567991Y-10452174D01*
X16567991Y-10452174D02*
X16548943Y-10442650D01*
X16548943Y-10442650D02*
X16510848Y-10442650D01*
X16510848Y-10442650D02*
X16491801Y-10452174D01*
X16577515Y-10566460D02*
X16558467Y-10575984D01*
X16558467Y-10575984D02*
X16510848Y-10575984D01*
X16510848Y-10575984D02*
X16491801Y-10566460D01*
X16491801Y-10566460D02*
X16482277Y-10547412D01*
X16482277Y-10547412D02*
X16482277Y-10528365D01*
X16482277Y-10528365D02*
X16491801Y-10509317D01*
X16491801Y-10509317D02*
X16510848Y-10499793D01*
X16510848Y-10499793D02*
X16558467Y-10499793D01*
X16558467Y-10499793D02*
X16577515Y-10490270D01*
X16672753Y-10442650D02*
X16672753Y-10642650D01*
X16672753Y-10452174D02*
X16691801Y-10442650D01*
X16691801Y-10442650D02*
X16729896Y-10442650D01*
X16729896Y-10442650D02*
X16748943Y-10452174D01*
X16748943Y-10452174D02*
X16758467Y-10461698D01*
X16758467Y-10461698D02*
X16767991Y-10480746D01*
X16767991Y-10480746D02*
X16767991Y-10537889D01*
X16767991Y-10537889D02*
X16758467Y-10556936D01*
X16758467Y-10556936D02*
X16748943Y-10566460D01*
X16748943Y-10566460D02*
X16729896Y-10575984D01*
X16729896Y-10575984D02*
X16691801Y-10575984D01*
X16691801Y-10575984D02*
X16672753Y-10566460D01*
X16853705Y-10556936D02*
X16863229Y-10566460D01*
X16863229Y-10566460D02*
X16853705Y-10575984D01*
X16853705Y-10575984D02*
X16844182Y-10566460D01*
X16844182Y-10566460D02*
X16853705Y-10556936D01*
X16853705Y-10556936D02*
X16853705Y-10575984D01*
X16853705Y-10452174D02*
X16863229Y-10461698D01*
X16863229Y-10461698D02*
X16853705Y-10471222D01*
X16853705Y-10471222D02*
X16844182Y-10461698D01*
X16844182Y-10461698D02*
X16853705Y-10452174D01*
X16853705Y-10452174D02*
X16853705Y-10471222D01*
D12*
X15145300Y-10866400D02*
X15221500Y-10942600D01*
X15221500Y-10866400D02*
X15145300Y-10942600D01*
D11*
X15520372Y-10795984D02*
X15539420Y-10795984D01*
X15539420Y-10795984D02*
X15558467Y-10805508D01*
X15558467Y-10805508D02*
X15567991Y-10815031D01*
X15567991Y-10815031D02*
X15577515Y-10834079D01*
X15577515Y-10834079D02*
X15587039Y-10872174D01*
X15587039Y-10872174D02*
X15587039Y-10919793D01*
X15587039Y-10919793D02*
X15577515Y-10957889D01*
X15577515Y-10957889D02*
X15567991Y-10976936D01*
X15567991Y-10976936D02*
X15558467Y-10986460D01*
X15558467Y-10986460D02*
X15539420Y-10995984D01*
X15539420Y-10995984D02*
X15520372Y-10995984D01*
X15520372Y-10995984D02*
X15501324Y-10986460D01*
X15501324Y-10986460D02*
X15491801Y-10976936D01*
X15491801Y-10976936D02*
X15482277Y-10957889D01*
X15482277Y-10957889D02*
X15472753Y-10919793D01*
X15472753Y-10919793D02*
X15472753Y-10872174D01*
X15472753Y-10872174D02*
X15482277Y-10834079D01*
X15482277Y-10834079D02*
X15491801Y-10815031D01*
X15491801Y-10815031D02*
X15501324Y-10805508D01*
X15501324Y-10805508D02*
X15520372Y-10795984D01*
X15672753Y-10976936D02*
X15682277Y-10986460D01*
X15682277Y-10986460D02*
X15672753Y-10995984D01*
X15672753Y-10995984D02*
X15663229Y-10986460D01*
X15663229Y-10986460D02*
X15672753Y-10976936D01*
X15672753Y-10976936D02*
X15672753Y-10995984D01*
X15748943Y-10795984D02*
X15882277Y-10795984D01*
X15882277Y-10795984D02*
X15796562Y-10995984D01*
X16044182Y-10795984D02*
X16006086Y-10795984D01*
X16006086Y-10795984D02*
X15987039Y-10805508D01*
X15987039Y-10805508D02*
X15977515Y-10815031D01*
X15977515Y-10815031D02*
X15958467Y-10843603D01*
X15958467Y-10843603D02*
X15948943Y-10881698D01*
X15948943Y-10881698D02*
X15948943Y-10957889D01*
X15948943Y-10957889D02*
X15958467Y-10976936D01*
X15958467Y-10976936D02*
X15967991Y-10986460D01*
X15967991Y-10986460D02*
X15987039Y-10995984D01*
X15987039Y-10995984D02*
X16025134Y-10995984D01*
X16025134Y-10995984D02*
X16044182Y-10986460D01*
X16044182Y-10986460D02*
X16053705Y-10976936D01*
X16053705Y-10976936D02*
X16063229Y-10957889D01*
X16063229Y-10957889D02*
X16063229Y-10910270D01*
X16063229Y-10910270D02*
X16053705Y-10891222D01*
X16053705Y-10891222D02*
X16044182Y-10881698D01*
X16044182Y-10881698D02*
X16025134Y-10872174D01*
X16025134Y-10872174D02*
X15987039Y-10872174D01*
X15987039Y-10872174D02*
X15967991Y-10881698D01*
X15967991Y-10881698D02*
X15958467Y-10891222D01*
X15958467Y-10891222D02*
X15948943Y-10910270D01*
X16139420Y-10815031D02*
X16148943Y-10805508D01*
X16148943Y-10805508D02*
X16167991Y-10795984D01*
X16167991Y-10795984D02*
X16215610Y-10795984D01*
X16215610Y-10795984D02*
X16234658Y-10805508D01*
X16234658Y-10805508D02*
X16244182Y-10815031D01*
X16244182Y-10815031D02*
X16253705Y-10834079D01*
X16253705Y-10834079D02*
X16253705Y-10853127D01*
X16253705Y-10853127D02*
X16244182Y-10881698D01*
X16244182Y-10881698D02*
X16129896Y-10995984D01*
X16129896Y-10995984D02*
X16253705Y-10995984D01*
X16339420Y-10995984D02*
X16339420Y-10862650D01*
X16339420Y-10881698D02*
X16348943Y-10872174D01*
X16348943Y-10872174D02*
X16367991Y-10862650D01*
X16367991Y-10862650D02*
X16396563Y-10862650D01*
X16396563Y-10862650D02*
X16415610Y-10872174D01*
X16415610Y-10872174D02*
X16425134Y-10891222D01*
X16425134Y-10891222D02*
X16425134Y-10995984D01*
X16425134Y-10891222D02*
X16434658Y-10872174D01*
X16434658Y-10872174D02*
X16453705Y-10862650D01*
X16453705Y-10862650D02*
X16482277Y-10862650D01*
X16482277Y-10862650D02*
X16501324Y-10872174D01*
X16501324Y-10872174D02*
X16510848Y-10891222D01*
X16510848Y-10891222D02*
X16510848Y-10995984D01*
X16606086Y-10995984D02*
X16606086Y-10862650D01*
X16606086Y-10881698D02*
X16615610Y-10872174D01*
X16615610Y-10872174D02*
X16634658Y-10862650D01*
X16634658Y-10862650D02*
X16663229Y-10862650D01*
X16663229Y-10862650D02*
X16682277Y-10872174D01*
X16682277Y-10872174D02*
X16691801Y-10891222D01*
X16691801Y-10891222D02*
X16691801Y-10995984D01*
X16691801Y-10891222D02*
X16701324Y-10872174D01*
X16701324Y-10872174D02*
X16720372Y-10862650D01*
X16720372Y-10862650D02*
X16748943Y-10862650D01*
X16748943Y-10862650D02*
X16767991Y-10872174D01*
X16767991Y-10872174D02*
X16777515Y-10891222D01*
X16777515Y-10891222D02*
X16777515Y-10995984D01*
X17167991Y-10786460D02*
X16996563Y-11043603D01*
X17425134Y-10795984D02*
X17444182Y-10795984D01*
X17444182Y-10795984D02*
X17463229Y-10805508D01*
X17463229Y-10805508D02*
X17472753Y-10815031D01*
X17472753Y-10815031D02*
X17482277Y-10834079D01*
X17482277Y-10834079D02*
X17491801Y-10872174D01*
X17491801Y-10872174D02*
X17491801Y-10919793D01*
X17491801Y-10919793D02*
X17482277Y-10957889D01*
X17482277Y-10957889D02*
X17472753Y-10976936D01*
X17472753Y-10976936D02*
X17463229Y-10986460D01*
X17463229Y-10986460D02*
X17444182Y-10995984D01*
X17444182Y-10995984D02*
X17425134Y-10995984D01*
X17425134Y-10995984D02*
X17406087Y-10986460D01*
X17406087Y-10986460D02*
X17396563Y-10976936D01*
X17396563Y-10976936D02*
X17387039Y-10957889D01*
X17387039Y-10957889D02*
X17377515Y-10919793D01*
X17377515Y-10919793D02*
X17377515Y-10872174D01*
X17377515Y-10872174D02*
X17387039Y-10834079D01*
X17387039Y-10834079D02*
X17396563Y-10815031D01*
X17396563Y-10815031D02*
X17406087Y-10805508D01*
X17406087Y-10805508D02*
X17425134Y-10795984D01*
X17577515Y-10976936D02*
X17587039Y-10986460D01*
X17587039Y-10986460D02*
X17577515Y-10995984D01*
X17577515Y-10995984D02*
X17567991Y-10986460D01*
X17567991Y-10986460D02*
X17577515Y-10976936D01*
X17577515Y-10976936D02*
X17577515Y-10995984D01*
X17710848Y-10795984D02*
X17729896Y-10795984D01*
X17729896Y-10795984D02*
X17748944Y-10805508D01*
X17748944Y-10805508D02*
X17758468Y-10815031D01*
X17758468Y-10815031D02*
X17767991Y-10834079D01*
X17767991Y-10834079D02*
X17777515Y-10872174D01*
X17777515Y-10872174D02*
X17777515Y-10919793D01*
X17777515Y-10919793D02*
X17767991Y-10957889D01*
X17767991Y-10957889D02*
X17758468Y-10976936D01*
X17758468Y-10976936D02*
X17748944Y-10986460D01*
X17748944Y-10986460D02*
X17729896Y-10995984D01*
X17729896Y-10995984D02*
X17710848Y-10995984D01*
X17710848Y-10995984D02*
X17691801Y-10986460D01*
X17691801Y-10986460D02*
X17682277Y-10976936D01*
X17682277Y-10976936D02*
X17672753Y-10957889D01*
X17672753Y-10957889D02*
X17663229Y-10919793D01*
X17663229Y-10919793D02*
X17663229Y-10872174D01*
X17663229Y-10872174D02*
X17672753Y-10834079D01*
X17672753Y-10834079D02*
X17682277Y-10815031D01*
X17682277Y-10815031D02*
X17691801Y-10805508D01*
X17691801Y-10805508D02*
X17710848Y-10795984D01*
X17844182Y-10795984D02*
X17967991Y-10795984D01*
X17967991Y-10795984D02*
X17901325Y-10872174D01*
X17901325Y-10872174D02*
X17929896Y-10872174D01*
X17929896Y-10872174D02*
X17948944Y-10881698D01*
X17948944Y-10881698D02*
X17958468Y-10891222D01*
X17958468Y-10891222D02*
X17967991Y-10910270D01*
X17967991Y-10910270D02*
X17967991Y-10957889D01*
X17967991Y-10957889D02*
X17958468Y-10976936D01*
X17958468Y-10976936D02*
X17948944Y-10986460D01*
X17948944Y-10986460D02*
X17929896Y-10995984D01*
X17929896Y-10995984D02*
X17872753Y-10995984D01*
X17872753Y-10995984D02*
X17853706Y-10986460D01*
X17853706Y-10986460D02*
X17844182Y-10976936D01*
X18091801Y-10795984D02*
X18110849Y-10795984D01*
X18110849Y-10795984D02*
X18129896Y-10805508D01*
X18129896Y-10805508D02*
X18139420Y-10815031D01*
X18139420Y-10815031D02*
X18148944Y-10834079D01*
X18148944Y-10834079D02*
X18158468Y-10872174D01*
X18158468Y-10872174D02*
X18158468Y-10919793D01*
X18158468Y-10919793D02*
X18148944Y-10957889D01*
X18148944Y-10957889D02*
X18139420Y-10976936D01*
X18139420Y-10976936D02*
X18129896Y-10986460D01*
X18129896Y-10986460D02*
X18110849Y-10995984D01*
X18110849Y-10995984D02*
X18091801Y-10995984D01*
X18091801Y-10995984D02*
X18072753Y-10986460D01*
X18072753Y-10986460D02*
X18063229Y-10976936D01*
X18063229Y-10976936D02*
X18053706Y-10957889D01*
X18053706Y-10957889D02*
X18044182Y-10919793D01*
X18044182Y-10919793D02*
X18044182Y-10872174D01*
X18044182Y-10872174D02*
X18053706Y-10834079D01*
X18053706Y-10834079D02*
X18063229Y-10815031D01*
X18063229Y-10815031D02*
X18072753Y-10805508D01*
X18072753Y-10805508D02*
X18091801Y-10795984D01*
X18282277Y-10795984D02*
X18301325Y-10795984D01*
X18301325Y-10795984D02*
X18320372Y-10805508D01*
X18320372Y-10805508D02*
X18329896Y-10815031D01*
X18329896Y-10815031D02*
X18339420Y-10834079D01*
X18339420Y-10834079D02*
X18348944Y-10872174D01*
X18348944Y-10872174D02*
X18348944Y-10919793D01*
X18348944Y-10919793D02*
X18339420Y-10957889D01*
X18339420Y-10957889D02*
X18329896Y-10976936D01*
X18329896Y-10976936D02*
X18320372Y-10986460D01*
X18320372Y-10986460D02*
X18301325Y-10995984D01*
X18301325Y-10995984D02*
X18282277Y-10995984D01*
X18282277Y-10995984D02*
X18263229Y-10986460D01*
X18263229Y-10986460D02*
X18253706Y-10976936D01*
X18253706Y-10976936D02*
X18244182Y-10957889D01*
X18244182Y-10957889D02*
X18234658Y-10919793D01*
X18234658Y-10919793D02*
X18234658Y-10872174D01*
X18234658Y-10872174D02*
X18244182Y-10834079D01*
X18244182Y-10834079D02*
X18253706Y-10815031D01*
X18253706Y-10815031D02*
X18263229Y-10805508D01*
X18263229Y-10805508D02*
X18282277Y-10795984D01*
X18425134Y-10795984D02*
X18425134Y-10834079D01*
X18501325Y-10795984D02*
X18501325Y-10834079D01*
X18796563Y-11072174D02*
X18787039Y-11062650D01*
X18787039Y-11062650D02*
X18767991Y-11034079D01*
X18767991Y-11034079D02*
X18758468Y-11015031D01*
X18758468Y-11015031D02*
X18748944Y-10986460D01*
X18748944Y-10986460D02*
X18739420Y-10938841D01*
X18739420Y-10938841D02*
X18739420Y-10900746D01*
X18739420Y-10900746D02*
X18748944Y-10853127D01*
X18748944Y-10853127D02*
X18758468Y-10824555D01*
X18758468Y-10824555D02*
X18767991Y-10805508D01*
X18767991Y-10805508D02*
X18787039Y-10776936D01*
X18787039Y-10776936D02*
X18796563Y-10767412D01*
X18977515Y-10995984D02*
X18863230Y-10995984D01*
X18920372Y-10995984D02*
X18920372Y-10795984D01*
X18920372Y-10795984D02*
X18901325Y-10824555D01*
X18901325Y-10824555D02*
X18882277Y-10843603D01*
X18882277Y-10843603D02*
X18863230Y-10853127D01*
X19215611Y-10995984D02*
X19215611Y-10795984D01*
X19301325Y-10995984D02*
X19301325Y-10891222D01*
X19301325Y-10891222D02*
X19291801Y-10872174D01*
X19291801Y-10872174D02*
X19272753Y-10862650D01*
X19272753Y-10862650D02*
X19244182Y-10862650D01*
X19244182Y-10862650D02*
X19225134Y-10872174D01*
X19225134Y-10872174D02*
X19215611Y-10881698D01*
X19425134Y-10995984D02*
X19406087Y-10986460D01*
X19406087Y-10986460D02*
X19396563Y-10976936D01*
X19396563Y-10976936D02*
X19387039Y-10957889D01*
X19387039Y-10957889D02*
X19387039Y-10900746D01*
X19387039Y-10900746D02*
X19396563Y-10881698D01*
X19396563Y-10881698D02*
X19406087Y-10872174D01*
X19406087Y-10872174D02*
X19425134Y-10862650D01*
X19425134Y-10862650D02*
X19453706Y-10862650D01*
X19453706Y-10862650D02*
X19472753Y-10872174D01*
X19472753Y-10872174D02*
X19482277Y-10881698D01*
X19482277Y-10881698D02*
X19491801Y-10900746D01*
X19491801Y-10900746D02*
X19491801Y-10957889D01*
X19491801Y-10957889D02*
X19482277Y-10976936D01*
X19482277Y-10976936D02*
X19472753Y-10986460D01*
X19472753Y-10986460D02*
X19453706Y-10995984D01*
X19453706Y-10995984D02*
X19425134Y-10995984D01*
X19606087Y-10995984D02*
X19587039Y-10986460D01*
X19587039Y-10986460D02*
X19577515Y-10967412D01*
X19577515Y-10967412D02*
X19577515Y-10795984D01*
X19758468Y-10986460D02*
X19739420Y-10995984D01*
X19739420Y-10995984D02*
X19701325Y-10995984D01*
X19701325Y-10995984D02*
X19682277Y-10986460D01*
X19682277Y-10986460D02*
X19672753Y-10967412D01*
X19672753Y-10967412D02*
X19672753Y-10891222D01*
X19672753Y-10891222D02*
X19682277Y-10872174D01*
X19682277Y-10872174D02*
X19701325Y-10862650D01*
X19701325Y-10862650D02*
X19739420Y-10862650D01*
X19739420Y-10862650D02*
X19758468Y-10872174D01*
X19758468Y-10872174D02*
X19767992Y-10891222D01*
X19767992Y-10891222D02*
X19767992Y-10910270D01*
X19767992Y-10910270D02*
X19672753Y-10929317D01*
X19834658Y-11072174D02*
X19844182Y-11062650D01*
X19844182Y-11062650D02*
X19863230Y-11034079D01*
X19863230Y-11034079D02*
X19872753Y-11015031D01*
X19872753Y-11015031D02*
X19882277Y-10986460D01*
X19882277Y-10986460D02*
X19891801Y-10938841D01*
X19891801Y-10938841D02*
X19891801Y-10900746D01*
X19891801Y-10900746D02*
X19882277Y-10853127D01*
X19882277Y-10853127D02*
X19872753Y-10824555D01*
X19872753Y-10824555D02*
X19863230Y-10805508D01*
X19863230Y-10805508D02*
X19844182Y-10776936D01*
X19844182Y-10776936D02*
X19834658Y-10767412D01*
X20196563Y-11072174D02*
X20187039Y-11062650D01*
X20187039Y-11062650D02*
X20167992Y-11034079D01*
X20167992Y-11034079D02*
X20158468Y-11015031D01*
X20158468Y-11015031D02*
X20148944Y-10986460D01*
X20148944Y-10986460D02*
X20139420Y-10938841D01*
X20139420Y-10938841D02*
X20139420Y-10900746D01*
X20139420Y-10900746D02*
X20148944Y-10853127D01*
X20148944Y-10853127D02*
X20158468Y-10824555D01*
X20158468Y-10824555D02*
X20167992Y-10805508D01*
X20167992Y-10805508D02*
X20187039Y-10776936D01*
X20187039Y-10776936D02*
X20196563Y-10767412D01*
X20272753Y-10862650D02*
X20272753Y-10995984D01*
X20272753Y-10881698D02*
X20282277Y-10872174D01*
X20282277Y-10872174D02*
X20301325Y-10862650D01*
X20301325Y-10862650D02*
X20329896Y-10862650D01*
X20329896Y-10862650D02*
X20348944Y-10872174D01*
X20348944Y-10872174D02*
X20358468Y-10891222D01*
X20358468Y-10891222D02*
X20358468Y-10995984D01*
X20482277Y-10995984D02*
X20463230Y-10986460D01*
X20463230Y-10986460D02*
X20453706Y-10976936D01*
X20453706Y-10976936D02*
X20444182Y-10957889D01*
X20444182Y-10957889D02*
X20444182Y-10900746D01*
X20444182Y-10900746D02*
X20453706Y-10881698D01*
X20453706Y-10881698D02*
X20463230Y-10872174D01*
X20463230Y-10872174D02*
X20482277Y-10862650D01*
X20482277Y-10862650D02*
X20510849Y-10862650D01*
X20510849Y-10862650D02*
X20529896Y-10872174D01*
X20529896Y-10872174D02*
X20539420Y-10881698D01*
X20539420Y-10881698D02*
X20548944Y-10900746D01*
X20548944Y-10900746D02*
X20548944Y-10957889D01*
X20548944Y-10957889D02*
X20539420Y-10976936D01*
X20539420Y-10976936D02*
X20529896Y-10986460D01*
X20529896Y-10986460D02*
X20510849Y-10995984D01*
X20510849Y-10995984D02*
X20482277Y-10995984D01*
X20606087Y-10862650D02*
X20682277Y-10862650D01*
X20634658Y-10795984D02*
X20634658Y-10967412D01*
X20634658Y-10967412D02*
X20644182Y-10986460D01*
X20644182Y-10986460D02*
X20663230Y-10995984D01*
X20663230Y-10995984D02*
X20682277Y-10995984D01*
X20901325Y-10862650D02*
X20901325Y-11062650D01*
X20901325Y-10872174D02*
X20920373Y-10862650D01*
X20920373Y-10862650D02*
X20958468Y-10862650D01*
X20958468Y-10862650D02*
X20977515Y-10872174D01*
X20977515Y-10872174D02*
X20987039Y-10881698D01*
X20987039Y-10881698D02*
X20996563Y-10900746D01*
X20996563Y-10900746D02*
X20996563Y-10957889D01*
X20996563Y-10957889D02*
X20987039Y-10976936D01*
X20987039Y-10976936D02*
X20977515Y-10986460D01*
X20977515Y-10986460D02*
X20958468Y-10995984D01*
X20958468Y-10995984D02*
X20920373Y-10995984D01*
X20920373Y-10995984D02*
X20901325Y-10986460D01*
X21110849Y-10995984D02*
X21091801Y-10986460D01*
X21091801Y-10986460D02*
X21082277Y-10967412D01*
X21082277Y-10967412D02*
X21082277Y-10795984D01*
X21272754Y-10995984D02*
X21272754Y-10891222D01*
X21272754Y-10891222D02*
X21263230Y-10872174D01*
X21263230Y-10872174D02*
X21244182Y-10862650D01*
X21244182Y-10862650D02*
X21206087Y-10862650D01*
X21206087Y-10862650D02*
X21187039Y-10872174D01*
X21272754Y-10986460D02*
X21253706Y-10995984D01*
X21253706Y-10995984D02*
X21206087Y-10995984D01*
X21206087Y-10995984D02*
X21187039Y-10986460D01*
X21187039Y-10986460D02*
X21177515Y-10967412D01*
X21177515Y-10967412D02*
X21177515Y-10948365D01*
X21177515Y-10948365D02*
X21187039Y-10929317D01*
X21187039Y-10929317D02*
X21206087Y-10919793D01*
X21206087Y-10919793D02*
X21253706Y-10919793D01*
X21253706Y-10919793D02*
X21272754Y-10910270D01*
X21339420Y-10862650D02*
X21415611Y-10862650D01*
X21367992Y-10795984D02*
X21367992Y-10967412D01*
X21367992Y-10967412D02*
X21377515Y-10986460D01*
X21377515Y-10986460D02*
X21396563Y-10995984D01*
X21396563Y-10995984D02*
X21415611Y-10995984D01*
X21558468Y-10986460D02*
X21539420Y-10995984D01*
X21539420Y-10995984D02*
X21501325Y-10995984D01*
X21501325Y-10995984D02*
X21482277Y-10986460D01*
X21482277Y-10986460D02*
X21472754Y-10967412D01*
X21472754Y-10967412D02*
X21472754Y-10891222D01*
X21472754Y-10891222D02*
X21482277Y-10872174D01*
X21482277Y-10872174D02*
X21501325Y-10862650D01*
X21501325Y-10862650D02*
X21539420Y-10862650D01*
X21539420Y-10862650D02*
X21558468Y-10872174D01*
X21558468Y-10872174D02*
X21567992Y-10891222D01*
X21567992Y-10891222D02*
X21567992Y-10910270D01*
X21567992Y-10910270D02*
X21472754Y-10929317D01*
X21739420Y-10995984D02*
X21739420Y-10795984D01*
X21739420Y-10986460D02*
X21720373Y-10995984D01*
X21720373Y-10995984D02*
X21682277Y-10995984D01*
X21682277Y-10995984D02*
X21663230Y-10986460D01*
X21663230Y-10986460D02*
X21653706Y-10976936D01*
X21653706Y-10976936D02*
X21644182Y-10957889D01*
X21644182Y-10957889D02*
X21644182Y-10900746D01*
X21644182Y-10900746D02*
X21653706Y-10881698D01*
X21653706Y-10881698D02*
X21663230Y-10872174D01*
X21663230Y-10872174D02*
X21682277Y-10862650D01*
X21682277Y-10862650D02*
X21720373Y-10862650D01*
X21720373Y-10862650D02*
X21739420Y-10872174D01*
X21815611Y-11072174D02*
X21825135Y-11062650D01*
X21825135Y-11062650D02*
X21844182Y-11034079D01*
X21844182Y-11034079D02*
X21853706Y-11015031D01*
X21853706Y-11015031D02*
X21863230Y-10986460D01*
X21863230Y-10986460D02*
X21872754Y-10938841D01*
X21872754Y-10938841D02*
X21872754Y-10900746D01*
X21872754Y-10900746D02*
X21863230Y-10853127D01*
X21863230Y-10853127D02*
X21853706Y-10824555D01*
X21853706Y-10824555D02*
X21844182Y-10805508D01*
X21844182Y-10805508D02*
X21825135Y-10776936D01*
X21825135Y-10776936D02*
X21815611Y-10767412D01*
D12*
X15221500Y-11168500D02*
G75*
G02*
X15141500Y-11168500I-40000J0D01*
G01*
X15141500Y-11168500D02*
G75*
G02*
X15221500Y-11168500I40000J0D01*
G01*
D11*
X15520372Y-11059984D02*
X15539420Y-11059984D01*
X15539420Y-11059984D02*
X15558467Y-11069508D01*
X15558467Y-11069508D02*
X15567991Y-11079031D01*
X15567991Y-11079031D02*
X15577515Y-11098079D01*
X15577515Y-11098079D02*
X15587039Y-11136174D01*
X15587039Y-11136174D02*
X15587039Y-11183793D01*
X15587039Y-11183793D02*
X15577515Y-11221888D01*
X15577515Y-11221888D02*
X15567991Y-11240936D01*
X15567991Y-11240936D02*
X15558467Y-11250460D01*
X15558467Y-11250460D02*
X15539420Y-11259984D01*
X15539420Y-11259984D02*
X15520372Y-11259984D01*
X15520372Y-11259984D02*
X15501324Y-11250460D01*
X15501324Y-11250460D02*
X15491801Y-11240936D01*
X15491801Y-11240936D02*
X15482277Y-11221888D01*
X15482277Y-11221888D02*
X15472753Y-11183793D01*
X15472753Y-11183793D02*
X15472753Y-11136174D01*
X15472753Y-11136174D02*
X15482277Y-11098079D01*
X15482277Y-11098079D02*
X15491801Y-11079031D01*
X15491801Y-11079031D02*
X15501324Y-11069508D01*
X15501324Y-11069508D02*
X15520372Y-11059984D01*
X15672753Y-11240936D02*
X15682277Y-11250460D01*
X15682277Y-11250460D02*
X15672753Y-11259984D01*
X15672753Y-11259984D02*
X15663229Y-11250460D01*
X15663229Y-11250460D02*
X15672753Y-11240936D01*
X15672753Y-11240936D02*
X15672753Y-11259984D01*
X15796562Y-11145698D02*
X15777515Y-11136174D01*
X15777515Y-11136174D02*
X15767991Y-11126650D01*
X15767991Y-11126650D02*
X15758467Y-11107603D01*
X15758467Y-11107603D02*
X15758467Y-11098079D01*
X15758467Y-11098079D02*
X15767991Y-11079031D01*
X15767991Y-11079031D02*
X15777515Y-11069508D01*
X15777515Y-11069508D02*
X15796562Y-11059984D01*
X15796562Y-11059984D02*
X15834658Y-11059984D01*
X15834658Y-11059984D02*
X15853705Y-11069508D01*
X15853705Y-11069508D02*
X15863229Y-11079031D01*
X15863229Y-11079031D02*
X15872753Y-11098079D01*
X15872753Y-11098079D02*
X15872753Y-11107603D01*
X15872753Y-11107603D02*
X15863229Y-11126650D01*
X15863229Y-11126650D02*
X15853705Y-11136174D01*
X15853705Y-11136174D02*
X15834658Y-11145698D01*
X15834658Y-11145698D02*
X15796562Y-11145698D01*
X15796562Y-11145698D02*
X15777515Y-11155222D01*
X15777515Y-11155222D02*
X15767991Y-11164746D01*
X15767991Y-11164746D02*
X15758467Y-11183793D01*
X15758467Y-11183793D02*
X15758467Y-11221888D01*
X15758467Y-11221888D02*
X15767991Y-11240936D01*
X15767991Y-11240936D02*
X15777515Y-11250460D01*
X15777515Y-11250460D02*
X15796562Y-11259984D01*
X15796562Y-11259984D02*
X15834658Y-11259984D01*
X15834658Y-11259984D02*
X15853705Y-11250460D01*
X15853705Y-11250460D02*
X15863229Y-11240936D01*
X15863229Y-11240936D02*
X15872753Y-11221888D01*
X15872753Y-11221888D02*
X15872753Y-11183793D01*
X15872753Y-11183793D02*
X15863229Y-11164746D01*
X15863229Y-11164746D02*
X15853705Y-11155222D01*
X15853705Y-11155222D02*
X15834658Y-11145698D01*
X15996562Y-11059984D02*
X16015610Y-11059984D01*
X16015610Y-11059984D02*
X16034658Y-11069508D01*
X16034658Y-11069508D02*
X16044182Y-11079031D01*
X16044182Y-11079031D02*
X16053705Y-11098079D01*
X16053705Y-11098079D02*
X16063229Y-11136174D01*
X16063229Y-11136174D02*
X16063229Y-11183793D01*
X16063229Y-11183793D02*
X16053705Y-11221888D01*
X16053705Y-11221888D02*
X16044182Y-11240936D01*
X16044182Y-11240936D02*
X16034658Y-11250460D01*
X16034658Y-11250460D02*
X16015610Y-11259984D01*
X16015610Y-11259984D02*
X15996562Y-11259984D01*
X15996562Y-11259984D02*
X15977515Y-11250460D01*
X15977515Y-11250460D02*
X15967991Y-11240936D01*
X15967991Y-11240936D02*
X15958467Y-11221888D01*
X15958467Y-11221888D02*
X15948943Y-11183793D01*
X15948943Y-11183793D02*
X15948943Y-11136174D01*
X15948943Y-11136174D02*
X15958467Y-11098079D01*
X15958467Y-11098079D02*
X15967991Y-11079031D01*
X15967991Y-11079031D02*
X15977515Y-11069508D01*
X15977515Y-11069508D02*
X15996562Y-11059984D01*
X16187039Y-11059984D02*
X16206086Y-11059984D01*
X16206086Y-11059984D02*
X16225134Y-11069508D01*
X16225134Y-11069508D02*
X16234658Y-11079031D01*
X16234658Y-11079031D02*
X16244182Y-11098079D01*
X16244182Y-11098079D02*
X16253705Y-11136174D01*
X16253705Y-11136174D02*
X16253705Y-11183793D01*
X16253705Y-11183793D02*
X16244182Y-11221888D01*
X16244182Y-11221888D02*
X16234658Y-11240936D01*
X16234658Y-11240936D02*
X16225134Y-11250460D01*
X16225134Y-11250460D02*
X16206086Y-11259984D01*
X16206086Y-11259984D02*
X16187039Y-11259984D01*
X16187039Y-11259984D02*
X16167991Y-11250460D01*
X16167991Y-11250460D02*
X16158467Y-11240936D01*
X16158467Y-11240936D02*
X16148943Y-11221888D01*
X16148943Y-11221888D02*
X16139420Y-11183793D01*
X16139420Y-11183793D02*
X16139420Y-11136174D01*
X16139420Y-11136174D02*
X16148943Y-11098079D01*
X16148943Y-11098079D02*
X16158467Y-11079031D01*
X16158467Y-11079031D02*
X16167991Y-11069508D01*
X16167991Y-11069508D02*
X16187039Y-11059984D01*
X16339420Y-11259984D02*
X16339420Y-11126650D01*
X16339420Y-11145698D02*
X16348943Y-11136174D01*
X16348943Y-11136174D02*
X16367991Y-11126650D01*
X16367991Y-11126650D02*
X16396563Y-11126650D01*
X16396563Y-11126650D02*
X16415610Y-11136174D01*
X16415610Y-11136174D02*
X16425134Y-11155222D01*
X16425134Y-11155222D02*
X16425134Y-11259984D01*
X16425134Y-11155222D02*
X16434658Y-11136174D01*
X16434658Y-11136174D02*
X16453705Y-11126650D01*
X16453705Y-11126650D02*
X16482277Y-11126650D01*
X16482277Y-11126650D02*
X16501324Y-11136174D01*
X16501324Y-11136174D02*
X16510848Y-11155222D01*
X16510848Y-11155222D02*
X16510848Y-11259984D01*
X16606086Y-11259984D02*
X16606086Y-11126650D01*
X16606086Y-11145698D02*
X16615610Y-11136174D01*
X16615610Y-11136174D02*
X16634658Y-11126650D01*
X16634658Y-11126650D02*
X16663229Y-11126650D01*
X16663229Y-11126650D02*
X16682277Y-11136174D01*
X16682277Y-11136174D02*
X16691801Y-11155222D01*
X16691801Y-11155222D02*
X16691801Y-11259984D01*
X16691801Y-11155222D02*
X16701324Y-11136174D01*
X16701324Y-11136174D02*
X16720372Y-11126650D01*
X16720372Y-11126650D02*
X16748943Y-11126650D01*
X16748943Y-11126650D02*
X16767991Y-11136174D01*
X16767991Y-11136174D02*
X16777515Y-11155222D01*
X16777515Y-11155222D02*
X16777515Y-11259984D01*
X17167991Y-11050460D02*
X16996563Y-11307603D01*
X17425134Y-11059984D02*
X17444182Y-11059984D01*
X17444182Y-11059984D02*
X17463229Y-11069508D01*
X17463229Y-11069508D02*
X17472753Y-11079031D01*
X17472753Y-11079031D02*
X17482277Y-11098079D01*
X17482277Y-11098079D02*
X17491801Y-11136174D01*
X17491801Y-11136174D02*
X17491801Y-11183793D01*
X17491801Y-11183793D02*
X17482277Y-11221888D01*
X17482277Y-11221888D02*
X17472753Y-11240936D01*
X17472753Y-11240936D02*
X17463229Y-11250460D01*
X17463229Y-11250460D02*
X17444182Y-11259984D01*
X17444182Y-11259984D02*
X17425134Y-11259984D01*
X17425134Y-11259984D02*
X17406087Y-11250460D01*
X17406087Y-11250460D02*
X17396563Y-11240936D01*
X17396563Y-11240936D02*
X17387039Y-11221888D01*
X17387039Y-11221888D02*
X17377515Y-11183793D01*
X17377515Y-11183793D02*
X17377515Y-11136174D01*
X17377515Y-11136174D02*
X17387039Y-11098079D01*
X17387039Y-11098079D02*
X17396563Y-11079031D01*
X17396563Y-11079031D02*
X17406087Y-11069508D01*
X17406087Y-11069508D02*
X17425134Y-11059984D01*
X17577515Y-11240936D02*
X17587039Y-11250460D01*
X17587039Y-11250460D02*
X17577515Y-11259984D01*
X17577515Y-11259984D02*
X17567991Y-11250460D01*
X17567991Y-11250460D02*
X17577515Y-11240936D01*
X17577515Y-11240936D02*
X17577515Y-11259984D01*
X17710848Y-11059984D02*
X17729896Y-11059984D01*
X17729896Y-11059984D02*
X17748944Y-11069508D01*
X17748944Y-11069508D02*
X17758468Y-11079031D01*
X17758468Y-11079031D02*
X17767991Y-11098079D01*
X17767991Y-11098079D02*
X17777515Y-11136174D01*
X17777515Y-11136174D02*
X17777515Y-11183793D01*
X17777515Y-11183793D02*
X17767991Y-11221888D01*
X17767991Y-11221888D02*
X17758468Y-11240936D01*
X17758468Y-11240936D02*
X17748944Y-11250460D01*
X17748944Y-11250460D02*
X17729896Y-11259984D01*
X17729896Y-11259984D02*
X17710848Y-11259984D01*
X17710848Y-11259984D02*
X17691801Y-11250460D01*
X17691801Y-11250460D02*
X17682277Y-11240936D01*
X17682277Y-11240936D02*
X17672753Y-11221888D01*
X17672753Y-11221888D02*
X17663229Y-11183793D01*
X17663229Y-11183793D02*
X17663229Y-11136174D01*
X17663229Y-11136174D02*
X17672753Y-11098079D01*
X17672753Y-11098079D02*
X17682277Y-11079031D01*
X17682277Y-11079031D02*
X17691801Y-11069508D01*
X17691801Y-11069508D02*
X17710848Y-11059984D01*
X17844182Y-11059984D02*
X17967991Y-11059984D01*
X17967991Y-11059984D02*
X17901325Y-11136174D01*
X17901325Y-11136174D02*
X17929896Y-11136174D01*
X17929896Y-11136174D02*
X17948944Y-11145698D01*
X17948944Y-11145698D02*
X17958468Y-11155222D01*
X17958468Y-11155222D02*
X17967991Y-11174270D01*
X17967991Y-11174270D02*
X17967991Y-11221888D01*
X17967991Y-11221888D02*
X17958468Y-11240936D01*
X17958468Y-11240936D02*
X17948944Y-11250460D01*
X17948944Y-11250460D02*
X17929896Y-11259984D01*
X17929896Y-11259984D02*
X17872753Y-11259984D01*
X17872753Y-11259984D02*
X17853706Y-11250460D01*
X17853706Y-11250460D02*
X17844182Y-11240936D01*
X18158468Y-11259984D02*
X18044182Y-11259984D01*
X18101325Y-11259984D02*
X18101325Y-11059984D01*
X18101325Y-11059984D02*
X18082277Y-11088555D01*
X18082277Y-11088555D02*
X18063229Y-11107603D01*
X18063229Y-11107603D02*
X18044182Y-11117127D01*
X18339420Y-11059984D02*
X18244182Y-11059984D01*
X18244182Y-11059984D02*
X18234658Y-11155222D01*
X18234658Y-11155222D02*
X18244182Y-11145698D01*
X18244182Y-11145698D02*
X18263229Y-11136174D01*
X18263229Y-11136174D02*
X18310849Y-11136174D01*
X18310849Y-11136174D02*
X18329896Y-11145698D01*
X18329896Y-11145698D02*
X18339420Y-11155222D01*
X18339420Y-11155222D02*
X18348944Y-11174270D01*
X18348944Y-11174270D02*
X18348944Y-11221888D01*
X18348944Y-11221888D02*
X18339420Y-11240936D01*
X18339420Y-11240936D02*
X18329896Y-11250460D01*
X18329896Y-11250460D02*
X18310849Y-11259984D01*
X18310849Y-11259984D02*
X18263229Y-11259984D01*
X18263229Y-11259984D02*
X18244182Y-11250460D01*
X18244182Y-11250460D02*
X18234658Y-11240936D01*
X18425134Y-11059984D02*
X18425134Y-11098079D01*
X18501325Y-11059984D02*
X18501325Y-11098079D01*
X18796563Y-11336174D02*
X18787039Y-11326650D01*
X18787039Y-11326650D02*
X18767991Y-11298079D01*
X18767991Y-11298079D02*
X18758468Y-11279031D01*
X18758468Y-11279031D02*
X18748944Y-11250460D01*
X18748944Y-11250460D02*
X18739420Y-11202841D01*
X18739420Y-11202841D02*
X18739420Y-11164746D01*
X18739420Y-11164746D02*
X18748944Y-11117127D01*
X18748944Y-11117127D02*
X18758468Y-11088555D01*
X18758468Y-11088555D02*
X18767991Y-11069508D01*
X18767991Y-11069508D02*
X18787039Y-11040936D01*
X18787039Y-11040936D02*
X18796563Y-11031412D01*
X18977515Y-11259984D02*
X18863230Y-11259984D01*
X18920372Y-11259984D02*
X18920372Y-11059984D01*
X18920372Y-11059984D02*
X18901325Y-11088555D01*
X18901325Y-11088555D02*
X18882277Y-11107603D01*
X18882277Y-11107603D02*
X18863230Y-11117127D01*
X19215611Y-11259984D02*
X19215611Y-11059984D01*
X19301325Y-11259984D02*
X19301325Y-11155222D01*
X19301325Y-11155222D02*
X19291801Y-11136174D01*
X19291801Y-11136174D02*
X19272753Y-11126650D01*
X19272753Y-11126650D02*
X19244182Y-11126650D01*
X19244182Y-11126650D02*
X19225134Y-11136174D01*
X19225134Y-11136174D02*
X19215611Y-11145698D01*
X19425134Y-11259984D02*
X19406087Y-11250460D01*
X19406087Y-11250460D02*
X19396563Y-11240936D01*
X19396563Y-11240936D02*
X19387039Y-11221888D01*
X19387039Y-11221888D02*
X19387039Y-11164746D01*
X19387039Y-11164746D02*
X19396563Y-11145698D01*
X19396563Y-11145698D02*
X19406087Y-11136174D01*
X19406087Y-11136174D02*
X19425134Y-11126650D01*
X19425134Y-11126650D02*
X19453706Y-11126650D01*
X19453706Y-11126650D02*
X19472753Y-11136174D01*
X19472753Y-11136174D02*
X19482277Y-11145698D01*
X19482277Y-11145698D02*
X19491801Y-11164746D01*
X19491801Y-11164746D02*
X19491801Y-11221888D01*
X19491801Y-11221888D02*
X19482277Y-11240936D01*
X19482277Y-11240936D02*
X19472753Y-11250460D01*
X19472753Y-11250460D02*
X19453706Y-11259984D01*
X19453706Y-11259984D02*
X19425134Y-11259984D01*
X19606087Y-11259984D02*
X19587039Y-11250460D01*
X19587039Y-11250460D02*
X19577515Y-11231412D01*
X19577515Y-11231412D02*
X19577515Y-11059984D01*
X19758468Y-11250460D02*
X19739420Y-11259984D01*
X19739420Y-11259984D02*
X19701325Y-11259984D01*
X19701325Y-11259984D02*
X19682277Y-11250460D01*
X19682277Y-11250460D02*
X19672753Y-11231412D01*
X19672753Y-11231412D02*
X19672753Y-11155222D01*
X19672753Y-11155222D02*
X19682277Y-11136174D01*
X19682277Y-11136174D02*
X19701325Y-11126650D01*
X19701325Y-11126650D02*
X19739420Y-11126650D01*
X19739420Y-11126650D02*
X19758468Y-11136174D01*
X19758468Y-11136174D02*
X19767992Y-11155222D01*
X19767992Y-11155222D02*
X19767992Y-11174270D01*
X19767992Y-11174270D02*
X19672753Y-11193317D01*
X19834658Y-11336174D02*
X19844182Y-11326650D01*
X19844182Y-11326650D02*
X19863230Y-11298079D01*
X19863230Y-11298079D02*
X19872753Y-11279031D01*
X19872753Y-11279031D02*
X19882277Y-11250460D01*
X19882277Y-11250460D02*
X19891801Y-11202841D01*
X19891801Y-11202841D02*
X19891801Y-11164746D01*
X19891801Y-11164746D02*
X19882277Y-11117127D01*
X19882277Y-11117127D02*
X19872753Y-11088555D01*
X19872753Y-11088555D02*
X19863230Y-11069508D01*
X19863230Y-11069508D02*
X19844182Y-11040936D01*
X19844182Y-11040936D02*
X19834658Y-11031412D01*
X20196563Y-11336174D02*
X20187039Y-11326650D01*
X20187039Y-11326650D02*
X20167992Y-11298079D01*
X20167992Y-11298079D02*
X20158468Y-11279031D01*
X20158468Y-11279031D02*
X20148944Y-11250460D01*
X20148944Y-11250460D02*
X20139420Y-11202841D01*
X20139420Y-11202841D02*
X20139420Y-11164746D01*
X20139420Y-11164746D02*
X20148944Y-11117127D01*
X20148944Y-11117127D02*
X20158468Y-11088555D01*
X20158468Y-11088555D02*
X20167992Y-11069508D01*
X20167992Y-11069508D02*
X20187039Y-11040936D01*
X20187039Y-11040936D02*
X20196563Y-11031412D01*
X20272753Y-11126650D02*
X20272753Y-11259984D01*
X20272753Y-11145698D02*
X20282277Y-11136174D01*
X20282277Y-11136174D02*
X20301325Y-11126650D01*
X20301325Y-11126650D02*
X20329896Y-11126650D01*
X20329896Y-11126650D02*
X20348944Y-11136174D01*
X20348944Y-11136174D02*
X20358468Y-11155222D01*
X20358468Y-11155222D02*
X20358468Y-11259984D01*
X20482277Y-11259984D02*
X20463230Y-11250460D01*
X20463230Y-11250460D02*
X20453706Y-11240936D01*
X20453706Y-11240936D02*
X20444182Y-11221888D01*
X20444182Y-11221888D02*
X20444182Y-11164746D01*
X20444182Y-11164746D02*
X20453706Y-11145698D01*
X20453706Y-11145698D02*
X20463230Y-11136174D01*
X20463230Y-11136174D02*
X20482277Y-11126650D01*
X20482277Y-11126650D02*
X20510849Y-11126650D01*
X20510849Y-11126650D02*
X20529896Y-11136174D01*
X20529896Y-11136174D02*
X20539420Y-11145698D01*
X20539420Y-11145698D02*
X20548944Y-11164746D01*
X20548944Y-11164746D02*
X20548944Y-11221888D01*
X20548944Y-11221888D02*
X20539420Y-11240936D01*
X20539420Y-11240936D02*
X20529896Y-11250460D01*
X20529896Y-11250460D02*
X20510849Y-11259984D01*
X20510849Y-11259984D02*
X20482277Y-11259984D01*
X20606087Y-11126650D02*
X20682277Y-11126650D01*
X20634658Y-11059984D02*
X20634658Y-11231412D01*
X20634658Y-11231412D02*
X20644182Y-11250460D01*
X20644182Y-11250460D02*
X20663230Y-11259984D01*
X20663230Y-11259984D02*
X20682277Y-11259984D01*
X20901325Y-11126650D02*
X20901325Y-11326650D01*
X20901325Y-11136174D02*
X20920373Y-11126650D01*
X20920373Y-11126650D02*
X20958468Y-11126650D01*
X20958468Y-11126650D02*
X20977515Y-11136174D01*
X20977515Y-11136174D02*
X20987039Y-11145698D01*
X20987039Y-11145698D02*
X20996563Y-11164746D01*
X20996563Y-11164746D02*
X20996563Y-11221888D01*
X20996563Y-11221888D02*
X20987039Y-11240936D01*
X20987039Y-11240936D02*
X20977515Y-11250460D01*
X20977515Y-11250460D02*
X20958468Y-11259984D01*
X20958468Y-11259984D02*
X20920373Y-11259984D01*
X20920373Y-11259984D02*
X20901325Y-11250460D01*
X21110849Y-11259984D02*
X21091801Y-11250460D01*
X21091801Y-11250460D02*
X21082277Y-11231412D01*
X21082277Y-11231412D02*
X21082277Y-11059984D01*
X21272754Y-11259984D02*
X21272754Y-11155222D01*
X21272754Y-11155222D02*
X21263230Y-11136174D01*
X21263230Y-11136174D02*
X21244182Y-11126650D01*
X21244182Y-11126650D02*
X21206087Y-11126650D01*
X21206087Y-11126650D02*
X21187039Y-11136174D01*
X21272754Y-11250460D02*
X21253706Y-11259984D01*
X21253706Y-11259984D02*
X21206087Y-11259984D01*
X21206087Y-11259984D02*
X21187039Y-11250460D01*
X21187039Y-11250460D02*
X21177515Y-11231412D01*
X21177515Y-11231412D02*
X21177515Y-11212365D01*
X21177515Y-11212365D02*
X21187039Y-11193317D01*
X21187039Y-11193317D02*
X21206087Y-11183793D01*
X21206087Y-11183793D02*
X21253706Y-11183793D01*
X21253706Y-11183793D02*
X21272754Y-11174270D01*
X21339420Y-11126650D02*
X21415611Y-11126650D01*
X21367992Y-11059984D02*
X21367992Y-11231412D01*
X21367992Y-11231412D02*
X21377515Y-11250460D01*
X21377515Y-11250460D02*
X21396563Y-11259984D01*
X21396563Y-11259984D02*
X21415611Y-11259984D01*
X21558468Y-11250460D02*
X21539420Y-11259984D01*
X21539420Y-11259984D02*
X21501325Y-11259984D01*
X21501325Y-11259984D02*
X21482277Y-11250460D01*
X21482277Y-11250460D02*
X21472754Y-11231412D01*
X21472754Y-11231412D02*
X21472754Y-11155222D01*
X21472754Y-11155222D02*
X21482277Y-11136174D01*
X21482277Y-11136174D02*
X21501325Y-11126650D01*
X21501325Y-11126650D02*
X21539420Y-11126650D01*
X21539420Y-11126650D02*
X21558468Y-11136174D01*
X21558468Y-11136174D02*
X21567992Y-11155222D01*
X21567992Y-11155222D02*
X21567992Y-11174270D01*
X21567992Y-11174270D02*
X21472754Y-11193317D01*
X21739420Y-11259984D02*
X21739420Y-11059984D01*
X21739420Y-11250460D02*
X21720373Y-11259984D01*
X21720373Y-11259984D02*
X21682277Y-11259984D01*
X21682277Y-11259984D02*
X21663230Y-11250460D01*
X21663230Y-11250460D02*
X21653706Y-11240936D01*
X21653706Y-11240936D02*
X21644182Y-11221888D01*
X21644182Y-11221888D02*
X21644182Y-11164746D01*
X21644182Y-11164746D02*
X21653706Y-11145698D01*
X21653706Y-11145698D02*
X21663230Y-11136174D01*
X21663230Y-11136174D02*
X21682277Y-11126650D01*
X21682277Y-11126650D02*
X21720373Y-11126650D01*
X21720373Y-11126650D02*
X21739420Y-11136174D01*
X21815611Y-11336174D02*
X21825135Y-11326650D01*
X21825135Y-11326650D02*
X21844182Y-11298079D01*
X21844182Y-11298079D02*
X21853706Y-11279031D01*
X21853706Y-11279031D02*
X21863230Y-11250460D01*
X21863230Y-11250460D02*
X21872754Y-11202841D01*
X21872754Y-11202841D02*
X21872754Y-11164746D01*
X21872754Y-11164746D02*
X21863230Y-11117127D01*
X21863230Y-11117127D02*
X21853706Y-11088555D01*
X21853706Y-11088555D02*
X21844182Y-11069508D01*
X21844182Y-11069508D02*
X21825135Y-11040936D01*
X21825135Y-11040936D02*
X21815611Y-11031412D01*
M02*
