M48
; DRILL file {KiCad 8.0.6} date 2024-11-06T21:45:56-0500
; FORMAT={-:-/ absolute / metric / decimal}
; #@! TF.CreationDate,2024-11-06T21:45:56-05:00
; #@! TF.GenerationSoftware,Kicad,Pcbnew,8.0.6
; #@! TF.FileFunction,Plated,1,2,PTH
FMAT,2
METRIC
; #@! TA.AperFunction,Plated,PTH,ViaDrill
T1C0.200
; #@! TA.AperFunction,Plated,PTH,ComponentDrill
T2C0.800
%
G90
G05
T1
X153.31Y-89.08
X153.31Y-101.55
X156.53Y-98.85
X159.52Y-96.59
X161.56Y-96.59
X164.03Y-96.59
X165.86Y-96.59
X168.52Y-96.59
X169.75Y-89.08
X169.75Y-101.55
T2
X153.52Y-93.34
X153.52Y-95.34
X155.52Y-95.34
X155.52Y-99.84
X155.52Y-93.34
X155.52Y-97.84
X157.52Y-93.34
X157.52Y-97.84
X157.52Y-99.84
X159.52Y-93.34
X159.52Y-95.34
X159.52Y-97.84
X161.52Y-93.34
X161.52Y-95.34
X161.52Y-97.84
X161.52Y-99.84
X163.52Y-99.84
X163.52Y-93.34
X163.52Y-95.34
X163.52Y-97.84
X165.52Y-93.34
X165.52Y-97.84
X165.52Y-95.34
X165.52Y-99.84
X167.52Y-95.34
X167.52Y-93.34
X167.52Y-97.84
X167.52Y-99.84
X169.52Y-93.34
X169.52Y-95.34
M30
