M48
; DRILL file {KiCad (5.1.8-0-10_14)} date Wednesday, August 04, 2021 at 10:04:32 PM
; FORMAT={-:-/ absolute / inch / decimal}
; #@! TF.CreationDate,2021-08-04T22:04:32-04:00
; #@! TF.GenerationSoftware,Kicad,Pcbnew,(5.1.8-0-10_14)
FMAT,2
INCH
T1C0.0118
T2C0.0157
T3C0.0315
T4C0.0315
T5C0.0827
%
G90
G05
T1
X5.9136Y-3.1662
X5.9444Y-3.0191
T2
X5.6782Y-2.9257
X5.6782Y-3.1746
X5.6982Y-2.4987
X5.7142Y-3.3237
X5.7353Y-3.0507
X6.1282Y-3.0504
X6.1732Y-2.4987
X6.1856Y-2.926
X6.1856Y-3.1757
T3
X5.6971Y-2.657
X5.6971Y-2.7357
X5.7758Y-2.657
X5.7758Y-2.7357
X5.8545Y-2.7357
X5.9333Y-2.657
X5.9333Y-2.7357
X6.012Y-2.657
X6.012Y-2.7357
X6.0908Y-2.657
X6.0908Y-2.7357
X6.1695Y-2.657
X6.1695Y-2.7357
T4
X5.8545Y-2.657
T5
X6.1391Y-3.3152
X5.7306Y-2.8432
T0
M30
